<?xml version="1.0" encoding="utf-8"?>
<!-- Generator: Adobe Illustrator 26.3.1, SVG Export Plug-In . SVG Version: 6.00 Build 0)  -->
<svg version="1.2" baseProfile="tiny" id="g-nycparkbreakdown-sm-interactions-img" xmlns="http://www.w3.org/2000/svg" xmlns:xlink="http://www.w3.org/1999/xlink"
	 x="0px" y="0px" viewBox="0 0 510 376.183" overflow="visible" xml:space="preserve">
<g>
	<g id="green_00000039847960366751673190000016374631977274793918_">
		
			<polygon id="path35_00000134971398485958222520000017953699567091049347_" fill="#B2DBAB" stroke="#AAAAAA" stroke-width="0.75" stroke-miterlimit="10" points="
			-1920.036,180.867 -1897.15,180.867 -1897.15,180.867 		"/>
		
			<polygon id="path36_00000026850975768976412400000005909729692979849886_" fill="#B2DBAB" stroke="#AAAAAA" stroke-width="0.75" stroke-miterlimit="10" points="
			-1893.498,180.867 -1833.08,180.867 -1833.08,180.867 		"/>
		
			<path id="path37_00000083781570816556915290000004150493123281356460_" fill="#B2DBAB" stroke="#AAAAAA" stroke-width="0.75" stroke-miterlimit="10" d="
			M-1917.56,4.237h82.388c0.915,0,2.746,0.915,2.746,2.746v169.353c0,0.915-0.915,2.746-2.746,2.746h-82.388
			c-0.915,0-2.746-0.915-2.746-2.746V6.983C-1919.391,5.152-1918.476,4.237-1917.56,4.237z"/>
		
			<polygon id="path39_00000012470166701004353100000010844824620942199195_" fill="#B2DBAB" stroke="#AAAAAA" stroke-width="0.75" stroke-miterlimit="10" points="
			-1664.044,180.867 -1636.582,180.867 -1636.582,180.867 		"/>
		
			<path id="path41_00000168075056017155333300000018343183340459431588_" fill="#B2DBAB" stroke="#AAAAAA" stroke-width="0.75" stroke-miterlimit="10" d="
			M-1914.674-165.873h273.711c0.915,0,2.746,0.915,2.746,2.746V-3.843c0,0.915-0.915,2.746-2.746,2.746h-273.711
			c-0.915,0-2.746-0.915-2.746-2.746v-159.284C-1917.42-164.042-1916.505-165.873-1914.674-165.873z"/>
		
			<path id="path42_00000162316684908897368120000010048978762884159149_" fill="#B2DBAB" stroke="#AAAAAA" stroke-width="0.75" stroke-miterlimit="10" d="
			M-1631.528-167.498h10.07c0.915,0,2.746,0.915,2.746,2.746l0,0c0,0.915-0.915,2.746-2.746,2.746h-10.07
			c-0.915,0-2.746-0.915-2.746-2.746l0,0C-1634.274-165.667-1632.444-167.498-1631.528-167.498z"/>
		
			<path id="path43_00000124874745474857004030000007200247042769046688_" fill="#B2DBAB" stroke="#AAAAAA" stroke-width="0.75" stroke-miterlimit="10" d="
			M-1631.528-158.503h10.07c0.915,0,2.746,0.915,2.746,2.746V-6.543c0,0.915-0.915,2.746-2.746,2.746h-10.07
			c-0.915,0-2.746-0.915-2.746-2.746v-149.214C-1634.274-157.587-1632.444-158.503-1631.528-158.503z"/>
		
			<path id="path44_00000155863503175766668920000010538854472844087174_" fill="#B2DBAB" stroke="#AAAAAA" stroke-width="0.75" stroke-miterlimit="10" d="
			M-1612.248-165.901h161.114c0.915,0,1.831,0.915,1.831,1.831V-6.617c0,0.915-0.916,2.746-2.746,2.746h-160.199
			c-0.915,0-2.746-0.915-2.746-2.746v-156.537C-1614.079-164.07-1613.164-165.901-1612.248-165.901z"/>
		
			<path id="path45_00000015323773355111155870000006249115106446611120_" fill="#B2DBAB" stroke="#AAAAAA" stroke-width="0.75" stroke-miterlimit="10" d="
			M-1631.155,1.052h46.687c0.915,0,2.746,0.915,2.746,2.746v131.821c0,0.915-0.915,2.746-2.746,2.746h-46.687
			c-0.915,0-2.746-0.915-2.746-2.746V3.798C-1633.901,1.967-1632.07,1.052-1631.155,1.052z"/>
		
			<path id="path46_00000112590519333689913800000001330540112749830059_" fill="#B2DBAB" stroke="#AAAAAA" stroke-width="0.75" stroke-miterlimit="10" d="
			M-1631.155,142.036h46.687c0.915,0,2.746,0.915,2.746,2.746v33.871c0,0.915-0.915,2.746-2.746,2.746h-46.687
			c-0.915,0-2.746-0.915-2.746-2.746v-33.871C-1633.901,142.951-1632.07,142.036-1631.155,142.036z"/>
		
			<path id="path47_00000116233983638694805090000008236370023838476177_" fill="#B2DBAB" stroke="#AAAAAA" stroke-width="0.75" stroke-miterlimit="10" d="
			M-1575.258,1.285h123.582c0.916,0,2.746,0.915,2.746,2.746v154.706c0,0.915-0.916,2.746-2.746,2.746h-123.582
			c-0.915,0-2.746-0.915-2.746-2.746V4.031C-1578.004,2.201-1577.089,1.285-1575.258,1.285z"/>
		
			<path id="path48_00000059993971775986826490000004452770903930235823_" fill="#B2DBAB" stroke="#AAAAAA" stroke-width="0.75" stroke-miterlimit="10" d="
			M-1576.201,164.23h31.124c0.916,0,2.746,0.915,2.746,2.746v11.901c0,0.915-0.916,2.746-2.746,2.746h-31.124
			c-0.915,0-2.746-0.915-2.746-2.746v-11.901C-1578.947,166.061-1578.032,164.23-1576.201,164.23z"/>
		
			<path id="path50_00000177459134852548752040000017897151003198505605_" fill="#B2DBAB" stroke="#AAAAAA" stroke-width="0.75" stroke-miterlimit="10" d="
			M-1496.737,164.23h37.532c0.916,0,2.746,0.915,2.746,2.746v11.901c0,0.915-0.916,2.746-2.746,2.746h-37.532
			c-0.916,0-2.746-0.915-2.746-2.746v-11.901C-1498.568,166.061-1497.652,164.23-1496.737,164.23z"/>
		
			<polygon id="path52_00000018237004320324601500000012329102433719907514_" fill="#B2DBAB" stroke="#AAAAAA" stroke-width="0.75" stroke-miterlimit="10" points="
			-1454.086,182.735 -1447.678,182.735 -1447.678,182.735 		"/>
		
			<path id="path59_00000124858315570252394790000002307743176839104672_" fill="#B2DBAB" stroke="#AAAAAA" stroke-width="0.75" stroke-miterlimit="10" d="
			M-1146.298,81.908h143.721c0.915,0,1.831,0.915,1.831,1.831v93.373c0,0.915-0.916,1.831-1.831,1.831h-143.721
			c-0.916,0-1.831-0.915-1.831-1.831V83.739C-1148.129,82.823-1147.214,81.908-1146.298,81.908z"/>
		
			<rect id="path61_00000061448799147580547080000015034712210817951111_" x="-997.374" y="36.127" fill="#B2DBAB" stroke="#AAAAAA" stroke-width="0.75" stroke-miterlimit="10" width="0" height="4.577"/>
		
			<path id="path60_00000096050816595010149540000004612570427268803477_" fill="#B2DBAB" stroke="#AAAAAA" stroke-width="0.75" stroke-miterlimit="10" d="
			M-1435.412-166.471h273.711c0.916,0,1.831,0.915,1.831,1.831V29.43c0,0.915-0.916,1.831-1.831,1.831h-273.711
			c-0.916,0-1.831-0.915-1.831-1.831V-164.64C-1437.243-165.555-1436.328-166.471-1435.412-166.471z"/>
		
			<path id="path62_00000062915265268204222950000003787418227600017847_" fill="#B2DBAB" stroke="#AAAAAA" stroke-width="0.75" stroke-miterlimit="10" d="
			M-1436.384,36.127h93.373c0.916,0,1.831,0.915,1.831,1.831v0.915c0,0.915-0.915,1.831-1.831,1.831h-93.373
			c-0.916,0-1.831-0.915-1.831-1.831v-0.915C-1438.215,36.127-1437.3,36.127-1436.384,36.127z"/>
		
			<path id="path63_00000009581325624080850700000005660042569747711362_" fill="#B2DBAB" stroke="#AAAAAA" stroke-width="0.75" stroke-miterlimit="10" d="
			M-1336.276,36.127h17.393c0.916,0,1.831,0.915,1.831,1.831v0.915c0,0.915-0.916,1.831-1.831,1.831h-17.393
			c-0.916,0-1.831-0.915-1.831-1.831v-0.915C-1338.107,36.127-1337.192,36.127-1336.276,36.127z"/>
		
			<path id="path64_00000018237518052482865080000001183406562666453172_" fill="#B2DBAB" stroke="#AAAAAA" stroke-width="0.75" stroke-miterlimit="10" d="
			M-1438,43.992h118.089c0.915,0,1.831,0.915,1.831,1.831v130.905c0,0.915-0.916,1.831-1.831,1.831H-1438
			c-0.916,0-1.831-0.915-1.831-1.831V45.823C-1439.831,44.908-1438.916,43.992-1438,43.992z"/>
		
			<path id="path65_00000118395872974275082140000004546609631808880787_" fill="#B2DBAB" stroke="#AAAAAA" stroke-width="0.75" stroke-miterlimit="10" d="
			M-1311.691,37.444h46.687c0.916,0,1.831,0.915,1.831,1.831v129.99c0,0.915-0.915,1.831-1.831,1.831h-46.687
			c-0.916,0-1.831-0.915-1.831-1.831V39.275C-1313.522,37.444-1312.606,37.444-1311.691,37.444z"/>
		
			<path id="path66_00000155133242120219144440000013671155419612082587_" fill="#B2DBAB" stroke="#AAAAAA" stroke-width="0.75" stroke-miterlimit="10" d="
			M-1311.691,174.393h46.687c0.916,0,1.831,0.915,1.831,1.831v2.746c0,0.915-0.915,1.831-1.831,1.831h-46.687
			c-0.916,0-1.831-0.915-1.831-1.831v-2.746C-1313.522,175.309-1312.606,174.393-1311.691,174.393z"/>
		
			<path id="path67_00000106131128416172837200000003352871539624671119_" fill="#B2DBAB" stroke="#AAAAAA" stroke-width="0.75" stroke-miterlimit="10" d="
			M-1257.933,37.5h97.035c0.915,0,1.831,0.915,1.831,1.831v135.483c0,0.915-0.916,1.831-1.831,1.831h-97.035
			c-0.916,0-1.831-0.915-1.831-1.831V39.331C-1259.764,37.5-1258.849,37.5-1257.933,37.5z"/>
		
			<path id="path68_00000024693226155115529160000015559944003397704125_" fill="#B2DBAB" stroke="#AAAAAA" stroke-width="0.75" stroke-miterlimit="10" d="
			M-1260.792,179.933L-1260.792,179.933L-1260.792,179.933z"/>
		
			<polygon id="path69_00000180363551350342474490000014695762871092262807_" fill="#B2DBAB" stroke="#AAAAAA" stroke-width="0.75" stroke-miterlimit="10" points="
			-1256.99,179.933 -1159.04,179.933 -1159.04,179.933 		"/>
		
			<rect id="path0_00000112602254043162459050000015321729109233356214_" x="-1920.736" y="188.704" fill="#B2DBAB" stroke="#AAAAAA" stroke-width="0.75" stroke-miterlimit="10" width="0" height="127.244"/>
		
			<path id="path1_00000150074437427402805170000017846535914391381400_" fill="#B2DBAB" stroke="#AAAAAA" stroke-width="0.75" stroke-miterlimit="10" d="
			M-1915.378,188.704h159.284c0.915,0,0.915,0.915,0.915,0.915v124.497c0,0.915-0.915,1.831-1.831,1.831h-158.368
			c-0.915,0-0.915-0.915-0.915-0.915V189.619C-1917.209,189.619-1916.294,188.704-1915.378,188.704z"/>
		
			<path id="path2_00000034780795217070786200000002615597082583195806_" fill="#B2DBAB" stroke="#AAAAAA" stroke-width="0.75" stroke-miterlimit="10" d="
			M-1750.729,187.499L-1750.729,187.499c0.915,0,0.915,0.915,0.915,0.915v7.323c0,0.915-0.915,0.915-0.915,0.915l0,0
			c-0.915,0-0.915-0.915-0.915-0.915v-7.323C-1751.645,188.414-1750.729,187.499-1750.729,187.499z"/>
		
			<rect id="path3_00000144303023794228530690000011065052321248793223_" x="-1751.635" y="199.558" fill="#B2DBAB" stroke="#AAAAAA" stroke-width="0.75" stroke-miterlimit="10" width="2.746" height="0.915"/>
		
			<path id="path4_00000081616706526875290390000005800849412868861100_" fill="#B2DBAB" stroke="#AAAAAA" stroke-width="0.75" stroke-miterlimit="10" d="
			M-1750.729,204.425L-1750.729,204.425c0.915,0,0.915,0.915,0.915,0.915v109.851c0,0.915-0.915,0.915-0.915,0.915l0,0
			c-0.915,0-0.915-0.915-0.915-0.915V205.34C-1751.645,204.425-1750.729,204.425-1750.729,204.425z"/>
		
			<path id="path5_00000119105627022048935650000002075046024144576168_" fill="#B2DBAB" stroke="#AAAAAA" stroke-width="0.75" stroke-miterlimit="10" d="
			M-1918.111,321.272h165.691c0.915,0,0.915,0.915,0.915,0.915v118.089c0,0.915-0.915,0.915-0.915,0.915h-165.691
			c-0.915,0-0.915-0.915-0.915-0.915V322.187C-1919.027,321.272-1919.027,321.272-1918.111,321.272z"/>
		
			<path id="path6_00000111172610337600847050000011964403901311747499_" fill="#B2DBAB" stroke="#AAAAAA" stroke-width="0.75" stroke-miterlimit="10" d="
			M-1919.204,445.91h58.587c0.915,0,0.915,0.915,0.915,0.915v65.91c0,0.915-0.915,0.915-0.915,0.915h-58.587
			c-0.915,0-0.915-0.915-0.915-0.915v-65.91C-1920.12,445.91-1920.12,445.91-1919.204,445.91z"/>
		
			<path id="path7_00000173839897459545770500000007538272255630329258_" fill="#B2DBAB" stroke="#AAAAAA" stroke-width="0.75" stroke-miterlimit="10" d="
			M-1854.873,445.91h46.687c0.915,0,0.915,0.915,0.915,0.915v65.91c0,0.915-0.915,0.915-0.915,0.915h-46.687
			c-0.915,0-0.915-0.915-0.915-0.915v-65.91C-1855.788,445.91-1855.788,445.91-1854.873,445.91z"/>
		
			<path id="path10_00000018937706471253880160000012164464255984778134_" fill="#B2DBAB" stroke="#AAAAAA" stroke-width="0.75" stroke-miterlimit="10" d="
			M-1755.353,445.48h4.577c0.915,0,0.915,0.915,0.915,0.915v23.801c0,0.915-0.915,0.915-0.915,0.915h-4.577
			c-0.915,0-0.915-0.915-0.915-0.915v-23.801C-1756.268,445.48-1756.268,445.48-1755.353,445.48z"/>
		
			<path id="path12_00000043455221477916172210000006362936949487969958_" fill="#B2DBAB" stroke="#AAAAAA" stroke-width="0.75" stroke-miterlimit="10" d="
			M-1780.322,474.297h29.293c0.915,0,0.915,0.915,0.915,0.915v10.07c0,0.915-0.915,0.915-0.915,0.915h-29.293
			c-0.915,0-0.915-0.915-0.915-0.915v-10.07C-1781.237,474.297-1780.322,474.297-1780.322,474.297z"/>
		
			<path id="path13_00000179607209986486582070000012101636842819589557_" fill="#B2DBAB" stroke="#AAAAAA" stroke-width="0.75" stroke-miterlimit="10" d="
			M-1780.49,489.364h12.816c0.915,0,0.915,0.915,0.915,0.915v21.97c0,0.915-0.915,0.915-0.915,0.915h-12.816
			c-0.915,0-0.915-0.915-0.915-0.915v-21.97C-1781.405,490.28-1780.49,489.364-1780.49,489.364z"/>
		
			<polygon id="path15_00000114038591560622547750000005130321432229796503_" fill="#B2DBAB" stroke="#AAAAAA" stroke-width="0.75" stroke-miterlimit="10" points="
			-1763.657,514.342 -1749.01,514.342 -1749.01,514.342 		"/>
		
			<rect id="path17_00000163777917039170554390000011776570969870299560_" x="-1624.074" y="374.236" fill="#B2DBAB" stroke="#AAAAAA" stroke-width="0.75" stroke-miterlimit="10" width="8.239" height="0.915"/>
		
			<path id="path18_00000160166310770800280690000016214289226753775752_" fill="#B2DBAB" stroke="#AAAAAA" stroke-width="0.75" stroke-miterlimit="10" d="
			M-1622.29,378.047L-1622.29,378.047c0.915,0,2.746,0.915,2.746,2.746v2.746c0,0.915-0.915,2.746-2.746,2.746l0,0
			c-0.915,0-2.746-0.915-2.746-2.746v-2.746C-1624.121,378.962-1623.205,378.047-1622.29,378.047z"/>
		
			<rect id="path19_00000156545415491959705570000011243068340630956442_" x="-1617.61" y="378.038" fill="#B2DBAB" stroke="#AAAAAA" stroke-width="0.75" stroke-miterlimit="10" width="0.915" height="7.323"/>
		
			<rect id="path21_00000096024130394412280520000007158526876832451473_" x="-1614.817" y="388.565" fill="#B2DBAB" stroke="#AAAAAA" stroke-width="0.75" stroke-miterlimit="10" width="0" height="123.582"/>
		
			<path id="path22_00000151528293491616635400000001130401156760305338_" fill="#B2DBAB" stroke="#AAAAAA" stroke-width="0.75" stroke-miterlimit="10" d="
			M-1610.698,375.628h37.532c0.915,0,2.746,0.915,2.746,2.746v131.821c0,0.915-0.916,2.746-2.746,2.746h-37.532
			c-0.915,0-2.746-0.915-2.746-2.746V378.374C-1613.444,376.543-1612.528,375.628-1610.698,375.628z"/>
		
			<path id="path23_00000086680180703840810100000005928729574142112660_" fill="#B2DBAB" stroke="#AAAAAA" stroke-width="0.75" stroke-miterlimit="10" d="
			M-1563.264,188.34h110.766c0.915,0,1.831,0.915,1.831,1.831v86.965c0,0.915-0.916,2.746-2.746,2.746h-110.766
			c-0.916,0-2.746-0.915-2.746-2.746V190.17C-1566.01,189.255-1565.095,188.34-1563.264,188.34z"/>
		
			<path id="path24_00000016042516747574122960000010243913713968333743_" fill="#B2DBAB" stroke="#AAAAAA" stroke-width="0.75" stroke-miterlimit="10" d="
			M-1564.132,282.964h23.801c0.916,0,2.746,0.915,2.746,2.746v21.97c0,0.915-0.916,2.746-2.746,2.746h-23.801
			c-0.915,0-2.746-0.915-2.746-2.746v-21.97C-1566.879,283.88-1565.963,282.964-1564.132,282.964z"/>
		
			<path id="path25_00000021088257916701542280000001007256127550356408_" fill="#B2DBAB" stroke="#AAAAAA" stroke-width="0.75" stroke-miterlimit="10" d="
			M-1564.132,312.725h23.801c0.916,0,2.746,0.915,2.746,2.746v9.154c0,0.915-0.916,2.746-2.746,2.746h-23.801
			c-0.915,0-2.746-0.915-2.746-2.746v-9.154C-1566.879,313.64-1565.963,312.725-1564.132,312.725z"/>
		
			<path id="path26_00000096748111221056881060000012662230213198417572_" fill="#B2DBAB" stroke="#AAAAAA" stroke-width="0.75" stroke-miterlimit="10" d="
			M-1533.064,283.133h47.602c0.915,0,2.746,0.915,2.746,2.746v38.448c0,0.915-0.916,2.746-2.746,2.746h-47.602
			c-0.916,0-2.746-0.915-2.746-2.746v-38.448C-1535.811,284.048-1534.895,283.133-1533.064,283.133z"/>
		
			<path id="path27_00000008831299721440192230000010567824748889494178_" fill="#B2DBAB" stroke="#AAAAAA" stroke-width="0.75" stroke-miterlimit="10" d="
			M-1477.242,283.133h25.632c0.916,0,2.746,0.915,2.746,2.746v38.448c0,0.915-0.915,2.746-2.746,2.746h-25.632
			c-0.915,0-2.746-0.915-2.746-2.746v-38.448C-1479.988,284.048-1479.073,283.133-1477.242,283.133z"/>
		
			<path id="path28_00000172439751466826545790000003985857410747078023_" fill="#B2DBAB" stroke="#AAAAAA" stroke-width="0.75" stroke-miterlimit="10" d="
			M-1738.315,189.264h163.861c0.915,0,2.746,0.915,2.746,2.746v176.677c0,0.915-0.916,2.746-2.746,2.746h-163.861
			c-0.915,0-2.746-0.915-2.746-2.746V191.095C-1741.061,190.18-1740.146,189.264-1738.315,189.264z"/>
		
			<path id="path30_00000122678261090889209000000001304186372949379738_" fill="#B2DBAB" stroke="#AAAAAA" stroke-width="0.75" stroke-miterlimit="10" d="
			M-1565.646,373.096h58.587c0.916,0,2.746,0.915,2.746,2.746v66.826c0,0.915-0.916,2.746-2.746,2.746h-58.587
			c-0.915,0-2.746-0.915-2.746-2.746v-66.826C-1567.477,374.012-1566.561,373.096-1565.646,373.096z"/>
		
			<path id="path31_00000057131644924041986230000014170938796489632689_" fill="#B2DBAB" stroke="#AAAAAA" stroke-width="0.75" stroke-miterlimit="10" d="
			M-1498.512,330.557h46.687c0.916,0,2.746,0.915,2.746,2.746v108.935c0,0.915-0.915,2.746-2.746,2.746h-46.687
			c-0.916,0-2.746-0.915-2.746-2.746V333.303C-1501.258,331.472-1500.343,330.557-1498.512,330.557z"/>
		
			<path id="path32_00000042729011628843784530000011649284438094664639_" fill="#B2DBAB" stroke="#AAAAAA" stroke-width="0.75" stroke-miterlimit="10" d="
			M-1565.123,447.759h109.851c0.915,0,2.746,0.915,2.746,2.746v60.418c0,0.915-0.915,2.746-2.746,2.746h-109.851
			c-0.915,0-2.746-0.916-2.746-2.746v-60.418C-1566.953,448.674-1566.038,447.759-1565.123,447.759z"/>
		
			<rect id="path33_00000163790658691135742850000004855755851420996778_" x="-1449.481" y="447.385" fill="#B2DBAB" stroke="#AAAAAA" stroke-width="0.75" stroke-miterlimit="10" width="0" height="29.293"/>
		
			<rect id="path34_00000137108318477652348500000002815448382934467464_" x="-1449.481" y="480.126" fill="#B2DBAB" stroke="#AAAAAA" stroke-width="0.75" stroke-miterlimit="10" width="0" height="33.871"/>
		
			<rect id="path72_00000132088455328836432360000012459859373547241349_" x="-1038.082" y="242.555" fill="#B2DBAB" stroke="#AAAAAA" stroke-width="0.75" stroke-miterlimit="10" width="38.448" height="3.662"/>
		
			<polygon id="path74_00000011749687918228610190000011658626944647700367_" fill="#B2DBAB" stroke="#AAAAAA" stroke-width="0.75" stroke-miterlimit="10" points="
			-1049.179,514.342 -999.747,514.342 -999.747,514.342 		"/>
		
			<path id="path75_00000168810275381233828130000014914116266853318079_" fill="#B2DBAB" stroke="#AAAAAA" stroke-width="0.75" stroke-miterlimit="10" d="
			M-1435.964,190.675h319.482v320.398h-321.313V192.506C-1437.795,191.59-1436.88,190.675-1435.964,190.675z"/>
		
			<rect id="path76_00000047041521149638881760000009803308314218682033_" x="-1109.812" y="187.191" fill="#B2DBAB" stroke="#AAAAAA" stroke-width="0.75" stroke-miterlimit="10" width="57.672" height="70.487"/>
		
			<rect id="path78_00000086670391249828175860000007665912438524204162_" x="-1109.812" y="267.907" fill="#B2DBAB" stroke="#AAAAAA" stroke-width="0.75" stroke-miterlimit="10" width="57.672" height="16.478"/>
		
			<rect id="path79_00000157300746994099434680000001120084722012398217_" x="-1109.812" y="286.99" fill="#B2DBAB" stroke="#AAAAAA" stroke-width="0.75" stroke-miterlimit="10" width="57.672" height="55.841"/>
		
			<rect id="path81_00000095340002603741392910000010239345818671754632_" x="-1109.812" y="352.004" fill="#B2DBAB" stroke="#AAAAAA" stroke-width="0.75" stroke-miterlimit="10" width="57.672" height="110.766"/>
		
			<rect id="path82_00000054261966271765641890000010876461279885318333_" x="-1110.158" y="466.927" fill="#B2DBAB" stroke="#AAAAAA" stroke-width="0.75" stroke-miterlimit="10" width="23.801" height="21.97"/>
		
			<polygon id="path83_00000151533509577506260720000011115057547167680166_" fill="#B2DBAB" stroke="#AAAAAA" stroke-width="0.75" stroke-miterlimit="10" points="
			-1110.27,491.923 -1097.454,491.923 -1097.454,491.923 		"/>
		
			<rect id="path84_00000093878420081187986670000014167017272195370386_" x="-1110.27" y="494.913" fill="#B2DBAB" stroke="#AAAAAA" stroke-width="0.75" stroke-miterlimit="10" width="12.816" height="18.308"/>
		
			<rect id="path86_00000056400404843722925240000009409732434248995978_" x="-1094.437" y="506.01" fill="#B2DBAB" stroke="#AAAAAA" stroke-width="0.75" stroke-miterlimit="10" width="8.239" height="7.323"/>
		
			<rect id="path87_00000074405918537903644760000001791360818316618904_" x="-1083.928" y="467.104" fill="#B2DBAB" stroke="#AAAAAA" stroke-width="0.75" stroke-miterlimit="10" width="31.124" height="39.363"/>
		
			<path id="path37_00000183245872451018345740000011907710161753427369_" fill="#B2DBAB" stroke="#AAAAAA" stroke-width="0.75" stroke-miterlimit="10" d="
			M-781.016-59.072h52.883c0.588,0,1.763,0.588,1.763,1.763V51.394c0,0.588-0.588,1.763-1.763,1.763h-52.883
			c-0.588,0-1.763-0.588-1.763-1.763V-57.309C-782.191-58.484-781.604-59.072-781.016-59.072z"/>
		
			<polygon id="path35_00000067920658936055437160000018146749759980847502_" fill="#B2DBAB" stroke="#AAAAAA" stroke-width="0.75" stroke-miterlimit="10" points="
			-782.605,54.302 -767.915,54.302 -767.915,54.302 		"/>
		
			<polygon id="path36_00000049943715235300798370000005745611227130333076_" fill="#B2DBAB" stroke="#AAAAAA" stroke-width="0.75" stroke-miterlimit="10" points="
			-765.571,54.302 -726.79,54.302 -726.79,54.302 		"/>
		
			<polygon id="path39_00000108293798324905497840000001055474510740067974_" fill="#B2DBAB" stroke="#AAAAAA" stroke-width="0.75" stroke-miterlimit="10" points="
			-618.291,54.302 -600.664,54.302 -600.664,54.302 		"/>
		
			<path id="path41_00000075136117034019550700000018095031105812396453_" fill="#B2DBAB" stroke="#AAAAAA" stroke-width="0.75" stroke-miterlimit="10" d="
			M-779.163-168.261h175.688c0.588,0,1.763,0.588,1.763,1.763v102.24c0,0.588-0.588,1.763-1.763,1.763h-175.688
			c-0.588,0-1.763-0.588-1.763-1.763v-102.24C-780.926-167.085-780.339-168.261-779.163-168.261z"/>
		
			<path id="path42_00000181799026212583426750000001520097796512109456_" fill="#B2DBAB" stroke="#AAAAAA" stroke-width="0.75" stroke-miterlimit="10" d="
			M-597.42-169.304h6.463c0.588,0,1.763,0.588,1.763,1.763l0,0c0,0.588-0.588,1.763-1.763,1.763h-6.463
			c-0.588,0-1.763-0.588-1.763-1.763l0,0C-599.183-168.129-598.008-169.304-597.42-169.304z"/>
		
			<path id="path43_00000168109987856529914760000007634067982501236897_" fill="#B2DBAB" stroke="#AAAAAA" stroke-width="0.75" stroke-miterlimit="10" d="
			M-597.42-163.53h6.463c0.588,0,1.763,0.588,1.763,1.763v95.776c0,0.588-0.588,1.763-1.763,1.763h-6.463
			c-0.588,0-1.763-0.588-1.763-1.763v-95.776C-599.183-162.942-598.008-163.53-597.42-163.53z"/>
		
			<path id="path44_00000155869307390276133220000017236625302508244609_" fill="#B2DBAB" stroke="#AAAAAA" stroke-width="0.75" stroke-miterlimit="10" d="
			M-585.045-168.279h103.415c0.588,0,1.175,0.588,1.175,1.175v101.064c0,0.588-0.588,1.763-1.763,1.763h-102.827
			c-0.588,0-1.763-0.588-1.763-1.763v-100.477C-586.22-167.103-585.632-168.279-585.045-168.279z"/>
		
			<path id="path45_00000136375813280678602010000012378849399444722082_" fill="#B2DBAB" stroke="#AAAAAA" stroke-width="0.75" stroke-miterlimit="10" d="
			M-597.18-61.116h29.967c0.588,0,1.763,0.588,1.763,1.763v84.612c0,0.588-0.588,1.763-1.763,1.763h-29.967
			c-0.588,0-1.763-0.588-1.763-1.763v-84.612C-598.943-60.529-597.768-61.116-597.18-61.116z"/>
		
			<path id="path46_00000068651367851940120350000000510430836443022765_" fill="#B2DBAB" stroke="#AAAAAA" stroke-width="0.75" stroke-miterlimit="10" d="
			M-597.18,29.378h29.967c0.588,0,1.763,0.588,1.763,1.763v21.741c0,0.588-0.588,1.763-1.763,1.763h-29.967
			c-0.588,0-1.763-0.588-1.763-1.763V31.14C-598.943,29.965-597.768,29.378-597.18,29.378z"/>
		
			<path id="path47_00000038408654428649119940000017535107029045890965_" fill="#B2DBAB" stroke="#AAAAAA" stroke-width="0.75" stroke-miterlimit="10" d="
			M-561.302-60.967h79.324c0.588,0,1.763,0.588,1.763,1.763v99.302c0,0.588-0.588,1.763-1.763,1.763h-79.324
			c-0.588,0-1.763-0.588-1.763-1.763v-99.302C-563.064-60.379-562.477-60.967-561.302-60.967z"/>
		
			<path id="path48_00000074441244595418860220000012565079156937654674_" fill="#B2DBAB" stroke="#AAAAAA" stroke-width="0.75" stroke-miterlimit="10" d="
			M-561.907,43.623h19.978c0.588,0,1.763,0.588,1.763,1.763v7.639c0,0.588-0.588,1.763-1.763,1.763h-19.978
			c-0.588,0-1.763-0.588-1.763-1.763v-7.639C-563.67,44.799-563.082,43.623-561.907,43.623z"/>
		
			<path id="path50_00000112592723884261512460000002173100712381170616_" fill="#B2DBAB" stroke="#AAAAAA" stroke-width="0.75" stroke-miterlimit="10" d="
			M-510.901,43.623h24.091c0.588,0,1.763,0.588,1.763,1.763v7.639c0,0.588-0.588,1.763-1.763,1.763h-24.091
			c-0.588,0-1.763-0.588-1.763-1.763v-7.639C-512.076,44.799-511.489,43.623-510.901,43.623z"/>
		
			<polygon id="path52_00000129172736724384673740000014699498958860574134_" fill="#B2DBAB" stroke="#AAAAAA" stroke-width="0.75" stroke-miterlimit="10" points="
			-483.525,55.501 -479.411,55.501 -479.411,55.501 		"/>
		
			<path id="path59_00000152235227711203666020000018093399868798999723_" fill="#B2DBAB" stroke="#AAAAAA" stroke-width="0.75" stroke-miterlimit="10" d="
			M-285.964-9.217h92.251c0.588,0,1.175,0.588,1.175,1.175v59.934c0,0.588-0.588,1.175-1.175,1.175h-92.251
			c-0.588,0-1.175-0.588-1.175-1.175V-8.042C-287.139-8.63-286.552-9.217-285.964-9.217z"/>
		
			<path id="path60_00000045615545714366159260000001868000114231655086_" fill="#B2DBAB" stroke="#AAAAAA" stroke-width="0.75" stroke-miterlimit="10" d="
			M-471.539-168.644h175.688c0.588,0,1.175,0.588,1.175,1.175v124.568c0,0.588-0.588,1.175-1.175,1.175h-175.688
			c-0.588,0-1.175-0.588-1.175-1.175v-124.568C-472.714-168.057-472.126-168.644-471.539-168.644z"/>
		
			<path id="path62_00000072272880706259542330000003782054309775757712_" fill="#B2DBAB" stroke="#AAAAAA" stroke-width="0.75" stroke-miterlimit="10" d="
			M-472.163-38.602h59.934c0.588,0,1.175,0.588,1.175,1.175v0.588c0,0.588-0.588,1.175-1.175,1.175h-59.934
			c-0.588,0-1.175-0.588-1.175-1.175v-0.588C-473.338-38.602-472.75-38.602-472.163-38.602z"/>
		
			<path id="path63_00000114039090782474494320000016474904759818264721_" fill="#B2DBAB" stroke="#AAAAAA" stroke-width="0.75" stroke-miterlimit="10" d="
			M-407.906-38.602h11.164c0.588,0,1.175,0.588,1.175,1.175v0.588c0,0.588-0.588,1.175-1.175,1.175h-11.164
			c-0.588,0-1.175-0.588-1.175-1.175v-0.588C-409.081-38.602-408.494-38.602-407.906-38.602z"/>
		
			<path id="path64_00000035511344451126395850000013474283604830435975_" fill="#B2DBAB" stroke="#AAAAAA" stroke-width="0.75" stroke-miterlimit="10" d="
			M-473.2-33.554h75.798c0.588,0,1.175,0.588,1.175,1.175v84.025c0,0.588-0.588,1.175-1.175,1.175H-473.2
			c-0.588,0-1.175-0.588-1.175-1.175v-84.025C-474.375-32.966-473.787-33.554-473.2-33.554z"/>
		
			<path id="path65_00000137815163734604003120000001565957266944416680_" fill="#B2DBAB" stroke="#AAAAAA" stroke-width="0.75" stroke-miterlimit="10" d="
			M-392.125-37.757h29.967c0.588,0,1.175,0.588,1.175,1.175v83.437c0,0.588-0.588,1.175-1.175,1.175h-29.967
			c-0.588,0-1.175-0.588-1.175-1.175v-83.437C-393.3-37.757-392.713-37.757-392.125-37.757z"/>
		
			<path id="path66_00000005968432440627712690000011586447629118325405_" fill="#B2DBAB" stroke="#AAAAAA" stroke-width="0.75" stroke-miterlimit="10" d="
			M-392.125,50.147h29.967c0.588,0,1.175,0.588,1.175,1.175v1.763c0,0.588-0.588,1.175-1.175,1.175h-29.967
			c-0.588,0-1.175-0.588-1.175-1.175v-1.763C-393.3,50.734-392.713,50.147-392.125,50.147z"/>
		
			<path id="path67_00000100367727557567187830000016802986941290349224_" fill="#B2DBAB" stroke="#AAAAAA" stroke-width="0.75" stroke-miterlimit="10" d="
			M-357.62-37.721h62.284c0.588,0,1.175,0.588,1.175,1.175v86.962c0,0.588-0.588,1.175-1.175,1.175h-62.284
			c-0.588,0-1.175-0.588-1.175-1.175v-86.962C-358.795-37.721-358.207-37.721-357.62-37.721z"/>
		
			<path id="path68_00000129924621179254380740000003671370582418373268_" fill="#B2DBAB" stroke="#AAAAAA" stroke-width="0.75" stroke-miterlimit="10" d="
			M-359.454,53.702L-359.454,53.702L-359.454,53.702z"/>
		
			<polygon id="path69_00000042738130107948367390000011818522132106044563_" fill="#B2DBAB" stroke="#AAAAAA" stroke-width="0.75" stroke-miterlimit="10" points="
			-357.014,53.702 -294.143,53.702 -294.143,53.702 		"/>
		
			<rect id="path0_00000137836050331032483820000018283552908017776522_" x="-783.055" y="59.332" fill="#B2DBAB" stroke="#AAAAAA" stroke-width="0.75" stroke-miterlimit="10" width="0" height="81.674"/>
		
			<path id="path1_00000104701295590687744870000009466525839284368794_" fill="#B2DBAB" stroke="#AAAAAA" stroke-width="0.75" stroke-miterlimit="10" d="
			M-779.616,59.332h102.24c0.588,0,0.588,0.588,0.588,0.588v79.911c0,0.588-0.588,1.175-1.175,1.175h-101.652
			c-0.588,0-0.588-0.588-0.588-0.588V59.92C-780.791,59.92-780.203,59.332-779.616,59.332z"/>
		
			<path id="path2_00000106117513697609027950000014107274594950989498_" fill="#B2DBAB" stroke="#AAAAAA" stroke-width="0.75" stroke-miterlimit="10" d="
			M-673.932,58.559L-673.932,58.559c0.588,0,0.588,0.588,0.588,0.588v4.701c0,0.588-0.588,0.588-0.588,0.588l0,0
			c-0.588,0-0.588-0.588-0.588-0.588v-4.701C-674.519,59.146-673.932,58.559-673.932,58.559z"/>
		
			<rect id="path3_00000009550444279365615020000003853776852579995826_" x="-674.513" y="66.299" fill="#B2DBAB" stroke="#AAAAAA" stroke-width="0.75" stroke-miterlimit="10" width="1.763" height="0.588"/>
		
			<path id="path4_00000129887773102882682040000003166506515431494033_" fill="#B2DBAB" stroke="#AAAAAA" stroke-width="0.75" stroke-miterlimit="10" d="
			M-673.932,69.423L-673.932,69.423c0.588,0,0.588,0.588,0.588,0.588v70.51c0,0.588-0.588,0.588-0.588,0.588l0,0
			c-0.588,0-0.588-0.588-0.588-0.588v-70.51C-674.519,69.423-673.932,69.423-673.932,69.423z"/>
		
			<path id="path5_00000013183565481270981570000006594697456176551847_" fill="#B2DBAB" stroke="#AAAAAA" stroke-width="0.75" stroke-miterlimit="10" d="
			M-781.37,144.424h106.353c0.588,0,0.588,0.588,0.588,0.588v75.798c0,0.588-0.588,0.588-0.588,0.588H-781.37
			c-0.588,0-0.588-0.588-0.588-0.588v-75.798C-781.957,144.424-781.957,144.424-781.37,144.424z"/>
		
			<path id="path6_00000063599578498026803210000012399248913307579295_" fill="#B2DBAB" stroke="#AAAAAA" stroke-width="0.75" stroke-miterlimit="10" d="
			M-782.071,224.425h37.605c0.588,0,0.588,0.588,0.588,0.588v42.306c0,0.588-0.588,0.588-0.588,0.588h-37.605
			c-0.588,0-0.588-0.588-0.588-0.588v-42.306C-782.659,224.425-782.659,224.425-782.071,224.425z"/>
		
			<path id="path7_00000051351159157552168010000002200697436387774867_" fill="#B2DBAB" stroke="#AAAAAA" stroke-width="0.75" stroke-miterlimit="10" d="
			M-740.779,224.425h29.967c0.588,0,0.588,0.588,0.588,0.588v42.306c0,0.588-0.588,0.588-0.588,0.588h-29.967
			c-0.588,0-0.588-0.588-0.588-0.588v-42.306C-741.366,224.425-741.366,224.425-740.779,224.425z"/>
		
			<path id="path10_00000091715136216119482460000005742304071024599487_" fill="#B2DBAB" stroke="#AAAAAA" stroke-width="0.75" stroke-miterlimit="10" d="
			M-676.9,224.15h2.938c0.588,0,0.588,0.588,0.588,0.588v15.277c0,0.588-0.588,0.588-0.588,0.588h-2.938
			c-0.588,0-0.588-0.588-0.588-0.588v-15.277C-677.487,224.15-677.487,224.15-676.9,224.15z"/>
		
			<path id="path12_00000012461926001974974520000012847913622566221748_" fill="#B2DBAB" stroke="#AAAAAA" stroke-width="0.75" stroke-miterlimit="10" d="
			M-692.926,242.647h18.803c0.588,0,0.588,0.588,0.588,0.588v6.463c0,0.588-0.588,0.588-0.588,0.588h-18.803
			c-0.588,0-0.588-0.588-0.588-0.588v-6.463C-693.514,242.647-692.926,242.647-692.926,242.647z"/>
		
			<path id="path13_00000053510699322700611320000018120480790018464940_" fill="#B2DBAB" stroke="#AAAAAA" stroke-width="0.75" stroke-miterlimit="10" d="
			M-693.034,252.318h8.226c0.588,0,0.588,0.588,0.588,0.588v14.102c0,0.588-0.588,0.588-0.588,0.588h-8.226
			c-0.588,0-0.588-0.588-0.588-0.588v-14.102L-693.034,252.318z"/>
		
			<polygon id="path15_00000141435204029083157410000009168705175201197759_" fill="#B2DBAB" stroke="#AAAAAA" stroke-width="0.75" stroke-miterlimit="10" points="
			-682.23,268.35 -672.829,268.35 -672.829,268.35 		"/>
		
			<rect id="path17_00000086662160291879749080000009067741413925412740_" x="-592.635" y="178.42" fill="#B2DBAB" stroke="#AAAAAA" stroke-width="0.75" stroke-miterlimit="10" width="5.288" height="0.588"/>
		
			<path id="path18_00000001660842672469728380000004642335668347664037_" fill="#B2DBAB" stroke="#AAAAAA" stroke-width="0.75" stroke-miterlimit="10" d="
			M-591.49,180.866L-591.49,180.866c0.588,0,1.763,0.588,1.763,1.763v1.763c0,0.588-0.588,1.763-1.763,1.763l0,0
			c-0.588,0-1.763-0.588-1.763-1.763v-1.763C-592.665,181.454-592.078,180.866-591.49,180.866z"/>
		
			<rect id="path19_00000096747997130770763440000014475640022873047966_" x="-588.486" y="180.86" fill="#B2DBAB" stroke="#AAAAAA" stroke-width="0.75" stroke-miterlimit="10" width="0.588" height="4.701"/>
		
			<rect id="path21_00000028304398710324236830000014381681517393603462_" x="-586.694" y="187.618" fill="#B2DBAB" stroke="#AAAAAA" stroke-width="0.75" stroke-miterlimit="10" width="0" height="79.324"/>
		
			<path id="path22_00000037663809872613804890000016096635922539717286_" fill="#B2DBAB" stroke="#AAAAAA" stroke-width="0.75" stroke-miterlimit="10" d="
			M-584.049,179.313h24.091c0.588,0,1.763,0.588,1.763,1.763v84.612c0,0.588-0.588,1.763-1.763,1.763h-24.091
			c-0.588,0-1.763-0.588-1.763-1.763v-84.612C-585.812,179.901-585.225,179.313-584.049,179.313z"/>
		
			<path id="path23_00000163772671050549071050000015315918005771940029_" fill="#B2DBAB" stroke="#AAAAAA" stroke-width="0.75" stroke-miterlimit="10" d="
			M-553.603,59.098h71.098c0.588,0,1.175,0.588,1.175,1.175v55.82c0,0.588-0.588,1.763-1.763,1.763h-71.098
			c-0.588,0-1.763-0.588-1.763-1.763v-55.82C-555.366,59.686-554.778,59.098-553.603,59.098z"/>
		
			<path id="path24_00000124873478343819194180000002745490445045799555_" fill="#B2DBAB" stroke="#AAAAAA" stroke-width="0.75" stroke-miterlimit="10" d="
			M-554.161,119.835h15.277c0.588,0,1.763,0.588,1.763,1.763V135.7c0,0.588-0.588,1.763-1.763,1.763h-15.277
			c-0.588,0-1.763-0.588-1.763-1.763v-14.102C-555.923,120.423-555.336,119.835-554.161,119.835z"/>
		
			<path id="path25_00000106865270982693163110000012095907649621922745_" fill="#B2DBAB" stroke="#AAAAAA" stroke-width="0.75" stroke-miterlimit="10" d="
			M-554.161,138.938h15.277c0.588,0,1.763,0.588,1.763,1.763v5.876c0,0.588-0.588,1.763-1.763,1.763h-15.277
			c-0.588,0-1.763-0.588-1.763-1.763v-5.876C-555.923,139.526-555.336,138.938-554.161,138.938z"/>
		
			<path id="path26_00000106828913838657946560000014293825729588332215_" fill="#B2DBAB" stroke="#AAAAAA" stroke-width="0.75" stroke-miterlimit="10" d="
			M-534.219,119.943h30.554c0.588,0,1.763,0.588,1.763,1.763v24.679c0,0.588-0.588,1.763-1.763,1.763h-30.554
			c-0.588,0-1.763-0.588-1.763-1.763v-24.679C-535.981,120.531-535.394,119.943-534.219,119.943z"/>
		
			<path id="path27_00000093878392174200198780000001249463109053481377_" fill="#B2DBAB" stroke="#AAAAAA" stroke-width="0.75" stroke-miterlimit="10" d="
			M-498.388,119.943h16.452c0.588,0,1.763,0.588,1.763,1.763v24.679c0,0.588-0.588,1.763-1.763,1.763h-16.452
			c-0.588,0-1.763-0.588-1.763-1.763v-24.679C-500.151,120.531-499.563,119.943-498.388,119.943z"/>
		
			<path id="path28_00000066494644566614593320000012680855959594826139_" fill="#B2DBAB" stroke="#AAAAAA" stroke-width="0.75" stroke-miterlimit="10" d="
			M-665.963,59.692h105.178c0.588,0,1.763,0.588,1.763,1.763v113.404c0,0.588-0.588,1.763-1.763,1.763h-105.178
			c-0.588,0-1.763-0.588-1.763-1.763V60.867C-667.726,60.28-667.139,59.692-665.963,59.692z"/>
		
			<path id="path30_00000054954916425778153490000012204024744758046357_" fill="#B2DBAB" stroke="#AAAAAA" stroke-width="0.75" stroke-miterlimit="10" d="
			M-555.132,177.689h37.605c0.588,0,1.763,0.588,1.763,1.763v42.894c0,0.588-0.588,1.763-1.763,1.763h-37.605
			c-0.588,0-1.763-0.588-1.763-1.763v-42.894C-556.307,178.276-555.719,177.689-555.132,177.689z"/>
		
			<path id="path31_00000044150661406974106630000003671609485563957422_" fill="#B2DBAB" stroke="#AAAAAA" stroke-width="0.75" stroke-miterlimit="10" d="
			M-512.04,150.384h29.967c0.588,0,1.763,0.588,1.763,1.763v69.922c0,0.588-0.588,1.763-1.763,1.763h-29.967
			c-0.588,0-1.763-0.588-1.763-1.763v-69.922C-513.803,150.971-513.216,150.384-512.04,150.384z"/>
		
			<path id="path32_00000015345767863763950030000004539087462732909491_" fill="#B2DBAB" stroke="#AAAAAA" stroke-width="0.75" stroke-miterlimit="10" d="
			M-554.796,225.613h70.51c0.588,0,1.763,0.588,1.763,1.763v38.781c0,0.588-0.588,1.763-1.763,1.763h-70.51
			c-0.588,0-1.763-0.588-1.763-1.763v-38.781C-555.971,226.2-555.384,225.613-554.796,225.613z"/>
		
			<rect id="path33_00000056394807744283326980000001174757752829206668_" x="-480.569" y="225.373" fill="#B2DBAB" stroke="#AAAAAA" stroke-width="0.75" stroke-miterlimit="10" width="0" height="18.803"/>
		
			<rect id="path34_00000142175549107273283220000014795159135172566186_" x="-480.569" y="246.388" fill="#B2DBAB" stroke="#AAAAAA" stroke-width="0.75" stroke-miterlimit="10" width="0" height="21.741"/>
		
			<rect id="path72_00000056404237517776308500000011052469107498678437_" x="-216.504" y="93.898" fill="#B2DBAB" stroke="#AAAAAA" stroke-width="0.75" stroke-miterlimit="10" width="24.679" height="2.35"/>
		
			<polygon id="path74_00000109746857544364225480000000177880994413188484_" fill="#B2DBAB" stroke="#AAAAAA" stroke-width="0.75" stroke-miterlimit="10" points="
			-223.626,268.35 -191.897,268.35 -191.897,268.35 		"/>
		
			<path id="path75_00000164496840038833639450000013236681190193093282_" fill="#B2DBAB" stroke="#AAAAAA" stroke-width="0.75" stroke-miterlimit="10" d="
			M-471.893,60.597h205.067v205.654h-206.242V61.773C-473.068,61.185-472.48,60.597-471.893,60.597z"/>
		
			<rect id="path76_00000111171416085305292420000012633275385504485567_" x="-262.545" y="58.361" fill="#B2DBAB" stroke="#AAAAAA" stroke-width="0.75" stroke-miterlimit="10" width="37.018" height="45.244"/>
		
			<rect id="path78_00000153665461292835658860000000079618845918545545_" x="-262.545" y="110.17" fill="#B2DBAB" stroke="#AAAAAA" stroke-width="0.75" stroke-miterlimit="10" width="37.018" height="10.577"/>
		
			<rect id="path79_00000140732115023855870880000006258303822631728036_" x="-262.545" y="122.42" fill="#B2DBAB" stroke="#AAAAAA" stroke-width="0.75" stroke-miterlimit="10" width="37.018" height="35.843"/>
		
			<rect id="path81_00000146496095952401945490000009940893935159260322_" x="-262.545" y="164.15" fill="#B2DBAB" stroke="#AAAAAA" stroke-width="0.75" stroke-miterlimit="10" width="37.018" height="71.098"/>
		
			<rect id="path82_00000158706926057313509840000018312367008453373864_" x="-262.767" y="237.916" fill="#B2DBAB" stroke="#AAAAAA" stroke-width="0.75" stroke-miterlimit="10" width="15.277" height="14.102"/>
		
			<polygon id="path83_00000026868671430422517710000015772119727077703562_" fill="#B2DBAB" stroke="#AAAAAA" stroke-width="0.75" stroke-miterlimit="10" points="
			-262.839,253.961 -254.613,253.961 -254.613,253.961 		"/>
		
			<rect id="path84_00000003064507543836784430000011173569859410017154_" x="-262.839" y="255.879" fill="#B2DBAB" stroke="#AAAAAA" stroke-width="0.75" stroke-miterlimit="10" width="8.226" height="11.752"/>
		
			<rect id="path86_00000031891317274118485200000002458721313847475079_" x="-252.676" y="263.002" fill="#B2DBAB" stroke="#AAAAAA" stroke-width="0.75" stroke-miterlimit="10" width="5.288" height="4.701"/>
		
			<rect id="path87_00000111911294341143943770000008288848856163325623_" x="-245.931" y="238.03" fill="#B2DBAB" stroke="#AAAAAA" stroke-width="0.75" stroke-miterlimit="10" width="19.978" height="25.266"/>
		
			<polygon id="path35_00000097495444327871781380000011708589964636668821_" fill="#B2DBAB" stroke="#AAAAAA" stroke-width="0.75" stroke-miterlimit="10" points="
			1.671,192.331 14.27,192.331 14.27,192.331 		"/>
		
			<polygon id="path36_00000011743414768828198190000001593961911195984554_" fill="#B2DBAB" stroke="#AAAAAA" stroke-width="0.75" stroke-miterlimit="10" points="
			16.281,192.331 49.543,192.331 49.543,192.331 		"/>
		
			<path id="path37_00000105412176620374319530000013862319460175336876_" fill="#B2DBAB" stroke="#AAAAAA" stroke-width="0.75" stroke-miterlimit="10" d="
			M3.034,95.091h45.357c0.504,0,1.512,0.504,1.512,1.512v93.234c0,0.504-0.504,1.512-1.512,1.512H3.034
			c-0.504,0-1.512-0.504-1.512-1.512V96.603C2.026,95.595,2.53,95.091,3.034,95.091z"/>
		
			<polygon id="path39_00000059311557540318151710000004406633557575798671_" fill="#B2DBAB" stroke="#AAAAAA" stroke-width="0.75" stroke-miterlimit="10" points="
			142.602,192.331 157.722,192.331 157.722,192.331 		"/>
		
			<path id="path41_00000079462618299559431090000002747956002125125553_" fill="#B2DBAB" stroke="#AAAAAA" stroke-width="0.75" stroke-miterlimit="10" d="
			M4.623,1.44H155.31c0.504,0,1.512,0.504,1.512,1.512v87.691c0,0.504-0.504,1.512-1.512,1.512H4.623
			c-0.504,0-1.512-0.504-1.512-1.512V2.952C3.111,2.448,3.615,1.44,4.623,1.44z"/>
		
			<path id="path42_00000181809353802385895020000006851095013648124812_" fill="#B2DBAB" stroke="#AAAAAA" stroke-width="0.75" stroke-miterlimit="10" d="
			M160.504,0.545h5.544c0.504,0,1.512,0.504,1.512,1.512l0,0c0,0.504-0.504,1.512-1.512,1.512h-5.544
			c-0.504,0-1.512-0.504-1.512-1.512l0,0C158.992,1.553,160,0.545,160.504,0.545z"/>
		
			<path id="path43_00000036225026654944539520000017467884496381590409_" fill="#B2DBAB" stroke="#AAAAAA" stroke-width="0.75" stroke-miterlimit="10" d="
			M160.504,5.497h5.544c0.504,0,1.512,0.504,1.512,1.512v82.147c0,0.504-0.504,1.512-1.512,1.512h-5.544
			c-0.504,0-1.512-0.504-1.512-1.512V7.009C158.992,6.001,160,5.497,160.504,5.497z"/>
		
			<path id="path44_00000183222619817487478050000000800131761070051254_" fill="#B2DBAB" stroke="#AAAAAA" stroke-width="0.75" stroke-miterlimit="10" d="
			M171.118,1.425h88.699c0.504,0,1.008,0.504,1.008,1.008v86.683c0,0.504-0.504,1.512-1.512,1.512h-88.195
			c-0.504,0-1.512-0.504-1.512-1.512V2.936C170.11,2.432,170.614,1.425,171.118,1.425z"/>
		
			<path id="path45_00000121264194292773908300000002679122712978957983_" fill="#B2DBAB" stroke="#AAAAAA" stroke-width="0.75" stroke-miterlimit="10" d="
			M160.709,93.337h25.702c0.504,0,1.512,0.504,1.512,1.512v72.572c0,0.504-0.504,1.512-1.512,1.512h-25.702
			c-0.504,0-1.512-0.504-1.512-1.512V94.849C159.197,93.841,160.205,93.337,160.709,93.337z"/>
		
			<path id="path46_00000152976222945430742350000011155882762268502439_" fill="#B2DBAB" stroke="#AAAAAA" stroke-width="0.75" stroke-miterlimit="10" d="
			M160.709,170.954h25.702c0.504,0,1.512,0.504,1.512,1.512v18.647c0,0.504-0.504,1.512-1.512,1.512h-25.702
			c-0.504,0-1.512-0.504-1.512-1.512v-18.647C159.197,171.458,160.205,170.954,160.709,170.954z"/>
		
			<path id="path47_00000137819798446771867780000013527498617211745160_" fill="#B2DBAB" stroke="#AAAAAA" stroke-width="0.75" stroke-miterlimit="10" d="
			M191.482,93.466h68.036c0.504,0,1.512,0.504,1.512,1.512v85.171c0,0.504-0.504,1.512-1.512,1.512h-68.036
			c-0.504,0-1.512-0.504-1.512-1.512V94.978C189.97,93.97,190.474,93.466,191.482,93.466z"/>
		
			<path id="path48_00000080173456520156912850000004465359825839961785_" fill="#B2DBAB" stroke="#AAAAAA" stroke-width="0.75" stroke-miterlimit="10" d="
			M190.963,183.172h17.135c0.504,0,1.512,0.504,1.512,1.512v6.552c0,0.504-0.504,1.512-1.512,1.512h-17.135
			c-0.504,0-1.512-0.504-1.512-1.512v-6.552C189.451,184.18,189.955,183.172,190.963,183.172z"/>
		
			<path id="path50_00000076569050381286424730000005725316007531649420_" fill="#B2DBAB" stroke="#AAAAAA" stroke-width="0.75" stroke-miterlimit="10" d="
			M234.711,183.172h20.663c0.504,0,1.512,0.504,1.512,1.512v6.552c0,0.504-0.504,1.512-1.512,1.512h-20.663
			c-0.504,0-1.512-0.504-1.512-1.512v-6.552C233.703,184.18,234.207,183.172,234.711,183.172z"/>
		
			<polygon id="path52_00000172414655798878174470000016205701156115695027_" fill="#B2DBAB" stroke="#AAAAAA" stroke-width="0.75" stroke-miterlimit="10" points="
			258.191,193.36 261.719,193.36 261.719,193.36 		"/>
		
			<path id="path59_00000043418908657525533090000013966768923340312477_" fill="#B2DBAB" stroke="#AAAAAA" stroke-width="0.75" stroke-miterlimit="10" d="
			M427.638,137.851h79.123c0.504,0,1.008,0.504,1.008,1.008v51.405c0,0.504-0.504,1.008-1.008,1.008h-79.123
			c-0.504,0-1.008-0.504-1.008-1.008v-51.405C426.63,138.355,427.134,137.851,427.638,137.851z"/>
		
			<rect id="path61_00000073721645259760571810000011034387989159176835_" x="509.626" y="112.647" fill="#B2DBAB" stroke="#AAAAAA" stroke-width="0.75" stroke-miterlimit="10" width="0" height="2.52"/>
		
			<path id="path60_00000151520180556748736070000005141411821820758690_" fill="#B2DBAB" stroke="#AAAAAA" stroke-width="0.75" stroke-miterlimit="10" d="
			M268.472,1.111h150.687c0.504,0,1.008,0.504,1.008,1.008V108.96c0,0.504-0.504,1.008-1.008,1.008H268.472
			c-0.504,0-1.008-0.504-1.008-1.008V2.119C267.464,1.615,267.968,1.111,268.472,1.111z"/>
		
			<path id="path62_00000176740957971592046320000009599615440898688142_" fill="#B2DBAB" stroke="#AAAAAA" stroke-width="0.75" stroke-miterlimit="10" d="
			M267.937,112.647h51.405c0.504,0,1.008,0.504,1.008,1.008v0.504c0,0.504-0.504,1.008-1.008,1.008h-51.405
			c-0.504,0-1.008-0.504-1.008-1.008v-0.504C266.929,112.647,267.433,112.647,267.937,112.647z"/>
		
			<path id="path63_00000104663722597308588050000002950465835013230725_" fill="#B2DBAB" stroke="#AAAAAA" stroke-width="0.75" stroke-miterlimit="10" d="
			M323.049,112.647h9.575c0.504,0,1.008,0.504,1.008,1.008v0.504c0,0.504-0.504,1.008-1.008,1.008h-9.575
			c-0.504,0-1.008-0.504-1.008-1.008v-0.504C322.041,112.647,322.545,112.647,323.049,112.647z"/>
		
			<path id="path64_00000176021610366313262350000009023275450243376038_" fill="#B2DBAB" stroke="#AAAAAA" stroke-width="0.75" stroke-miterlimit="10" d="
			M267.047,116.978h65.012c0.504,0,1.008,0.504,1.008,1.008v72.068c0,0.504-0.504,1.008-1.008,1.008h-65.012
			c-0.504,0-1.008-0.504-1.008-1.008v-72.068C266.039,117.482,266.543,116.978,267.047,116.978z"/>
		
			<path id="path65_00000044864855091489099350000001019184314106966194_" fill="#B2DBAB" stroke="#AAAAAA" stroke-width="0.75" stroke-miterlimit="10" d="
			M336.584,113.373h25.702c0.504,0,1.008,0.504,1.008,1.008v71.564c0,0.504-0.504,1.008-1.008,1.008h-25.702
			c-0.504,0-1.008-0.504-1.008-1.008v-71.564C335.577,113.373,336.081,113.373,336.584,113.373z"/>
		
			<path id="path66_00000180334338874333289810000000391961762433672117_" fill="#B2DBAB" stroke="#AAAAAA" stroke-width="0.75" stroke-miterlimit="10" d="
			M336.584,188.767h25.702c0.504,0,1.008,0.504,1.008,1.008v1.512c0,0.504-0.504,1.008-1.008,1.008h-25.702
			c-0.504,0-1.008-0.504-1.008-1.008v-1.512C335.577,189.271,336.081,188.767,336.584,188.767z"/>
		
			<path id="path67_00000050629514281475889980000005077896006082427324_" fill="#B2DBAB" stroke="#AAAAAA" stroke-width="0.75" stroke-miterlimit="10" d="
			M366.18,113.403h53.421c0.504,0,1.008,0.504,1.008,1.008v74.588c0,0.504-0.504,1.008-1.008,1.008H366.18
			c-0.504,0-1.008-0.504-1.008-1.008v-74.588C365.172,113.403,365.676,113.403,366.18,113.403z"/>
		
			<path id="path68_00000013913033388888754970000005117486546585217455_" fill="#B2DBAB" stroke="#AAAAAA" stroke-width="0.75" stroke-miterlimit="10" d="
			M364.606,191.817L364.606,191.817L364.606,191.817z"/>
		
			<polygon id="path69_00000163761958772416113390000009726425519015461263_" fill="#B2DBAB" stroke="#AAAAAA" stroke-width="0.75" stroke-miterlimit="10" points="
			366.699,191.817 420.624,191.817 420.624,191.817 		"/>
		
			<rect id="path0_00000007423539261140137960000002056097668362993068_" x="1.285" y="196.646" fill="#B2DBAB" stroke="#AAAAAA" stroke-width="0.75" stroke-miterlimit="10" width="0" height="70.052"/>
		
			<path id="path1_00000039812592903658148500000007702035568774560444_" fill="#B2DBAB" stroke="#AAAAAA" stroke-width="0.75" stroke-miterlimit="10" d="
			M4.235,196.646h87.691c0.504,0,0.504,0.504,0.504,0.504v68.54c0,0.504-0.504,1.008-1.008,1.008H4.235
			c-0.504,0-0.504-0.504-0.504-0.504V197.15C3.227,197.15,3.731,196.646,4.235,196.646z"/>
		
			<path id="path2_00000162333539222060446650000018293017269042508195_" fill="#B2DBAB" stroke="#AAAAAA" stroke-width="0.75" stroke-miterlimit="10" d="
			M94.88,195.982L94.88,195.982c0.504,0,0.504,0.504,0.504,0.504v4.032c0,0.504-0.504,0.504-0.504,0.504l0,0
			c-0.504,0-0.504-0.504-0.504-0.504v-4.032C94.376,196.486,94.88,195.982,94.88,195.982z"/>
		
			<rect id="path3_00000056388610065755900710000006908886702829470359_" x="94.381" y="202.621" fill="#B2DBAB" stroke="#AAAAAA" stroke-width="0.75" stroke-miterlimit="10" width="1.512" height="0.504"/>
		
			<path id="path4_00000000206355496486484990000008778977396456997818_" fill="#B2DBAB" stroke="#AAAAAA" stroke-width="0.75" stroke-miterlimit="10" d="
			M94.88,205.301L94.88,205.301c0.504,0,0.504,0.504,0.504,0.504v60.476c0,0.504-0.504,0.504-0.504,0.504l0,0
			c-0.504,0-0.504-0.504-0.504-0.504v-60.476C94.376,205.301,94.88,205.301,94.88,205.301z"/>
		
			<path id="path5_00000165949934261507201420000015040291964997713299_" fill="#B2DBAB" stroke="#AAAAAA" stroke-width="0.75" stroke-miterlimit="10" d="
			M2.73,269.629h91.218c0.504,0,0.504,0.504,0.504,0.504v65.012c0,0.504-0.504,0.504-0.504,0.504H2.73
			c-0.504,0-0.504-0.504-0.504-0.504v-65.012C2.226,269.629,2.226,269.629,2.73,269.629z"/>
		
			<path id="path6_00000080187387900645016720000010083917487026882690_" fill="#B2DBAB" stroke="#AAAAAA" stroke-width="0.75" stroke-miterlimit="10" d="
			M2.129,338.246h32.254c0.504,0,0.504,0.504,0.504,0.504v36.286c0,0.504-0.504,0.504-0.504,0.504H2.129
			c-0.504,0-0.504-0.504-0.504-0.504V338.75C1.625,338.246,1.625,338.246,2.129,338.246z"/>
		
			<path id="path7_00000171688761915008153870000012657919078232779963_" fill="#B2DBAB" stroke="#AAAAAA" stroke-width="0.75" stroke-miterlimit="10" d="
			M37.545,338.246h25.702c0.504,0,0.504,0.504,0.504,0.504v36.286c0,0.504-0.504,0.504-0.504,0.504H37.545
			c-0.504,0-0.504-0.504-0.504-0.504V338.75C37.041,338.246,37.041,338.246,37.545,338.246z"/>
		
			<path id="path10_00000106123650656840500630000001232796661499089794_" fill="#B2DBAB" stroke="#AAAAAA" stroke-width="0.75" stroke-miterlimit="10" d="
			M92.334,338.009h2.52c0.504,0,0.504,0.504,0.504,0.504v13.103c0,0.504-0.504,0.504-0.504,0.504h-2.52
			c-0.504,0-0.504-0.504-0.504-0.504v-13.103C91.83,338.009,91.83,338.009,92.334,338.009z"/>
		
			<path id="path12_00000011027099808991335230000008401243685020019594_" fill="#B2DBAB" stroke="#AAAAAA" stroke-width="0.75" stroke-miterlimit="10" d="
			M78.588,353.874h16.127c0.504,0,0.504,0.504,0.504,0.504v5.544c0,0.504-0.504,0.504-0.504,0.504H78.588
			c-0.504,0-0.504-0.504-0.504-0.504v-5.544C78.084,353.874,78.588,353.874,78.588,353.874z"/>
		
			<path id="path13_00000087383260412758032320000002393156975394359213_" fill="#B2DBAB" stroke="#AAAAAA" stroke-width="0.75" stroke-miterlimit="10" d="
			M78.495,362.169h7.056c0.504,0,0.504,0.504,0.504,0.504v12.095c0,0.504-0.504,0.504-0.504,0.504h-7.056
			c-0.504,0-0.504-0.504-0.504-0.504v-12.095L78.495,362.169z"/>
		
			<polygon id="path15_00000145773995777464997350000001200688785970255250_" fill="#B2DBAB" stroke="#AAAAAA" stroke-width="0.75" stroke-miterlimit="10" points="
			87.762,375.92 95.826,375.92 95.826,375.92 		"/>
		
			<rect id="path17_00000111187706098795613560000010618727443514233006_" x="164.607" y="298.787" fill="#B2DBAB" stroke="#AAAAAA" stroke-width="0.75" stroke-miterlimit="10" width="4.536" height="0.504"/>
		
			<path id="path18_00000160155046249223398860000008032563171751094194_" fill="#B2DBAB" stroke="#AAAAAA" stroke-width="0.75" stroke-miterlimit="10" d="
			M165.59,300.885L165.59,300.885c0.504,0,1.512,0.504,1.512,1.512v1.512c0,0.504-0.504,1.512-1.512,1.512l0,0
			c-0.504,0-1.512-0.504-1.512-1.512v-1.512C164.582,301.389,165.086,300.885,165.59,300.885z"/>
		
			<rect id="path19_00000050625701866851800010000008768331887081873818_" x="168.166" y="300.88" fill="#B2DBAB" stroke="#AAAAAA" stroke-width="0.75" stroke-miterlimit="10" width="0.504" height="4.032"/>
		
			<rect id="path21_00000141430016988723943390000018216947332614221758_" x="169.704" y="306.676" fill="#B2DBAB" stroke="#AAAAAA" stroke-width="0.75" stroke-miterlimit="10" width="0" height="68.036"/>
		
			<path id="path22_00000042713242830626394070000013202485772608874167_" fill="#B2DBAB" stroke="#AAAAAA" stroke-width="0.75" stroke-miterlimit="10" d="
			M171.972,299.553h20.663c0.504,0,1.512,0.504,1.512,1.512v72.572c0,0.504-0.504,1.512-1.512,1.512h-20.663
			c-0.504,0-1.512-0.504-1.512-1.512v-72.572C170.46,300.057,170.964,299.553,171.972,299.553z"/>
		
			<path id="path23_00000010302709089718399020000014651312537091602819_" fill="#B2DBAB" stroke="#AAAAAA" stroke-width="0.75" stroke-miterlimit="10" d="
			M198.085,196.445h60.98c0.504,0,1.008,0.504,1.008,1.008v47.877c0,0.504-0.504,1.512-1.512,1.512h-60.98
			c-0.504,0-1.512-0.504-1.512-1.512v-47.877C196.573,196.949,197.077,196.445,198.085,196.445z"/>
		
			<path id="path24_00000168831149100891749000000011279734032325774506_" fill="#B2DBAB" stroke="#AAAAAA" stroke-width="0.75" stroke-miterlimit="10" d="
			M197.607,248.539h13.103c0.504,0,1.512,0.504,1.512,1.512v12.095c0,0.504-0.504,1.512-1.512,1.512h-13.103
			c-0.504,0-1.512-0.504-1.512-1.512v-12.095C196.095,249.043,196.599,248.539,197.607,248.539z"/>
		
			<path id="path25_00000075157971166412454780000014008880812140916904_" fill="#B2DBAB" stroke="#AAAAAA" stroke-width="0.75" stroke-miterlimit="10" d="
			M197.607,264.923h13.103c0.504,0,1.512,0.504,1.512,1.512v5.04c0,0.504-0.504,1.512-1.512,1.512h-13.103
			c-0.504,0-1.512-0.504-1.512-1.512v-5.04C196.095,265.427,196.599,264.923,197.607,264.923z"/>
		
			<path id="path26_00000092456815900949006260000016655755204587287707_" fill="#B2DBAB" stroke="#AAAAAA" stroke-width="0.75" stroke-miterlimit="10" d="
			M214.711,248.632h26.206c0.504,0,1.512,0.504,1.512,1.512v21.167c0,0.504-0.504,1.512-1.512,1.512h-26.206
			c-0.504,0-1.512-0.504-1.512-1.512v-21.167C213.199,249.136,213.703,248.632,214.711,248.632z"/>
		
			<path id="path27_00000022557597251016974830000011417665461212712110_" fill="#B2DBAB" stroke="#AAAAAA" stroke-width="0.75" stroke-miterlimit="10" d="
			M245.443,248.632h14.111c0.504,0,1.512,0.504,1.512,1.512v21.167c0,0.504-0.504,1.512-1.512,1.512h-14.111
			c-0.504,0-1.512-0.504-1.512-1.512v-21.167C243.931,249.136,244.435,248.632,245.443,248.632z"/>
		
			<path id="path28_00000116941513892209697260000001237819440162463152_" fill="#B2DBAB" stroke="#AAAAAA" stroke-width="0.75" stroke-miterlimit="10" d="
			M101.714,196.954h90.211c0.504,0,1.512,0.504,1.512,1.512v97.266c0,0.504-0.504,1.512-1.512,1.512h-90.211
			c-0.504,0-1.512-0.504-1.512-1.512v-97.77C100.202,197.458,100.706,196.954,101.714,196.954z"/>
		
			<path id="path30_00000103241683686582741160000008253010987307482255_" fill="#B2DBAB" stroke="#AAAAAA" stroke-width="0.75" stroke-miterlimit="10" d="
			M196.774,298.16h32.254c0.504,0,1.512,0.504,1.512,1.512v36.79c0,0.504-0.504,1.512-1.512,1.512h-32.254
			c-0.504,0-1.512-0.504-1.512-1.512v-36.79C195.766,298.664,196.27,298.16,196.774,298.16z"/>
		
			<path id="path31_00000118389125509341791260000002923455429601689753_" fill="#B2DBAB" stroke="#AAAAAA" stroke-width="0.75" stroke-miterlimit="10" d="
			M233.733,274.741h25.702c0.504,0,1.512,0.504,1.512,1.512v59.972c0,0.504-0.504,1.512-1.512,1.512h-25.702
			c-0.504,0-1.512-0.504-1.512-1.512v-59.972C232.222,275.245,232.726,274.741,233.733,274.741z"/>
		
			<path id="path32_00000030470755452238853670000008025670822290882192_" fill="#B2DBAB" stroke="#AAAAAA" stroke-width="0.75" stroke-miterlimit="10" d="
			M197.062,339.264h60.476c0.504,0,1.512,0.504,1.512,1.512v33.262c0,0.504-0.504,1.512-1.512,1.512h-60.476
			c-0.504,0-1.512-0.504-1.512-1.512v-33.262C196.054,339.768,196.558,339.264,197.062,339.264z"/>
		
			<rect id="path33_00000037661437036707156880000018356678227552707261_" x="260.727" y="339.058" fill="#B2DBAB" stroke="#AAAAAA" stroke-width="0.75" stroke-miterlimit="10" width="0" height="16.127"/>
		
			<rect id="path34_00000081644572411454177550000010322413487114138516_" x="260.727" y="357.083" fill="#B2DBAB" stroke="#AAAAAA" stroke-width="0.75" stroke-miterlimit="10" width="0" height="18.647"/>
		
			<rect id="path72_00000074407770681769139450000007682076899959036829_" x="487.215" y="226.293" fill="#B2DBAB" stroke="#AAAAAA" stroke-width="0.75" stroke-miterlimit="10" width="21.167" height="2.016"/>
		
			<polygon id="path74_00000075872885071544602810000011260663451456615835_" fill="#B2DBAB" stroke="#AAAAAA" stroke-width="0.75" stroke-miterlimit="10" points="
			481.105,375.92 508.32,375.92 508.32,375.92 		"/>
		
			<path id="path75_00000147220844728823536430000006843141760279503007_" fill="#B2DBAB" stroke="#AAAAAA" stroke-width="0.75" stroke-miterlimit="10" d="
			M268.168,197.731h175.885V374.12H267.16V198.739C267.16,198.235,267.664,197.731,268.168,197.731z"/>
		
			<rect id="path76_00000080906313743676051040000002480232032065458831_" x="447.725" y="195.813" fill="#B2DBAB" stroke="#AAAAAA" stroke-width="0.75" stroke-miterlimit="10" width="31.75" height="38.806"/>
		
			<rect id="path78_00000037676097755963597590000001327458377753879732_" x="447.725" y="240.249" fill="#B2DBAB" stroke="#AAAAAA" stroke-width="0.75" stroke-miterlimit="10" width="31.75" height="9.071"/>
		
			<rect id="path79_00000139252660136259270250000017112573162277831808_" x="447.725" y="250.756" fill="#B2DBAB" stroke="#AAAAAA" stroke-width="0.75" stroke-miterlimit="10" width="31.75" height="30.742"/>
		
			<rect id="path81_00000102519557396635675050000002210488708138907018_" x="447.725" y="286.548" fill="#B2DBAB" stroke="#AAAAAA" stroke-width="0.75" stroke-miterlimit="10" width="31.75" height="60.98"/>
		
			<rect id="path82_00000122699557332756988730000014334176020990430893_" x="447.535" y="349.817" fill="#B2DBAB" stroke="#AAAAAA" stroke-width="0.75" stroke-miterlimit="10" width="13.103" height="12.095"/>
		
			<polygon id="path83_00000073682746902453772640000002209888802973093307_" fill="#B2DBAB" stroke="#AAAAAA" stroke-width="0.75" stroke-miterlimit="10" points="
			447.473,363.578 454.529,363.578 454.529,363.578 		"/>
		
			<rect id="path84_00000155869262279787007000000003346143031952287391_" x="447.473" y="365.224" fill="#B2DBAB" stroke="#AAAAAA" stroke-width="0.75" stroke-miterlimit="10" width="7.056" height="10.079"/>
		
			<rect id="path86_00000093166663166673814740000018103346099217352124_" x="456.19" y="371.333" fill="#B2DBAB" stroke="#AAAAAA" stroke-width="0.75" stroke-miterlimit="10" width="4.536" height="4.032"/>
		
			<rect id="path87_00000140724835949145466020000005943470643891989123_" x="461.975" y="349.914" fill="#B2DBAB" stroke="#AAAAAA" stroke-width="0.75" stroke-miterlimit="10" width="17.135" height="21.671"/>
		
			<polygon id="path35_00000050655592836607637640000008763184332519289782_" fill="#B2DBAB" stroke="#AAAAAA" stroke-width="0.75" stroke-miterlimit="10" points="
			712.02,156.395 718.925,156.395 718.925,156.395 		"/>
		
			<polygon id="path36_00000137132095313824282610000005202627189389674882_" fill="#B2DBAB" stroke="#AAAAAA" stroke-width="0.75" stroke-miterlimit="10" points="
			720.026,156.395 738.254,156.395 738.254,156.395 		"/>
		
			<path id="path37_00000053537498237126470360000003317240002605815977_" fill="#B2DBAB" stroke="#AAAAAA" stroke-width="0.75" stroke-miterlimit="10" d="
			M712.767,103.109h24.855c0.276,0,0.828,0.276,0.828,0.829v51.091c0,0.276-0.276,0.829-0.828,0.829h-24.855
			c-0.276,0-0.828-0.276-0.828-0.829v-51.091C712.215,103.385,712.491,103.109,712.767,103.109z"/>
		
			<polygon id="path39_00000031888768159682787350000009216752855545123727_" fill="#B2DBAB" stroke="#AAAAAA" stroke-width="0.75" stroke-miterlimit="10" points="
			789.249,156.395 797.534,156.395 797.534,156.395 		"/>
		
			<path id="path41_00000025438707019092416050000016386400454020404637_" fill="#B2DBAB" stroke="#AAAAAA" stroke-width="0.75" stroke-miterlimit="10" d="
			M713.638,51.789h82.575c0.276,0,0.829,0.276,0.829,0.829v48.054c0,0.276-0.276,0.829-0.829,0.829h-82.575
			c-0.276,0-0.828-0.276-0.828-0.829V52.618C712.809,52.341,713.086,51.789,713.638,51.789z"/>
		
			<path id="path42_00000029007520254913250440000016745354809415865492_" fill="#B2DBAB" stroke="#AAAAAA" stroke-width="0.75" stroke-miterlimit="10" d="
			M799.059,51.299h3.038c0.276,0,0.828,0.276,0.828,0.829l0,0c0,0.276-0.276,0.829-0.828,0.829h-3.038
			c-0.276,0-0.829-0.276-0.829-0.829l0,0C798.23,51.851,798.783,51.299,799.059,51.299z"/>
		
			<path id="path43_00000057135451559502253740000011910260971876288402_" fill="#B2DBAB" stroke="#AAAAAA" stroke-width="0.75" stroke-miterlimit="10" d="
			M799.059,54.013h3.038c0.276,0,0.828,0.276,0.828,0.829v45.016c0,0.276-0.276,0.829-0.828,0.829h-3.038
			c-0.276,0-0.829-0.276-0.829-0.829V54.841C798.23,54.289,798.783,54.013,799.059,54.013z"/>
		
			<path id="path44_00000052088943331388976020000016262023626519883673_" fill="#B2DBAB" stroke="#AAAAAA" stroke-width="0.75" stroke-miterlimit="10" d="
			M804.875,51.781h48.606c0.276,0,0.552,0.276,0.552,0.552v47.501c0,0.276-0.276,0.829-0.828,0.829h-48.33
			c-0.276,0-0.828-0.276-0.828-0.829V52.609C804.323,52.333,804.599,51.781,804.875,51.781z"/>
		
			<path id="path45_00000003810773218713710420000011984766809345359793_" fill="#B2DBAB" stroke="#AAAAAA" stroke-width="0.75" stroke-miterlimit="10" d="
			M799.172,102.148h14.085c0.276,0,0.829,0.276,0.829,0.829v39.768c0,0.276-0.276,0.829-0.829,0.829h-14.085
			c-0.276,0-0.829-0.276-0.829-0.829v-39.768C798.343,102.424,798.895,102.148,799.172,102.148z"/>
		
			<path id="path46_00000054259211008223307090000006919197954459996822_" fill="#B2DBAB" stroke="#AAAAAA" stroke-width="0.75" stroke-miterlimit="10" d="
			M799.172,144.681h14.085c0.276,0,0.829,0.276,0.829,0.829v10.218c0,0.276-0.276,0.829-0.829,0.829h-14.085
			c-0.276,0-0.829-0.276-0.829-0.829v-10.218C798.343,144.957,798.895,144.681,799.172,144.681z"/>
		
			<path id="path47_00000055672637332787196200000011089699875900045727_" fill="#B2DBAB" stroke="#AAAAAA" stroke-width="0.75" stroke-miterlimit="10" d="
			M816.035,102.218h37.283c0.276,0,0.829,0.276,0.829,0.829v46.673c0,0.276-0.276,0.829-0.829,0.829h-37.283
			c-0.276,0-0.828-0.276-0.828-0.829v-46.673C815.206,102.494,815.482,102.218,816.035,102.218z"/>
		
			<path id="path48_00000070116946924629733330000001944193534702048914_" fill="#B2DBAB" stroke="#AAAAAA" stroke-width="0.75" stroke-miterlimit="10" d="
			M815.75,151.376h9.39c0.276,0,0.828,0.276,0.828,0.829v3.59c0,0.276-0.276,0.829-0.828,0.829h-9.39
			c-0.276,0-0.829-0.276-0.829-0.829v-3.59C814.922,151.929,815.198,151.376,815.75,151.376z"/>
		
			<path id="path50_00000001650428484633747310000004135004164085585563_" fill="#B2DBAB" stroke="#AAAAAA" stroke-width="0.75" stroke-miterlimit="10" d="
			M839.723,151.376h11.323c0.276,0,0.828,0.276,0.828,0.829v3.59c0,0.276-0.276,0.829-0.828,0.829h-11.323
			c-0.276,0-0.828-0.276-0.828-0.829v-3.59C839.171,151.929,839.447,151.376,839.723,151.376z"/>
		
			<polygon id="path52_00000048462075657803482880000015260998364780918152_" fill="#B2DBAB" stroke="#AAAAAA" stroke-width="0.75" stroke-miterlimit="10" points="
			852.591,156.959 854.524,156.959 854.524,156.959 		"/>
		
			<path id="path59_00000127021900890934505520000008048850551486934156_" fill="#B2DBAB" stroke="#AAAAAA" stroke-width="0.75" stroke-miterlimit="10" d="
			M945.446,126.541h43.359c0.276,0,0.552,0.276,0.552,0.552v28.169c0,0.276-0.276,0.552-0.552,0.552h-43.359
			c-0.276,0-0.552-0.276-0.552-0.552v-28.169C944.893,126.817,945.169,126.541,945.446,126.541z"/>
		
			<rect id="path61_00000063592454955605091400000002849774767072716982_" x="990.374" y="112.73" fill="#B2DBAB" stroke="#AAAAAA" stroke-width="0.75" stroke-miterlimit="10" width="0" height="1.381"/>
		
			<path id="path60_00000062160307251114471040000006690183664642742403_" fill="#B2DBAB" stroke="#AAAAAA" stroke-width="0.75" stroke-miterlimit="10" d="
			M858.224,51.609h82.575c0.276,0,0.552,0.276,0.552,0.552v58.548c0,0.276-0.276,0.552-0.552,0.552h-82.575
			c-0.276,0-0.552-0.276-0.552-0.552V52.161C857.672,51.885,857.948,51.609,858.224,51.609z"/>
		
			<path id="path62_00000142889514134936866460000018380717868899103114_" fill="#B2DBAB" stroke="#AAAAAA" stroke-width="0.75" stroke-miterlimit="10" d="
			M857.931,112.73H886.1c0.276,0,0.552,0.276,0.552,0.552v0.276c0,0.276-0.276,0.552-0.552,0.552h-28.169
			c-0.276,0-0.552-0.276-0.552-0.552v-0.276C857.379,112.73,857.655,112.73,857.931,112.73z"/>
		
			<path id="path63_00000031195890025535175300000005605641028275223967_" fill="#B2DBAB" stroke="#AAAAAA" stroke-width="0.75" stroke-miterlimit="10" d="
			M888.132,112.73h5.247c0.276,0,0.552,0.276,0.552,0.552v0.276c0,0.276-0.276,0.552-0.552,0.552h-5.247
			c-0.276,0-0.552-0.276-0.552-0.552v-0.276C887.58,112.73,887.856,112.73,888.132,112.73z"/>
		
			<path id="path64_00000132089139234720393170000001620918808902612633_" fill="#B2DBAB" stroke="#AAAAAA" stroke-width="0.75" stroke-miterlimit="10" d="
			M857.443,115.102h35.626c0.276,0,0.552,0.276,0.552,0.552v39.492c0,0.276-0.276,0.552-0.552,0.552h-35.626
			c-0.276,0-0.552-0.276-0.552-0.552v-39.492C856.891,115.379,857.167,115.102,857.443,115.102z"/>
		
			<path id="path65_00000026875752784857807270000017018549484263174317_" fill="#B2DBAB" stroke="#AAAAAA" stroke-width="0.75" stroke-miterlimit="10" d="
			M895.549,113.127h14.085c0.276,0,0.552,0.276,0.552,0.552v39.216c0,0.276-0.276,0.552-0.552,0.552h-14.085
			c-0.276,0-0.552-0.276-0.552-0.552v-39.216C894.997,113.127,895.273,113.127,895.549,113.127z"/>
		
			<path id="path66_00000168117366561339993190000014164961680859937450_" fill="#B2DBAB" stroke="#AAAAAA" stroke-width="0.75" stroke-miterlimit="10" d="
			M895.549,154.442h14.085c0.276,0,0.552,0.276,0.552,0.552v0.829c0,0.276-0.276,0.552-0.552,0.552h-14.085
			c-0.276,0-0.552-0.276-0.552-0.552v-0.829C894.997,154.719,895.273,154.442,895.549,154.442z"/>
		
			<path id="path67_00000155838321782197196770000011031230220091041965_" fill="#B2DBAB" stroke="#AAAAAA" stroke-width="0.75" stroke-miterlimit="10" d="
			M911.767,113.144h29.274c0.276,0,0.552,0.276,0.552,0.552v40.873c0,0.276-0.276,0.552-0.552,0.552h-29.274
			c-0.276,0-0.552-0.276-0.552-0.552v-40.873C911.215,113.144,911.491,113.144,911.767,113.144z"/>
		
			<path id="path68_00000148651174685101298580000005356591852093081269_" fill="#B2DBAB" stroke="#AAAAAA" stroke-width="0.75" stroke-miterlimit="10" d="
			M910.905,156.114L910.905,156.114L910.905,156.114z"/>
		
			<polygon id="path69_00000056424486366241470240000003301449646619884441_" fill="#B2DBAB" stroke="#AAAAAA" stroke-width="0.75" stroke-miterlimit="10" points="
			912.052,156.114 941.602,156.114 941.602,156.114 		"/>
		
			<rect id="path0_00000158710252014622772630000007731684438627528084_" x="711.809" y="158.76" fill="#B2DBAB" stroke="#AAAAAA" stroke-width="0.75" stroke-miterlimit="10" width="0" height="38.388"/>
		
			<path id="path1_00000005249249928584952170000013789917424167791240_" fill="#B2DBAB" stroke="#AAAAAA" stroke-width="0.75" stroke-miterlimit="10" d="
			M713.425,158.76h48.054c0.276,0,0.276,0.276,0.276,0.276v37.559c0,0.276-0.276,0.552-0.552,0.552h-47.777
			c-0.276,0-0.276-0.276-0.276-0.276v-37.835C712.873,159.036,713.149,158.76,713.425,158.76z"/>
		
			<path id="path2_00000106852133554148985830000003770939626644839330_" fill="#B2DBAB" stroke="#AAAAAA" stroke-width="0.75" stroke-miterlimit="10" d="
			M763.098,158.396L763.098,158.396c0.276,0,0.276,0.276,0.276,0.276v2.209c0,0.276-0.276,0.276-0.276,0.276l0,0
			c-0.276,0-0.276-0.276-0.276-0.276v-2.209C762.821,158.672,763.098,158.396,763.098,158.396z"/>
		
			<rect id="path3_00000151536030413164518900000005324972483704248509_" x="762.824" y="162.034" fill="#B2DBAB" stroke="#AAAAAA" stroke-width="0.75" stroke-miterlimit="10" width="0.829" height="0.276"/>
		
			<path id="path4_00000163061818934409725420000014734389653763972746_" fill="#B2DBAB" stroke="#AAAAAA" stroke-width="0.75" stroke-miterlimit="10" d="
			M763.098,163.502L763.098,163.502c0.276,0,0.276,0.276,0.276,0.276v33.14c0,0.276-0.276,0.276-0.276,0.276l0,0
			c-0.276,0-0.276-0.276-0.276-0.276v-33.14C762.821,163.502,763.098,163.502,763.098,163.502z"/>
		
			<path id="path5_00000033337139608967404980000005365643284711803572_" fill="#B2DBAB" stroke="#AAAAAA" stroke-width="0.75" stroke-miterlimit="10" d="
			M712.601,198.754h49.987c0.276,0,0.276,0.276,0.276,0.276v35.626c0,0.276-0.276,0.276-0.276,0.276h-49.987
			c-0.276,0-0.276-0.276-0.276-0.276V199.03C712.325,198.754,712.325,198.754,712.601,198.754z"/>
		
			<path id="path6_00000157296954651644318230000018307761509662221211_" fill="#B2DBAB" stroke="#AAAAAA" stroke-width="0.75" stroke-miterlimit="10" d="
			M712.271,236.355h17.675c0.276,0,0.276,0.276,0.276,0.276v19.884c0,0.276-0.276,0.276-0.276,0.276h-17.675
			c-0.276,0-0.276-0.276-0.276-0.276v-19.884C711.995,236.355,711.995,236.355,712.271,236.355z"/>
		
			<path id="path7_00000049900940474743403150000001548844389592458429_" fill="#B2DBAB" stroke="#AAAAAA" stroke-width="0.75" stroke-miterlimit="10" d="
			M731.679,236.355h14.085c0.276,0,0.276,0.276,0.276,0.276v19.884c0,0.276-0.276,0.276-0.276,0.276h-14.085
			c-0.276,0-0.276-0.276-0.276-0.276v-19.884C731.403,236.355,731.403,236.355,731.679,236.355z"/>
		
			<path id="path10_00000176009412455389299090000012774379123718138789_" fill="#B2DBAB" stroke="#AAAAAA" stroke-width="0.75" stroke-miterlimit="10" d="
			M761.703,236.225h1.381c0.276,0,0.276,0.276,0.276,0.276v7.18c0,0.276-0.276,0.276-0.276,0.276h-1.381
			c-0.276,0-0.276-0.276-0.276-0.276v-7.18C761.427,236.225,761.427,236.225,761.703,236.225z"/>
		
			<path id="path12_00000129171245899716641150000012655157907439063730_" fill="#B2DBAB" stroke="#AAAAAA" stroke-width="0.75" stroke-miterlimit="10" d="
			M754.17,244.919h8.837c0.276,0,0.276,0.276,0.276,0.276v3.038c0,0.276-0.276,0.276-0.276,0.276h-8.837
			c-0.276,0-0.276-0.276-0.276-0.276v-3.038C753.894,244.919,754.17,244.919,754.17,244.919z"/>
		
			<path id="path13_00000098904108439446034500000008081341000953649550_" fill="#B2DBAB" stroke="#AAAAAA" stroke-width="0.75" stroke-miterlimit="10" d="
			M754.119,249.464h3.866c0.276,0,0.276,0.276,0.276,0.276v6.628c0,0.276-0.276,0.276-0.276,0.276h-3.866
			c-0.276,0-0.276-0.276-0.276-0.276v-6.628L754.119,249.464z"/>
		
			<polygon id="path15_00000055670623230085944420000004058549209756079534_" fill="#B2DBAB" stroke="#AAAAAA" stroke-width="0.75" stroke-miterlimit="10" points="
			759.197,257 763.616,257 763.616,257 		"/>
		
			<rect id="path17_00000025422144474685708830000017240146332924885435_" x="801.308" y="214.732" fill="#B2DBAB" stroke="#AAAAAA" stroke-width="0.75" stroke-miterlimit="10" width="2.486" height="0.276"/>
		
			<path id="path18_00000145019737928630328340000010634635977050090927_" fill="#B2DBAB" stroke="#AAAAAA" stroke-width="0.75" stroke-miterlimit="10" d="
			M801.846,215.882L801.846,215.882c0.276,0,0.828,0.276,0.828,0.829v0.829c0,0.276-0.276,0.829-0.828,0.829l0,0
			c-0.276,0-0.829-0.276-0.829-0.829v-0.829C801.294,216.158,801.57,215.882,801.846,215.882z"/>
		
			<rect id="path19_00000075159144944901784270000005216639621004728229_" x="803.258" y="215.879" fill="#B2DBAB" stroke="#AAAAAA" stroke-width="0.75" stroke-miterlimit="10" width="0.276" height="2.209"/>
		
			<rect id="path21_00000053529903936880077380000017375828126822530239_" x="804.1" y="219.055" fill="#B2DBAB" stroke="#AAAAAA" stroke-width="0.75" stroke-miterlimit="10" width="0" height="37.283"/>
		
			<path id="path22_00000101084497925578398930000001761882693131834783_" fill="#B2DBAB" stroke="#AAAAAA" stroke-width="0.75" stroke-miterlimit="10" d="
			M805.343,215.152h11.323c0.276,0,0.828,0.276,0.828,0.829v39.768c0,0.276-0.276,0.829-0.828,0.829h-11.323
			c-0.276,0-0.828-0.276-0.828-0.829V215.98C804.515,215.428,804.791,215.152,805.343,215.152z"/>
		
			<path id="path23_00000170972224577916381440000012553329808723186586_" fill="#B2DBAB" stroke="#AAAAAA" stroke-width="0.75" stroke-miterlimit="10" d="
			M819.653,158.65h33.417c0.276,0,0.552,0.276,0.552,0.552v26.236c0,0.276-0.276,0.829-0.828,0.829h-33.417
			c-0.276,0-0.829-0.276-0.829-0.829v-26.236C818.825,158.926,819.101,158.65,819.653,158.65z"/>
		
			<path id="path24_00000066504083451791273530000015890300931690852996_" fill="#B2DBAB" stroke="#AAAAAA" stroke-width="0.75" stroke-miterlimit="10" d="
			M819.391,187.197h7.18c0.276,0,0.828,0.276,0.828,0.829v6.628c0,0.276-0.276,0.829-0.828,0.829h-7.18
			c-0.276,0-0.828-0.276-0.828-0.829v-6.628C818.563,187.473,818.839,187.197,819.391,187.197z"/>
		
			<path id="path25_00000012472512987558491340000015007625700835387550_" fill="#B2DBAB" stroke="#AAAAAA" stroke-width="0.75" stroke-miterlimit="10" d="
			M819.391,196.175h7.18c0.276,0,0.828,0.276,0.828,0.829v2.762c0,0.276-0.276,0.829-0.828,0.829h-7.18
			c-0.276,0-0.828-0.276-0.828-0.829v-2.762C818.563,196.451,818.839,196.175,819.391,196.175z"/>
		
			<path id="path26_00000170268241974921906220000008330186626350114214_" fill="#B2DBAB" stroke="#AAAAAA" stroke-width="0.75" stroke-miterlimit="10" d="
			M828.764,187.247h14.361c0.276,0,0.829,0.276,0.829,0.829v11.599c0,0.276-0.276,0.829-0.829,0.829h-14.361
			c-0.276,0-0.829-0.276-0.829-0.829v-11.599C827.935,187.524,828.212,187.247,828.764,187.247z"/>
		
			<path id="path27_00000014627929773584798770000018434480970178713764_" fill="#B2DBAB" stroke="#AAAAAA" stroke-width="0.75" stroke-miterlimit="10" d="
			M845.605,187.247h7.733c0.276,0,0.829,0.276,0.829,0.829v11.599c0,0.276-0.276,0.829-0.829,0.829h-7.733
			c-0.276,0-0.829-0.276-0.829-0.829v-11.599C844.776,187.524,845.052,187.247,845.605,187.247z"/>
		
			<path id="path28_00000016779712567149997260000012938525320761534088_" fill="#B2DBAB" stroke="#AAAAAA" stroke-width="0.75" stroke-miterlimit="10" d="
			M766.843,158.929h49.434c0.276,0,0.828,0.276,0.828,0.829v53.301c0,0.276-0.276,0.829-0.828,0.829h-49.434
			c-0.276,0-0.828-0.276-0.828-0.829v-53.577C766.014,159.205,766.29,158.929,766.843,158.929z"/>
		
			<path id="path30_00000132804990392670429720000001364154934586019518_" fill="#B2DBAB" stroke="#AAAAAA" stroke-width="0.75" stroke-miterlimit="10" d="
			M818.935,214.388h17.675c0.276,0,0.828,0.276,0.828,0.829v20.16c0,0.276-0.276,0.829-0.828,0.829h-17.675
			c-0.276,0-0.829-0.276-0.829-0.829v-20.16C818.382,214.664,818.658,214.388,818.935,214.388z"/>
		
			<path id="path31_00000176029696779981588690000000093079217092762753_" fill="#B2DBAB" stroke="#AAAAAA" stroke-width="0.75" stroke-miterlimit="10" d="
			M839.188,201.555h14.085c0.276,0,0.829,0.276,0.829,0.829v32.864c0,0.276-0.276,0.829-0.829,0.829h-14.085
			c-0.276,0-0.828-0.276-0.828-0.829v-32.864C838.359,201.831,838.636,201.555,839.188,201.555z"/>
		
			<path id="path32_00000037682073311716804270000008714550375279390370_" fill="#B2DBAB" stroke="#AAAAAA" stroke-width="0.75" stroke-miterlimit="10" d="
			M819.092,236.913h33.14c0.276,0,0.828,0.276,0.828,0.829v18.227c0,0.276-0.276,0.829-0.828,0.829h-33.14
			c-0.276,0-0.829-0.276-0.829-0.829v-18.227C818.54,237.189,818.816,236.913,819.092,236.913z"/>
		
			<rect id="path33_00000181056190183674459470000014029983362542849713_" x="853.98" y="236.8" fill="#B2DBAB" stroke="#AAAAAA" stroke-width="0.75" stroke-miterlimit="10" width="0" height="8.837"/>
		
			<rect id="path34_00000158734483435019910620000005792684224840869513_" x="853.98" y="246.677" fill="#B2DBAB" stroke="#AAAAAA" stroke-width="0.75" stroke-miterlimit="10" width="0" height="10.218"/>
		
			<rect id="path72_00000181807949258479342780000001917554444329086867_" x="978.093" y="175.006" fill="#B2DBAB" stroke="#AAAAAA" stroke-width="0.75" stroke-miterlimit="10" width="11.599" height="1.105"/>
		
			<polygon id="path74_00000087406222619326738400000002588583981774004145_" fill="#B2DBAB" stroke="#AAAAAA" stroke-width="0.75" stroke-miterlimit="10" points="
			974.745,257 989.658,257 989.658,257 		"/>
		
			<path id="path75_00000090998001292905469240000012300417955856378028_" fill="#B2DBAB" stroke="#AAAAAA" stroke-width="0.75" stroke-miterlimit="10" d="
			M858.058,159.354h96.383v96.659h-96.936v-96.107C857.505,159.63,857.781,159.354,858.058,159.354z"/>
		
			<rect id="path76_00000168808712163855273720000000514771746794716051_" x="956.453" y="158.303" fill="#B2DBAB" stroke="#AAAAAA" stroke-width="0.75" stroke-miterlimit="10" width="17.399" height="21.265"/>
		
			<rect id="path78_00000070100079345697911540000002506680647596350880_" x="956.453" y="182.654" fill="#B2DBAB" stroke="#AAAAAA" stroke-width="0.75" stroke-miterlimit="10" width="17.399" height="4.971"/>
		
			<rect id="path79_00000071525387718548906100000000549833597739622585_" x="956.453" y="188.411" fill="#B2DBAB" stroke="#AAAAAA" stroke-width="0.75" stroke-miterlimit="10" width="17.399" height="16.846"/>
		
			<rect id="path81_00000086654994871010386260000015962593355114357950_" x="956.453" y="208.025" fill="#B2DBAB" stroke="#AAAAAA" stroke-width="0.75" stroke-miterlimit="10" width="17.399" height="33.417"/>
		
			<rect id="path82_00000044179693927935549700000007815117761680554899_" x="956.349" y="242.695" fill="#B2DBAB" stroke="#AAAAAA" stroke-width="0.75" stroke-miterlimit="10" width="7.18" height="6.628"/>
		
			<polygon id="path83_00000151531934025798585810000006055775932414736020_" fill="#B2DBAB" stroke="#AAAAAA" stroke-width="0.75" stroke-miterlimit="10" points="
			956.315,250.237 960.181,250.237 960.181,250.237 		"/>
		
			<rect id="path84_00000090995957952519900770000000574837286231913916_" x="956.315" y="251.138" fill="#B2DBAB" stroke="#AAAAAA" stroke-width="0.75" stroke-miterlimit="10" width="3.866" height="5.523"/>
		
			<rect id="path86_00000118360958728004949190000002119136935267282825_" x="961.091" y="254.486" fill="#B2DBAB" stroke="#AAAAAA" stroke-width="0.75" stroke-miterlimit="10" width="2.486" height="2.209"/>
		
			<rect id="path87_00000170981309309424289000000013537592054048031367_" x="964.262" y="242.749" fill="#B2DBAB" stroke="#AAAAAA" stroke-width="0.75" stroke-miterlimit="10" width="9.39" height="11.875"/>
	</g>
	<g id="gray_00000045615894822687464530000009877371168046560397_">
		<path fill="#B2DBAB" stroke="#AAAAAA" stroke-width="0.75" stroke-miterlimit="10" d="M-1667.837,177.261V6.993
			c0-1.831-1.831-2.746-2.746-2.746h-155.622c-0.915,0-1.831,0.915-2.746,2.746v170.269c0,1.831,1.831,2.746,2.746,2.746h155.622
			C-1668.752,180.007-1667.837,178.177-1667.837,177.261z"/>
		<path fill="#B2DBAB" stroke="#AAAAAA" stroke-width="0.75" stroke-miterlimit="10" d="M-1661.298,178.158h21.97
			c1.831,0,2.746-1.831,2.746-2.746V6.974c0-1.831-1.831-2.746-2.746-2.746h-21.97c-1.831,0-2.746,0.915-2.746,2.746v168.438
			C-1664.044,177.242-1662.214,178.158-1661.298,178.158z"/>
		<path fill="#B2DBAB" stroke="#AAAAAA" stroke-width="0.75" stroke-miterlimit="10" d="M-1503.995,164.23h-32.955
			c-1.831,0-2.746,1.831-2.746,2.746v11.901c0,1.831,1.831,2.746,2.746,2.746h32.955c1.831,0,2.746-1.831,2.746-2.746v-11.901
			C-1501.248,165.146-1503.079,164.23-1503.995,164.23z"/>
		<path fill="#B2DBAB" stroke="#AAAAAA" stroke-width="0.75" stroke-miterlimit="10" d="M-1450.424,164.212h-0.915
			c-1.831,0-2.746,1.831-2.746,2.746v10.07c0,1.831,1.831,2.746,2.746,2.746h0.915c1.831,0,2.746-1.831,2.746-2.746v-10.07
			C-1447.678,165.127-1449.508,164.212-1450.424,164.212z"/>
		<path fill="#B2DBAB" stroke="#AAAAAA" stroke-width="0.75" stroke-miterlimit="10" d="M-1153.836-131.498h45.771
			c0.915,0,1.831-0.915,1.831-1.831v-32.955c0-0.915-0.915-1.831-1.831-1.831h-45.771c-0.916,0-0.916,0.915-1.831,1.831v32.955
			C-1155.667-132.413-1154.752-131.498-1153.836-131.498z"/>
		<path fill="#B2DBAB" stroke="#AAAAAA" stroke-width="0.75" stroke-miterlimit="10" d="M-1153.827-128.602
			c-0.916,0-0.916,0.915-1.831,1.831v60.418c0,0.915,0.915,1.831,1.831,1.831h46.687c0.915,0,1.831-0.915,1.831-1.831v-60.418
			c0-0.915-0.915-1.831-1.831-1.831H-1153.827z"/>
		<path fill="#B2DBAB" stroke="#AAAAAA" stroke-width="0.75" stroke-miterlimit="10" d="M-1099.135-63.99h97.035
			c0.916,0,1.831-0.915,1.831-1.831v-99.781c0-0.915-0.915-1.831-1.831-1.831h-97.035c-0.916,0-1.831,0.915-1.831,1.831v99.781
			C-1100.966-64.906-1100.051-63.99-1099.135-63.99z"/>
		<path fill="#B2DBAB" stroke="#AAAAAA" stroke-width="0.75" stroke-miterlimit="10" d="M-1003.567-59.665h-149.214
			c-0.916,0-0.916,0.915-1.831,1.831V75.817c0,0.915,0.915,1.831,1.831,1.831h149.214c0.915,0,1.831-0.915,1.831-1.831V-57.834
			C-1001.736-58.75-1002.652-59.665-1003.567-59.665z"/>
		<path fill="#B2DBAB" stroke="#AAAAAA" stroke-width="0.75" stroke-miterlimit="10" d="M-1154.304,81.908
			c-0.915,0-0.915,0.915-1.831,1.831v93.373c0,0.915,0.915,1.831,1.831,1.831c0.916,0,1.831-0.915,1.831-1.831V83.739
			C-1152.473,82.823-1153.388,81.908-1154.304,81.908z"/>
		<path fill="#B2DBAB" stroke="#AAAAAA" stroke-width="0.75" stroke-miterlimit="10" d="M-1784.544,445.48h-18.308
			c-0.915,0-0.915,0-0.915,0.915v23.801c0,0,0,0.916,0.915,0.916h18.308c0,0,0.916,0,0.916-0.916v-23.801
			C-1783.628,446.395-1783.628,445.48-1784.544,445.48z"/>
		<path fill="#B2DBAB" stroke="#AAAAAA" stroke-width="0.75" stroke-miterlimit="10" d="M-1759.346,470.196v-23.801
			c0,0,0-0.915-0.915-0.915h-18.308c-0.915,0-1.831,0-0.915,0.915v23.801c0,0,0,0.916,0.915,0.916h18.308
			C-1760.261,471.112-1759.346,471.112-1759.346,470.196z"/>
		<path fill="#B2DBAB" stroke="#AAAAAA" stroke-width="0.75" stroke-miterlimit="10" d="M-1785.469,474.577h-17.393
			c-0.916,0-0.916,0-0.916,0.915v37.532c0,0,0,0.915,0.916,0.915h17.393c0,0,0.915,0,0.915-0.915v-37.532
			C-1784.553,475.493-1784.553,474.577-1785.469,474.577z"/>
		<path fill="#B2DBAB" stroke="#AAAAAA" stroke-width="0.75" stroke-miterlimit="10" d="M-1749.92,489.345h-11.901
			c-0.915,0-1.831,0.915-0.915,0.915V510.4c0,0,0,0.916,0.915,0.916h11.901c0,0,0.915,0,0.915-0.916v-20.139
			C-1749.005,490.261-1749.005,489.345-1749.92,489.345z"/>
		<path fill="#B2DBAB" stroke="#AAAAAA" stroke-width="0.75" stroke-miterlimit="10" d="M-1739.8,385.324h109.851
			c1.831,0,2.746-1.831,2.746-2.746v-5.493c0-1.831-1.831-2.746-2.746-2.746H-1739.8c-1.831,0-2.746,0.915-2.746,2.746v5.493
			C-1742.547,384.408-1740.715,385.324-1739.8,385.324z"/>
		<path fill="#B2DBAB" stroke="#AAAAAA" stroke-width="0.75" stroke-miterlimit="10" d="M-1618.852,388.574h-120.836
			c-1.831,0-2.746,0.915-2.746,2.746v119.005c0,1.831,1.831,2.746,2.746,2.746h120.836c1.831,0,2.746-1.831,2.746-2.746V391.32
			C-1616.106,389.49-1617.937,388.574-1618.852,388.574z"/>
		<path fill="#B2DBAB" stroke="#AAAAAA" stroke-width="0.75" stroke-miterlimit="10" d="M-1507.059,329.8h-58.587
			c-0.915,0-1.831,0.915-2.746,2.746v34.786c0,1.831,1.831,2.746,2.746,2.746h58.587c1.831,0,2.746-1.831,2.746-2.746v-34.786
			C-1504.312,330.716-1506.143,329.8-1507.059,329.8z"/>
		
			<rect x="-1049.6" y="242.555" fill="#B2DBAB" stroke="#AAAAAA" stroke-width="0.75" stroke-miterlimit="10" width="8.239" height="3.662"/>
		
			<rect x="-1049.179" y="250.756" fill="#B2DBAB" stroke="#AAAAAA" stroke-width="0.75" stroke-miterlimit="10" width="49.433" height="258.149"/>
		
			<rect x="-1049.179" y="187.004" fill="#B2DBAB" stroke="#AAAAAA" stroke-width="0.75" stroke-miterlimit="10" width="49.433" height="52.179"/>
		
			<rect x="-1109.812" y="260.312" fill="#B2DBAB" stroke="#AAAAAA" stroke-width="0.75" stroke-miterlimit="10" width="57.672" height="4.577"/>
		
			<rect x="-1109.812" y="346.231" fill="#B2DBAB" stroke="#AAAAAA" stroke-width="0.75" stroke-miterlimit="10" width="57.672" height="2.746"/>
		
			<rect x="-1094.437" y="492.045" fill="#B2DBAB" stroke="#AAAAAA" stroke-width="0.75" stroke-miterlimit="10" width="8.239" height="11.901"/>
		
			<rect x="-1083.928" y="509.709" fill="#B2DBAB" stroke="#AAAAAA" stroke-width="0.75" stroke-miterlimit="10" width="31.125" height="3.662"/>
		<path fill="#B2DBAB" stroke="#AAAAAA" stroke-width="0.75" stroke-miterlimit="10" d="M-620.726,51.987V-57.303
			c0-1.175-1.175-1.763-1.763-1.763h-99.889c-0.587,0-1.175,0.588-1.763,1.763V51.987c0,1.175,1.175,1.763,1.763,1.763h99.889
			C-621.313,53.75-620.726,52.575-620.726,51.987z"/>
		<path fill="#B2DBAB" stroke="#AAAAAA" stroke-width="0.75" stroke-miterlimit="10" d="M-616.529,52.563h14.102
			c1.175,0,1.763-1.175,1.763-1.763V-57.315c0-1.175-1.175-1.763-1.763-1.763h-14.102c-1.175,0-1.763,0.588-1.763,1.763V50.8
			C-618.291,51.976-617.116,52.563-616.529,52.563z"/>
		<path fill="#B2DBAB" stroke="#AAAAAA" stroke-width="0.75" stroke-miterlimit="10" d="M-515.56,43.623h-21.153
			c-1.175,0-1.763,1.175-1.763,1.763v7.639c0,1.175,1.175,1.763,1.763,1.763h21.153c1.175,0,1.763-1.175,1.763-1.763v-7.639
			C-513.797,44.211-514.972,43.623-515.56,43.623z"/>
		<path fill="#B2DBAB" stroke="#AAAAAA" stroke-width="0.75" stroke-miterlimit="10" d="M-481.174,43.611h-0.587
			c-1.175,0-1.763,1.175-1.763,1.763v6.463c0,1.175,1.175,1.763,1.763,1.763h0.587c1.175,0,1.763-1.175,1.763-1.763v-6.463
			C-479.411,44.199-480.587,43.611-481.174,43.611z"/>
		<path fill="#B2DBAB" stroke="#AAAAAA" stroke-width="0.75" stroke-miterlimit="10" d="M-290.803-146.196h29.379
			c0.588,0,1.175-0.588,1.175-1.175v-21.153c0-0.588-0.588-1.175-1.175-1.175h-29.379c-0.588,0-0.588,0.588-1.175,1.175v21.153
			C-291.978-146.784-291.391-146.196-290.803-146.196z"/>
		<path fill="#B2DBAB" stroke="#AAAAAA" stroke-width="0.75" stroke-miterlimit="10" d="M-290.797-144.338
			c-0.588,0-0.588,0.588-1.175,1.175v38.781c0,0.588,0.588,1.175,1.175,1.175h29.967c0.587,0,1.175-0.588,1.175-1.175v-38.781
			c0-0.588-0.588-1.175-1.175-1.175H-290.797z"/>
		<path fill="#B2DBAB" stroke="#AAAAAA" stroke-width="0.75" stroke-miterlimit="10" d="M-255.692-102.865h62.284
			c0.587,0,1.175-0.588,1.175-1.175v-64.047c0-0.588-0.588-1.175-1.175-1.175h-62.284c-0.587,0-1.175,0.588-1.175,1.175v64.047
			C-256.867-103.453-256.279-102.865-255.692-102.865z"/>
		<path fill="#B2DBAB" stroke="#AAAAAA" stroke-width="0.75" stroke-miterlimit="10" d="M-194.349-100.089h-95.776
			c-0.588,0-0.588,0.588-1.175,1.175v85.787c0,0.588,0.587,1.175,1.175,1.175h95.776c0.587,0,1.175-0.588,1.175-1.175v-85.787
			C-193.174-99.501-193.762-100.089-194.349-100.089z"/>
		<path fill="#B2DBAB" stroke="#AAAAAA" stroke-width="0.75" stroke-miterlimit="10" d="M-291.103-9.217
			c-0.588,0-0.588,0.588-1.175,1.175v59.934c0,0.588,0.587,1.175,1.175,1.175s1.175-0.588,1.175-1.175V-8.042
			C-289.928-8.63-290.515-9.217-291.103-9.217z"/>
		<path fill="#B2DBAB" stroke="#AAAAAA" stroke-width="0.75" stroke-miterlimit="10" d="M-695.636,224.15h-11.752
			c-0.588,0-0.588,0-0.588,0.588v15.277c0,0,0,0.588,0.588,0.588h11.752c0,0,0.588,0,0.588-0.588v-15.277
			C-695.049,224.737-695.049,224.15-695.636,224.15z"/>
		<path fill="#B2DBAB" stroke="#AAAAAA" stroke-width="0.75" stroke-miterlimit="10" d="M-679.462,240.015v-15.277
			c0,0,0-0.588-0.588-0.588h-11.752c-0.587,0-1.175,0-0.587,0.588v15.277c0,0,0,0.588,0.587,0.588h11.752
			C-680.05,240.602-679.462,240.602-679.462,240.015z"/>
		<path fill="#B2DBAB" stroke="#AAAAAA" stroke-width="0.75" stroke-miterlimit="10" d="M-696.23,242.826h-11.164
			c-0.588,0-0.588,0-0.588,0.588v24.091c0,0,0,0.588,0.588,0.588h11.164c0,0,0.587,0,0.587-0.588v-24.091
			C-695.643,243.414-695.643,242.826-696.23,242.826z"/>
		<path fill="#B2DBAB" stroke="#AAAAAA" stroke-width="0.75" stroke-miterlimit="10" d="M-673.413,252.306h-7.639
			c-0.588,0-1.175,0.588-0.588,0.588v12.927c0,0,0,0.588,0.588,0.588h7.639c0,0,0.587,0,0.587-0.588v-12.927
			C-672.825,252.893-672.825,252.306-673.413,252.306z"/>
		<path fill="#B2DBAB" stroke="#AAAAAA" stroke-width="0.75" stroke-miterlimit="10" d="M-666.917,185.537h70.51
			c1.175,0,1.763-1.175,1.763-1.763v-3.526c0-1.175-1.175-1.763-1.763-1.763h-70.51c-1.175,0-1.763,0.588-1.763,1.763v3.526
			C-668.68,184.949-667.504,185.537-666.917,185.537z"/>
		<path fill="#B2DBAB" stroke="#AAAAAA" stroke-width="0.75" stroke-miterlimit="10" d="M-589.284,187.623h-77.561
			c-1.175,0-1.763,0.588-1.763,1.763v76.386c0,1.175,1.175,1.763,1.763,1.763h77.561c1.175,0,1.763-1.175,1.763-1.763v-76.386
			C-587.521,188.211-588.696,187.623-589.284,187.623z"/>
		<path fill="#B2DBAB" stroke="#AAAAAA" stroke-width="0.75" stroke-miterlimit="10" d="M-517.527,149.898h-37.605
			c-0.588,0-1.175,0.588-1.763,1.763v22.328c0,1.175,1.175,1.763,1.763,1.763h37.605c1.175,0,1.763-1.175,1.763-1.763v-22.328
			C-515.764,150.486-516.939,149.898-517.527,149.898z"/>
		
			<rect x="-223.896" y="93.898" fill="#B2DBAB" stroke="#AAAAAA" stroke-width="0.75" stroke-miterlimit="10" width="5.288" height="2.35"/>
		
			<rect x="-223.626" y="99.162" fill="#B2DBAB" stroke="#AAAAAA" stroke-width="0.75" stroke-miterlimit="10" width="31.729" height="165.699"/>
		
			<rect x="-223.626" y="58.241" fill="#B2DBAB" stroke="#AAAAAA" stroke-width="0.75" stroke-miterlimit="10" width="31.729" height="33.492"/>
		
			<rect x="-262.545" y="105.296" fill="#B2DBAB" stroke="#AAAAAA" stroke-width="0.75" stroke-miterlimit="10" width="37.018" height="2.938"/>
		
			<rect x="-262.545" y="160.445" fill="#B2DBAB" stroke="#AAAAAA" stroke-width="0.75" stroke-miterlimit="10" width="37.018" height="1.763"/>
		
			<rect x="-252.676" y="254.038" fill="#B2DBAB" stroke="#AAAAAA" stroke-width="0.75" stroke-miterlimit="10" width="5.288" height="7.639"/>
		
			<rect x="-245.931" y="265.377" fill="#B2DBAB" stroke="#AAAAAA" stroke-width="0.75" stroke-miterlimit="10" width="19.978" height="2.35"/>
		<path fill="#B2DBAB" stroke="#AAAAAA" stroke-width="0.75" stroke-miterlimit="10" d="M788.105,155.308V103.94
			c0-0.552-0.552-0.828-0.829-0.828h-46.949c-0.276,0-0.552,0.276-0.829,0.828v51.368c0,0.552,0.552,0.828,0.829,0.828h46.949
			C787.829,156.136,788.105,155.584,788.105,155.308z"/>
		<path fill="#B2DBAB" stroke="#AAAAAA" stroke-width="0.75" stroke-miterlimit="10" d="M790.078,155.578h6.628
			c0.552,0,0.829-0.552,0.829-0.829v-50.815c0-0.552-0.552-0.829-0.829-0.829h-6.628c-0.552,0-0.829,0.276-0.829,0.829v50.815
			C789.249,155.302,789.801,155.578,790.078,155.578z"/>
		<path fill="#B2DBAB" stroke="#AAAAAA" stroke-width="0.75" stroke-miterlimit="10" d="M837.534,151.376h-9.942
			c-0.553,0-0.829,0.552-0.829,0.829v3.59c0,0.552,0.552,0.828,0.829,0.828h9.942c0.552,0,0.829-0.552,0.829-0.828v-3.59
			C838.362,151.653,837.81,151.376,837.534,151.376z"/>
		<path fill="#B2DBAB" stroke="#AAAAAA" stroke-width="0.75" stroke-miterlimit="10" d="M853.695,151.371h-0.276
			c-0.552,0-0.828,0.552-0.828,0.828v3.038c0,0.552,0.552,0.828,0.828,0.828h0.276c0.552,0,0.829-0.552,0.829-0.828v-3.038
			C854.524,151.647,853.972,151.371,853.695,151.371z"/>
		<path fill="#B2DBAB" stroke="#AAAAAA" stroke-width="0.75" stroke-miterlimit="10" d="M943.171,62.159h13.809
			c0.276,0,0.552-0.276,0.552-0.552v-9.942c0-0.276-0.276-0.552-0.552-0.552h-13.809c-0.276,0-0.276,0.276-0.552,0.552v9.942
			C942.619,61.883,942.895,62.159,943.171,62.159z"/>
		<path fill="#B2DBAB" stroke="#AAAAAA" stroke-width="0.75" stroke-miterlimit="10" d="M943.174,63.033
			c-0.276,0-0.276,0.276-0.552,0.552v18.227c0,0.276,0.276,0.552,0.552,0.552h14.084c0.276,0,0.552-0.276,0.552-0.552V63.585
			c0-0.276-0.276-0.552-0.552-0.552H943.174z"/>
		<path fill="#B2DBAB" stroke="#AAAAAA" stroke-width="0.75" stroke-miterlimit="10" d="M959.674,82.526h29.274
			c0.276,0,0.552-0.276,0.552-0.552V51.871c0-0.276-0.276-0.552-0.552-0.552h-29.274c-0.276,0-0.552,0.276-0.552,0.552v30.102
			C959.122,82.249,959.398,82.526,959.674,82.526z"/>
		<path fill="#B2DBAB" stroke="#AAAAAA" stroke-width="0.75" stroke-miterlimit="10" d="M988.505,83.83H943.49
			c-0.276,0-0.276,0.276-0.552,0.552v40.321c0,0.276,0.276,0.552,0.552,0.552h45.016c0.276,0,0.552-0.276,0.552-0.552V84.383
			C989.058,84.107,988.782,83.83,988.505,83.83z"/>
		<path fill="#B2DBAB" stroke="#AAAAAA" stroke-width="0.75" stroke-miterlimit="10" d="M943.03,126.541
			c-0.276,0-0.276,0.276-0.552,0.552v28.169c0,0.276,0.276,0.552,0.552,0.552c0.276,0,0.553-0.276,0.553-0.552v-28.169
			C943.583,126.817,943.307,126.541,943.03,126.541z"/>
		<path fill="#B2DBAB" stroke="#AAAAAA" stroke-width="0.75" stroke-miterlimit="10" d="M752.896,236.225h-5.523
			c-0.276,0-0.276,0-0.276,0.276v7.18c0,0,0,0.276,0.276,0.276h5.523c0,0,0.276,0,0.276-0.276v-7.18
			C753.172,236.501,753.172,236.225,752.896,236.225z"/>
		<path fill="#B2DBAB" stroke="#AAAAAA" stroke-width="0.75" stroke-miterlimit="10" d="M760.498,243.682v-7.18
			c0,0,0-0.276-0.276-0.276h-5.523c-0.276,0-0.552,0-0.276,0.276v7.18c0,0,0,0.276,0.276,0.276h5.523
			C760.222,243.958,760.498,243.958,760.498,243.682z"/>
		<path fill="#B2DBAB" stroke="#AAAAAA" stroke-width="0.75" stroke-miterlimit="10" d="M752.617,245.003h-5.247
			c-0.276,0-0.276,0-0.276,0.276v11.323c0,0,0,0.276,0.276,0.276h5.247c0,0,0.276,0,0.276-0.276V245.28
			C752.894,245.28,752.894,245.003,752.617,245.003z"/>
		<path fill="#B2DBAB" stroke="#AAAAAA" stroke-width="0.75" stroke-miterlimit="10" d="M763.342,249.459h-3.59
			c-0.276,0-0.552,0.276-0.276,0.276v6.076c0,0,0,0.276,0.276,0.276h3.59c0,0,0.276,0,0.276-0.276v-6.076
			C763.618,249.735,763.618,249.459,763.342,249.459z"/>
		<path fill="#B2DBAB" stroke="#AAAAAA" stroke-width="0.75" stroke-miterlimit="10" d="M766.395,218.077h33.141
			c0.552,0,0.828-0.552,0.828-0.828v-1.657c0-0.552-0.552-0.828-0.828-0.828h-33.141c-0.552,0-0.828,0.276-0.828,0.828v1.657
			C765.566,217.801,766.119,218.077,766.395,218.077z"/>
		<path fill="#B2DBAB" stroke="#AAAAAA" stroke-width="0.75" stroke-miterlimit="10" d="M802.883,219.058h-36.454
			c-0.553,0-0.829,0.276-0.829,0.828v35.902c0,0.552,0.552,0.829,0.829,0.829h36.454c0.552,0,0.829-0.552,0.829-0.829v-35.902
			C803.711,219.334,803.159,219.058,802.883,219.058z"/>
		<path fill="#B2DBAB" stroke="#AAAAAA" stroke-width="0.75" stroke-miterlimit="10" d="M836.609,201.326h-17.675
			c-0.276,0-0.552,0.276-0.829,0.828v10.494c0,0.552,0.552,0.829,0.829,0.829h17.675c0.552,0,0.829-0.552,0.829-0.829v-10.494
			C837.438,201.603,836.886,201.326,836.609,201.326z"/>
		
			<rect x="974.618" y="175.006" fill="#B2DBAB" stroke="#AAAAAA" stroke-width="0.75" stroke-miterlimit="10" width="2.485" height="1.105"/>
		
			<rect x="974.745" y="177.48" fill="#B2DBAB" stroke="#AAAAAA" stroke-width="0.75" stroke-miterlimit="10" width="14.913" height="77.88"/>
		
			<rect x="974.745" y="158.247" fill="#B2DBAB" stroke="#AAAAAA" stroke-width="0.75" stroke-miterlimit="10" width="14.913" height="15.742"/>
		
			<rect x="956.453" y="180.363" fill="#B2DBAB" stroke="#AAAAAA" stroke-width="0.75" stroke-miterlimit="10" width="17.398" height="1.381"/>
		
			<rect x="956.453" y="206.283" fill="#B2DBAB" stroke="#AAAAAA" stroke-width="0.75" stroke-miterlimit="10" width="17.398" height="0.828"/>
		
			<rect x="961.091" y="250.273" fill="#B2DBAB" stroke="#AAAAAA" stroke-width="0.75" stroke-miterlimit="10" width="2.486" height="3.59"/>
		
			<rect x="964.262" y="255.602" fill="#B2DBAB" stroke="#AAAAAA" stroke-width="0.75" stroke-miterlimit="10" width="9.39" height="1.105"/>
		
			<rect x="-2423.474" y="-148.1" fill="#B2DBAB" stroke="#AAAAAA" stroke-width="0.75" stroke-miterlimit="10" width="88.2" height="88.2"/>
		<path fill="#B2DBAB" stroke="#AAAAAA" stroke-width="0.75" stroke-miterlimit="10" d="M140.515,190.346V96.608
			c0-1.008-1.008-1.512-1.512-1.512H53.328c-0.504,0-1.008,0.504-1.512,1.512v93.738c0,1.008,1.008,1.512,1.512,1.512h85.675
			C140.011,191.858,140.515,190.85,140.515,190.346z"/>
		<path fill="#B2DBAB" stroke="#AAAAAA" stroke-width="0.75" stroke-miterlimit="10" d="M144.114,190.84h12.095
			c1.008,0,1.512-1.008,1.512-1.512v-92.73c0-1.008-1.008-1.512-1.512-1.512h-12.095c-1.008,0-1.512,0.504-1.512,1.512v92.73
			C142.602,190.336,143.61,190.84,144.114,190.84z"/>
		<path fill="#B2DBAB" stroke="#AAAAAA" stroke-width="0.75" stroke-miterlimit="10" d="M230.715,183.172h-18.143
			c-1.008,0-1.512,1.008-1.512,1.512v6.552c0,1.008,1.008,1.512,1.512,1.512h18.143c1.008,0,1.512-1.008,1.512-1.512v-6.552
			C232.227,183.676,231.219,183.172,230.715,183.172z"/>
		<path fill="#B2DBAB" stroke="#AAAAAA" stroke-width="0.75" stroke-miterlimit="10" d="M260.207,183.162h-0.504
			c-1.008,0-1.512,1.008-1.512,1.512v5.544c0,1.008,1.008,1.512,1.512,1.512h0.504c1.008,0,1.512-1.008,1.512-1.512v-5.544
			C261.719,183.666,260.711,183.162,260.207,183.162z"/>
		<path fill="#B2DBAB" stroke="#AAAAAA" stroke-width="0.75" stroke-miterlimit="10" d="M423.488,20.364h25.198
			c0.504,0,1.008-0.504,1.008-1.008V1.214c0-0.504-0.504-1.008-1.008-1.008h-25.198c-0.504,0-0.504,0.504-1.008,1.008v18.143
			C422.481,19.86,422.984,20.364,423.488,20.364z"/>
		<path fill="#B2DBAB" stroke="#AAAAAA" stroke-width="0.75" stroke-miterlimit="10" d="M423.493,21.959
			c-0.504,0-0.504,0.504-1.008,1.008v33.262c0,0.504,0.504,1.008,1.008,1.008h25.702c0.504,0,1.008-0.504,1.008-1.008V22.967
			c0-0.504-0.504-1.008-1.008-1.008H423.493z"/>
		<path fill="#B2DBAB" stroke="#AAAAAA" stroke-width="0.75" stroke-miterlimit="10" d="M453.603,57.53h53.421
			c0.504,0,1.008-0.504,1.008-1.008V1.589c0-0.504-0.504-1.008-1.008-1.008h-53.421c-0.504,0-1.008,0.504-1.008,1.008v54.933
			C452.595,57.026,453.099,57.53,453.603,57.53z"/>
		<path fill="#B2DBAB" stroke="#AAAAAA" stroke-width="0.75" stroke-miterlimit="10" d="M506.217,59.911h-82.147
			c-0.504,0-0.504,0.504-1.008,1.008v73.58c0,0.504,0.504,1.008,1.008,1.008h82.147c0.504,0,1.008-0.504,1.008-1.008v-73.58
			C507.224,60.415,506.721,59.911,506.217,59.911z"/>
		<path fill="#B2DBAB" stroke="#AAAAAA" stroke-width="0.75" stroke-miterlimit="10" d="M423.231,137.851
			c-0.504,0-0.504,0.504-1.008,1.008v51.405c0,0.504,0.504,1.008,1.008,1.008c0.504,0,1.008-0.504,1.008-1.008v-51.405
			C424.239,138.355,423.735,137.851,423.231,137.851z"/>
		<path fill="#B2DBAB" stroke="#AAAAAA" stroke-width="0.75" stroke-miterlimit="10" d="M76.264,338.009H66.184
			c-0.504,0-0.504,0-0.504,0.504v13.103c0,0,0,0.504,0.504,0.504h10.079c0,0,0.504,0,0.504-0.504v-13.103
			C76.768,338.513,76.768,338.009,76.264,338.009z"/>
		<path fill="#B2DBAB" stroke="#AAAAAA" stroke-width="0.75" stroke-miterlimit="10" d="M90.136,351.617v-13.103
			c0,0,0-0.504-0.504-0.504H79.553c-0.504,0-1.008,0-0.504,0.504v13.103c0,0,0,0.504,0.504,0.504h10.079
			C89.632,352.121,90.136,352.121,90.136,351.617z"/>
		<path fill="#B2DBAB" stroke="#AAAAAA" stroke-width="0.75" stroke-miterlimit="10" d="M75.754,354.028h-9.575
			c-0.504,0-0.504,0-0.504,0.504v20.663c0,0,0,0.504,0.504,0.504h9.575c0,0,0.504,0,0.504-0.504v-20.663
			C76.258,354.532,76.258,354.028,75.754,354.028z"/>
		<path fill="#B2DBAB" stroke="#AAAAAA" stroke-width="0.75" stroke-miterlimit="10" d="M95.325,362.159h-6.552
			c-0.504,0-1.008,0.504-0.504,0.504v11.087c0,0,0,0.504,0.504,0.504h6.552c0,0,0.504,0,0.504-0.504v-11.087
			C95.829,362.663,95.829,362.159,95.325,362.159z"/>
		<path fill="#B2DBAB" stroke="#AAAAAA" stroke-width="0.75" stroke-miterlimit="10" d="M100.896,304.891h60.476
			c1.008,0,1.512-1.008,1.512-1.512v-3.024c0-1.008-1.008-1.512-1.512-1.512h-60.476c-1.008,0-1.512,0.504-1.512,1.512v3.024
			C99.384,304.387,100.392,304.891,100.896,304.891z"/>
		<path fill="#B2DBAB" stroke="#AAAAAA" stroke-width="0.75" stroke-miterlimit="10" d="M167.482,306.681h-66.524
			c-1.008,0-1.512,0.504-1.512,1.512v65.516c0,1.008,1.008,1.512,1.512,1.512h66.524c1.008,0,1.512-1.008,1.512-1.512v-65.516
			C168.994,307.185,167.986,306.681,167.482,306.681z"/>
		<path fill="#B2DBAB" stroke="#AAAAAA" stroke-width="0.75" stroke-miterlimit="10" d="M229.028,274.324h-32.254
			c-0.504,0-1.008,0.504-1.512,1.512v19.151c0,1.008,1.008,1.512,1.512,1.512h32.254c1.008,0,1.512-1.008,1.512-1.512v-19.151
			C230.54,274.828,229.532,274.324,229.028,274.324z"/>
		
			<rect x="480.874" y="226.293" fill="#B2DBAB" stroke="#AAAAAA" stroke-width="0.75" stroke-miterlimit="10" width="4.536" height="2.016"/>
		
			<rect x="481.106" y="230.808" fill="#B2DBAB" stroke="#AAAAAA" stroke-width="0.75" stroke-miterlimit="10" width="27.214" height="142.119"/>
		
			<rect x="481.106" y="195.71" fill="#B2DBAB" stroke="#AAAAAA" stroke-width="0.75" stroke-miterlimit="10" width="27.214" height="28.726"/>
		
			<rect x="447.725" y="236.069" fill="#B2DBAB" stroke="#AAAAAA" stroke-width="0.75" stroke-miterlimit="10" width="31.75" height="2.52"/>
		
			<rect x="447.725" y="283.37" fill="#B2DBAB" stroke="#AAAAAA" stroke-width="0.75" stroke-miterlimit="10" width="31.75" height="1.512"/>
		
			<rect x="456.19" y="363.645" fill="#B2DBAB" stroke="#AAAAAA" stroke-width="0.75" stroke-miterlimit="10" width="4.536" height="6.552"/>
		
			<rect x="461.975" y="373.37" fill="#B2DBAB" stroke="#AAAAAA" stroke-width="0.75" stroke-miterlimit="10" width="17.135" height="2.016"/>
	</g>
</g>
<style>
#g-nycparkbreakdown-sm-interactions-img rect, #g-nycparkbreakdown-sm-interactions-img circle, #g-nycparkbreakdown-sm-interactions-img path, #g-nycparkbreakdown-sm-interactions-img line, #g-nycparkbreakdown-sm-interactions-img polyline, #g-nycparkbreakdown-sm-interactions-img polygon { vector-effect: non-scaling-stroke; }
</style>
</svg>

