<?xml version="1.0" encoding="utf-8"?>
<!-- Generator: Adobe Illustrator 26.3.1, SVG Export Plug-In . SVG Version: 6.00 Build 0)  -->
<svg version="1.2" baseProfile="tiny" id="g-parks-ew-responsive-mobile-interactions-img" xmlns="http://www.w3.org/2000/svg" xmlns:xlink="http://www.w3.org/1999/xlink"
	 x="0px" y="0px" viewBox="0 0 272.392 667" overflow="visible" xml:space="preserve">
<g>
	<g id="playgroundLots_00000183951863343557262130000017147362113193494193_">
		
			<path id="playground_00000067195671976368879500000003494326923072535424_" fill="#389B2A" fill-opacity="0.2" stroke="#888888" stroke-miterlimit="10" d="
			M-337.881,179.016l-2.188-16.443l15.316-2.902l2.407,17.169L-337.881,179.016z"/>
		
			<path id="greenePlayground_00000122695590909347381630000010227687881803637944_" fill="#389B2A" fill-opacity="0.2" stroke="#888888" stroke-miterlimit="10" d="
			M-273.228,195.702l14.878-2.418l2.079,14.267l-14.878,2.781L-273.228,195.702z"/>
		
			<path id="rodneyParkCenter_00000037674985586413973240000003206161335549010819_" fill="#389B2A" fill-opacity="0.2" stroke="#888888" stroke-miterlimit="10" d="
			M-662.154,268.234l6.383,3.017l-3.191,6.383l-1.683-0.812l-3.191,7.021l-4.642-1.915L-662.154,268.234z"/>
		
			<path id="rodneyPlaygroundNorth_00000093144865464130041470000000529612145500535212_" fill="#389B2A" fill-opacity="0.2" stroke="#888888" stroke-miterlimit="10" d="
			M-631.654,208.443l10.386-21.236l4.004,0.696l-10.502,20.54H-631.654z"/>
		
			<path id="rodneyPlaygroundCenter_00000076588941792439492800000008735536475095343804_" fill="#389B2A" fill-opacity="0.2" stroke="#888888" stroke-miterlimit="10" d="
			M-640.532,224.726l2.959-6.441l6.441-0.754l-4.526,9.574L-640.532,224.726z"/>
		
			<path id="rodneyParkSouth_00000017509056771663859100000017857657798390289543_" fill="#389B2A" fill-opacity="0.2" stroke="#888888" stroke-miterlimit="10" d="
			M-671.256,290.437l5.976,1.335l-3.017,7.891l-1.335,7.137l-7.311-0.812L-671.256,290.437z"/>
		
			<path id="rodneyParkNorth_00000035519525811296519430000011338557397008760974_" fill="#389B2A" fill-opacity="0.2" stroke="#888888" stroke-miterlimit="10" d="
			M-658.387,262.231l6.208-13.577l6.15,2.843l-6.267,13.577L-658.387,262.231z"/>
		
			<path id="strawberryPlayground_00000032649835282162896420000003303925838009157539_" fill="#389B2A" fill-opacity="0.2" stroke="#888888" stroke-miterlimit="10" d="
			M-642.789,242.872l-5.802-3.191l6.15-12.011l5.686,2.959L-642.789,242.872z"/>
		
			<path id="marcyGreenNorth_00000039843614855747253870000017945631361134799530_" fill="#389B2A" fill-opacity="0.2" stroke="#888888" stroke-miterlimit="10" d="
			M-657.927,235.197l-6.023-3.104l5.606-12.741l5.004,5.56L-657.927,235.197z"/>
		
			<path id="marcyGreenCenter_00000065772692927607207390000009229006603817187467_" fill="#389B2A" fill-opacity="0.2" stroke="#888888" stroke-miterlimit="10" d="
			M-674.707,255.321l8.701-19.657l6.35,3.216l-9.038,19.955L-674.707,255.321z"/>
		
			<path id="jaimiePlayground_00000044164168228983875810000012697262413863508654_" fill="#389B2A" fill-opacity="0.2" stroke="#888888" stroke-miterlimit="10" d="
			M-622.112,147.524l15.154-32.359h14.452l-27.279,33.098L-622.112,147.524z"/>
		
			<path id="frostPlayground_00000059293499157572783740000000926315632023177378_" fill="#389B2A" fill-opacity="0.2" stroke="#888888" stroke-miterlimit="10" d="
			M-950.864,158.878l-4.704-10.647l17.827-7.18l4.209,11.885L-950.864,158.878z"/>
		
			<path id="edmondPlayground_00000012438964200031274880000009379762903156859325_" fill="#389B2A" fill-opacity="0.2" stroke="#888888" stroke-miterlimit="10" d="
			M-385.469,122.069l-2.188-13.542l14.987,1.33l2.188,16.564l-7.986,1.935l-1.422-6.892L-385.469,122.069z"/>
		
			<path id="playground_00000143582999560381803270000013516995953247945132_" fill="#389B2A" fill-opacity="0.2" stroke="#888888" stroke-miterlimit="10" d="
			M125.346,537.138l-1.835-13.787l12.842-2.433l2.018,14.396L125.346,537.138z"/>
		
			<path id="greenePlayground_00000036953543773704267840000000850140599641632417_" fill="#389B2A" fill-opacity="0.2" stroke="#888888" stroke-miterlimit="10" d="
			M179.557,551.128l12.475-2.028l1.743,11.963l-12.475,2.332L179.557,551.128z"/>
		
			<path id="rodneyParkCenter_00000134970243150044945000000015811515498304337044_" fill="#389B2A" fill-opacity="0.2" stroke="#888888" stroke-miterlimit="10" d="
			M114.954,393.597l5.336,2.522l-2.668,5.336l-1.407-0.679l-2.668,5.87l-3.881-1.601L114.954,393.597z"/>
		
			<path id="rodneyPlaygroundNorth_00000004510419439258248100000010415300326932846260_" fill="#389B2A" fill-opacity="0.2" stroke="#888888" stroke-miterlimit="10" d="
			M140.452,343.609l8.683-17.754l3.347,0.582l-8.78,17.172H140.452z"/>
		
			<path id="rodneyPlaygroundCenter_00000017517333682051313810000018364645091806448051_" fill="#389B2A" fill-opacity="0.2" stroke="#888888" stroke-miterlimit="10" d="
			M133.03,357.223l2.474-5.384l5.384-0.631l-3.784,8.004L133.03,357.223z"/>
		
			<path id="rodneyParkSouth_00000174565194276412512490000014741480020917338757_" fill="#389B2A" fill-opacity="0.2" stroke="#888888" stroke-miterlimit="10" d="
			M107.344,412.158l4.996,1.116l-2.522,6.597l-1.116,5.967l-6.112-0.679L107.344,412.158z"/>
		
			<path id="rodneyParkNorth_00000136396129290835119770000016413735297211701655_" fill="#389B2A" fill-opacity="0.2" stroke="#888888" stroke-miterlimit="10" d="
			M118.103,388.578l5.19-11.351l5.142,2.377l-5.239,11.351L118.103,388.578z"/>
		
			<path id="strawberryPlayground_00000165949207817147986640000004825556494582298042_" fill="#389B2A" fill-opacity="0.2" stroke="#888888" stroke-miterlimit="10" d="
			M131.143,372.393l-4.851-2.668l5.142-10.041l4.754,2.474L131.143,372.393z"/>
		
			<path id="marcyGreenNorth_00000044155738240050872120000010396213257622869156_" fill="#389B2A" fill-opacity="0.2" stroke="#888888" stroke-miterlimit="10" d="
			M118.487,365.976l-5.035-2.595l4.687-10.652l4.183,4.648L118.487,365.976z"/>
		
			<path id="marcyGreenCenter_00000117653343985224820440000014331836949297055140_" fill="#389B2A" fill-opacity="0.2" stroke="#888888" stroke-miterlimit="10" d="
			M104.458,382.8l7.274-16.433l5.309,2.688l-7.556,16.683L104.458,382.8z"/>
		
			<path id="jaimiePlayground_00000003084325704644586490000012169491977392315833_" fill="#389B2A" fill-opacity="0.2" stroke="#888888" stroke-miterlimit="10" d="
			M148.429,292.68l12.669-27.053h12.082l-22.806,27.671L148.429,292.68z"/>
		
			<path id="frostPlayground_00000031189843468067351950000009469029345209125298_" fill="#389B2A" fill-opacity="0.2" stroke="#888888" stroke-miterlimit="10" d="
			M135.613,83.925l-3.942-8.922l14.94-6.017l3.527,9.96L135.613,83.925z"/>
		
			<path id="edmondPlayground_00000012446285498374948690000013940883972814461087_" fill="#389B2A" fill-opacity="0.2" stroke="#888888" stroke-miterlimit="10" d="
			M85.444,489.388l-1.835-11.354l12.567,1.115l1.835,13.889l-6.696,1.622l-1.192-5.779L85.444,489.388z"/>
	</g>
	<g id="parkLots_00000112608634533094559170000003633150820101415814_">
		
			<path id="underwoodPark_00000042710619789590688800000009579828434200879803_" fill="#389B2A" fill-opacity="0.2" stroke="#888888" stroke-miterlimit="10" d="
			M-279.901,146.372l-3.61-20.071l15.972-2.297l2.407,18.62L-279.901,146.372z"/>
		
			<path id="cooper_00000092452366290755214430000017705119949809370774_" fill="#389B2A" fill-opacity="0.2" stroke="#888888" stroke-miterlimit="10" d="
			M-942.941,232.168l59.424-22.532l16.342,46.549l-68.586-2.971L-942.941,232.168z"/>
		
			<path id="underwoodPark_00000119832193366756907070000015627328871259769253_" fill="#389B2A" fill-opacity="0.2" stroke="#888888" stroke-miterlimit="10" d="
			M173.962,509.765l-3.027-16.829l13.392-1.926l2.018,15.612L173.962,509.765z"/>
		
			<path id="cooper_00000173126769936873801270000000214378138410741635_" fill="#389B2A" fill-opacity="0.2" stroke="#888888" stroke-miterlimit="10" d="
			M142.253,145.343l49.798-18.882l13.695,39.009l-57.476-2.49L142.253,145.343z"/>
	</g>
	<g id="commLots_00000013171783422040812360000012951322519895549076_">
		
			<path id="commGarden_00000094607205672147867990000012718042059786966678_" fill="#389B2A" fill-opacity="0.2" stroke="#888888" stroke-miterlimit="10" d="
			M-372.013,224.961l-0.656-6.771l7.001-1.209l1.75,6.529L-372.013,224.961z"/>
		
			<path id="keapFourthCommGarden_00000150087152342297895070000003724201187632198567_" fill="#389B2A" fill-opacity="0.2" stroke="#888888" stroke-miterlimit="10" d="
			M-622.627,256.979l1.794-4.208l5.285,2.349l-2.452,4.025L-622.627,256.979z"/>
		
			<path id="redShed_00000072963923943051626150000002170400153209664424_" fill="#389B2A" fill-opacity="0.2" stroke="#888888" stroke-miterlimit="10" d="
			M-973.644,239.101l-2.724-14.361l4.952-0.248l2.476,12.132L-973.644,239.101z"/>
		
			<path id="orientGrove_00000003083313821316407640000013081866812141774473_" fill="#389B2A" fill-opacity="0.2" stroke="#888888" stroke-miterlimit="10" d="
			M-983.548,271.537l13.866-5.447l0.495,6.685L-983.548,271.537z"/>
		
			<path id="commGarden_00000026152774469363172410000006431296836939285134_" fill="#389B2A" fill-opacity="0.2" stroke="#888888" stroke-miterlimit="10" d="
			M96.727,575.662l-0.55-5.677l5.871-1.014l1.468,5.474L96.727,575.662z"/>
		
			<path id="keapFourthCommGarden_00000001657849798379791510000005427909819632191166_" fill="#389B2A" fill-opacity="0.2" stroke="#888888" stroke-miterlimit="10" d="
			M147.999,384.187l1.5-3.518l4.418,1.964l-2.05,3.365L147.999,384.187z"/>
		
			<path id="redShed_00000039826962724354036790000008296972106314833541_" fill="#389B2A" fill-opacity="0.2" stroke="#888888" stroke-miterlimit="10" d="
			M116.523,151.153l-2.282-12.035l4.15-0.208l2.075,10.167L116.523,151.153z"/>
		
			<path id="orientGrove_00000121972623266338312540000017304231197976167322_" fill="#389B2A" fill-opacity="0.2" stroke="#888888" stroke-miterlimit="10" d="
			M108.224,178.335l11.62-4.565l0.415,5.602L108.224,178.335z"/>
	</g>
	<g id="trianglesLots_00000066482137929459578450000012063589340199156398_">
		
			<path id="cuylerGore_00000062909794256813387420000013174104010530807436_" fill="#389B2A" fill-opacity="0.2" stroke="#888888" stroke-miterlimit="10" d="
			M-402.425,219.883l-0.219-3.144l24.067-2.66l1.313,19.587L-402.425,219.883z"/>
		
			<path id="macriTriangle_00000068667979565119094280000014222280428664903080_" fill="#389B2A" fill-opacity="0.2" stroke="#888888" stroke-miterlimit="10" d="
			M-568.852,108.559l13.113-16.188l3.017,16.188H-568.852z"/>
		
			<path id="memorialGore_00000009566316975970381060000016270733441106403740_" fill="#389B2A" fill-opacity="0.2" stroke="#888888" stroke-miterlimit="10" d="
			M-1023.907,269.556l7.513-8.397l2.21,7.071L-1023.907,269.556z"/>
		
			<path id="cuylerGore_00000168827938746917856180000015665616984869019550_" fill="#389B2A" fill-opacity="0.2" stroke="#888888" stroke-miterlimit="10" d="
			M71.226,571.404l-0.183-2.636l20.18-2.23l1.101,16.423L71.226,571.404z"/>
		
			<path id="macriTriangle_00000021088440616161361920000000612535639137871027_" fill="#389B2A" fill-opacity="0.2" stroke="#888888" stroke-miterlimit="10" d="
			M192.956,260.104l10.963-13.534l2.522,13.534H192.956z"/>
		
			<path id="memorialGore_00000084507182317511598040000016553833940297877950_" fill="#389B2A" fill-opacity="0.2" stroke="#888888" stroke-miterlimit="10" d="
			M74.402,176.675l6.296-7.037l1.852,5.926L74.402,176.675z"/>
	</g>
	<g id="parkArrows_00000081622008829533482900000013520577808221719724_">
		<g id="underwoodArrow_00000144337047449813847420000018213317432245171848_">
			<path fill="none" stroke="#333333" d="M-259.25,115.141c1.811,4.294,1.796,8.579-0.044,12.856"/>
			<path fill="none" stroke="#333333" d="M-257.245,129.178l-4.113,0.579l0.392-4.135"/>
		</g>
		<g id="cooperArrow_00000090280431470504061440000013221344532891807908_">
			<path fill="none" stroke="#333333" d="M-874.113,196.708c2.691,5.436,2.669,10.862-0.066,16.276"/>
			<path fill="none" stroke="#333333" d="M-870.024,209.759l-4.155,3.224l-2.172-4.789"/>
		</g>
		<g id="underwoodArrow_00000090997441476068658500000000824655412353775267_">
			<path fill="none" stroke="#333333" d="M191.277,483.579c1.518,3.6,1.506,7.194-0.037,10.779"/>
			<path fill="none" stroke="#333333" d="M192.958,495.349l-3.449,0.485l0.328-3.467"/>
		</g>
		<g id="cooperArrow_00000024723304412117834210000015315941607957280915_">
			<path fill="none" stroke="#333333" d="M199.931,115.627c2.255,4.556,2.237,9.102-0.055,13.64"/>
			<path fill="none" stroke="#333333" d="M203.358,126.564l-3.482,2.702l-1.82-4.014"/>
		</g>
	</g>
	<g id="triangleArrows_00000137829367641341154250000001309685317067035264_">
		<g id="cuylerArrow_00000176024172959154665330000000938758733875138692_">
			<path fill="none" stroke="#333333" d="M-407.662,201.362c-1.903,4.294-1.888,8.579,0.046,12.856"/>
			<path fill="none" stroke="#333333" d="M-409.77,215.4l4.324,0.579l-0.412-4.135"/>
		</g>
		<g id="macriArrow_00000008146434698294466810000003712984039941734788_">
			<path fill="none" stroke="#333333" d="M-556.732,127.58c-3.313-3.67-4.21-7.861-2.691-12.571"/>
			<path fill="none" stroke="#333333" d="M-562.151,115.236l3.791-3.516l0.973,4.482"/>
		</g>
		<g id="memorialArrow_00000067922738744777210510000013968549686847683503_">
			<path fill="none" stroke="#333333" d="M-1034.823,247.207c0.723,6.057,3.759,10.554,9.108,13.489"/>
			<path fill="none" stroke="#333333" d="M-1031.06,260.393l5.345,0.303l-0.807-5.223"/>
		</g>
		<g id="cuylerArrow_00000010306550662499615390000000631292359865530502_">
			<path fill="none" stroke="#333333" d="M66.835,555.874c-1.596,3.6-1.583,7.193,0.039,10.779"/>
			<path fill="none" stroke="#333333" d="M65.068,567.645l3.626,0.485l-0.345-3.467"/>
		</g>
		<g id="macriArrow_00000001629396524752962960000009699637429964684217_">
			<path fill="none" stroke="#333333" d="M203.088,276.006c-2.769-3.068-3.519-6.572-2.25-10.51"/>
			<path fill="none" stroke="#333333" d="M198.558,265.687l3.169-2.939l0.813,3.747"/>
		</g>
		<g id="memorialArrow_00000040566279527120558840000013492302298333187220_">
			<path fill="none" stroke="#333333" d="M65.254,157.946c0.606,5.076,3.15,8.844,7.633,11.304"/>
			<path fill="none" stroke="#333333" d="M68.408,168.996l4.479,0.254l-0.676-4.377"/>
		</g>
	</g>
	<g id="commArrows_00000108289948001830307270000015232508185190543500_">
		<g id="brooklynGarden_00000108275652767985774810000003314687324020034494_">
			<path fill="none" stroke="#333333" d="M-346.062,228.364c-1.589-4.574-4.703-7.518-9.343-8.835"/>
			<path fill="none" stroke="#333333" d="M-354.541,216.892l-3.871,3.257l3.322,2.506"/>
		</g>
		<g id="keapArrow_00000033334287088743745010000016414111768896062606_">
			<path fill="none" stroke="#333333" d="M-603.24,268.888c-4.772,1.293-8.915,0.196-12.428-3.29"/>
			<path fill="none" stroke="#333333" d="M-617.509,267.985l0.84-5.535l3.869,1.553"/>
		</g>
		<g id="redArrow_00000011717232667984871940000007642856929137080251_">
			<path fill="none" stroke="#333333" d="M-990.046,209.653c0.835,6.208,4.153,10.5,9.955,12.877"/>
			<path fill="none" stroke="#333333" d="M-985.866,222.89l5.774-0.36l-0.918-5.33"/>
		</g>
		<g id="orientArrow_00000124149688680648683200000013971882937510593422_">
			<path fill="none" stroke="#333333" d="M-971.24,294.386c2.825-5.407,2.859-10.832,0.103-16.276"/>
			<path fill="none" stroke="#333333" d="M-966.897,281.379l-4.24-3.269l-2.285,4.766"/>
		</g>
		<g id="brooklynGarden_00000141449154389696669910000014873811652822356138_">
			<path fill="none" stroke="#333333" d="M118.486,578.515c-1.332-3.835-3.944-6.304-7.834-7.408"/>
			<path fill="none" stroke="#333333" d="M111.377,568.896l-3.246,2.731l2.786,2.101"/>
		</g>
		<g id="keapArrow_00000025427334784550471520000004512499182855559820_">
			<path fill="none" stroke="#333333" d="M164.207,394.143c-3.99,1.081-7.453,0.164-10.39-2.751"/>
			<path fill="none" stroke="#333333" d="M152.277,393.388l0.702-4.627l3.235,1.298"/>
		</g>
		<g id="redArrow_00000171717524929074892000000007452856382916013983_">
			<path fill="none" stroke="#333333" d="M102.778,126.475c0.699,5.202,3.48,8.799,8.342,10.791"/>
			<path fill="none" stroke="#333333" d="M106.281,137.568l4.839-0.302l-0.769-4.466"/>
		</g>
		<g id="orientArrow_00000021831249898591778140000017162081439809383864_">
			<path fill="none" stroke="#333333" d="M118.537,197.483c2.367-4.531,2.396-9.078,0.087-13.64"/>
			<path fill="none" stroke="#333333" d="M122.177,186.583l-3.553-2.74l-1.915,3.994"/>
		</g>
	</g>
	<g id="playgroundArrows_00000021113313606684148230000005890100140697550767_">
		<g id="jaimieArrow_00000065782281049539258420000002082746882286258846_">
			<path fill="none" stroke="#333333" d="M-618.313,107.012c-3.339,4.294-3.312,8.579,0.081,12.856"/>
			<path fill="none" stroke="#333333" d="M-616.12,118.608l-0.858,4.064l-3.754-1.778"/>
		</g>
		<g id="greeneArrow_00000102545002151256616490000003917692728397430419_">
			<path fill="none" stroke="#333333" d="M-278.894,183.08c-1.903,4.294-1.888,8.579,0.046,12.856"/>
			<path fill="none" stroke="#333333" d="M-281.001,197.118l4.324,0.579l-0.412-4.135"/>
		</g>
		<g id="edmondsArrow_00000038395571734815715180000016840361115022181048_">
			<path fill="none" stroke="#333333" d="M-393.398,99.798c-1.903,4.294-1.888,8.579,0.046,12.856"/>
			<path fill="none" stroke="#333333" d="M-395.505,113.836l4.324,0.579l-0.412-4.135"/>
		</g>
		<g id="albertArrow_00000112631585445236879560000007033322078453895096_">
			<path fill="none" stroke="#333333" d="M-345.822,153.554c-1.903,4.294-1.888,8.579,0.046,12.856"/>
			<path fill="none" stroke="#333333" d="M-347.929,167.591l4.324,0.579l-0.412-4.135"/>
		</g>
		<g id="blueArrow_00000181800649141515825930000010996460817434053811_">
			<path fill="none" stroke="#333333" d="M-605.007,186.89c-0.672,4.898-3.298,8.285-7.878,10.159"/>
			<path fill="none" stroke="#333333" d="M-611.405,199.676l-4.769-2.933l2.94-2.957"/>
		</g>
		<g id="frostArrow_00000168111007142082149260000013325884598842288779_">
			<path fill="none" stroke="#333333" d="M-944.286,122.859c2.691,5.436,2.669,10.862-0.066,16.276"/>
			<path fill="none" stroke="#333333" d="M-940.197,135.911l-4.155,3.224l-2.172-4.789"/>
		</g>
		<g id="rodneyArrow_00000155860528437740032750000010828802403474678402_">
			<path fill="none" stroke="#333333" d="M-648.362,304.788c-4.26,2.51-8.545,2.549-12.855,0.118"/>
			<path fill="none" stroke="#333333" d="M-662.361,307.695l-0.656-5.56l4.142,0.473"/>
		</g>
		<g id="rodneyArrow2_00000029752666589711475480000005809277596544470184_">
			<path fill="none" stroke="#333333" d="M-647.421,294.035c0.371-5.304-1.29-9.546-4.984-12.726"/>
			<path fill="none" stroke="#333333" d="M-650.574,278.954l-4.809,1.799l2.024,3.876"/>
		</g>
		<g id="rodneyarrow3_00000019644534440281063420000001868846547063232942_">
			<path fill="none" stroke="#333333" d="M-646.893,294.384c3.235-12.928,2.89-22.279-1.035-28.053"/>
			<path fill="none" stroke="#333333" d="M-644.292,265.271l-4.922-1.462l-0.719,4.313"/>
		</g>
		<g id="strawberryArrow_00000132809932901503608770000004600228198940924595_">
			<path fill="none" stroke="#333333" d="M-611.828,226.496c-7.115-1.309-13.292-0.198-18.529,3.333"/>
			<path fill="none" stroke="#333333" d="M-631.991,225.943l-1.597,5.519l5.815,1.393"/>
		</g>
		<g id="marcieArrow_00000114073792328374828820000011076030607483996841_">
			<path fill="none" stroke="#333333" d="M-671.598,207.258c-1.071,6.066,0.866,10.414,5.812,13.043"/>
			<path fill="none" stroke="#333333" d="M-664.459,217.948l1.046,4.572l-4.153,0.097"/>
		</g>
		<g id="marcieArrow_00000119827296650205990580000005103290476819986331_">
			<path fill="none" stroke="#333333" d="M-675.551,208.495c-5.71,11.837-6.032,23.209-0.966,34.115"/>
			<path fill="none" stroke="#333333" d="M-675.065,240.052l1.046,4.572l-4.153,0.097"/>
		</g>
		<g id="jaimieArrow_00000080204081387488007160000004776548533707175576_">
			<path fill="none" stroke="#333333" d="M151.606,258.81c-2.792,3.59-2.769,7.172,0.068,10.748"/>
			<path fill="none" stroke="#333333" d="M153.439,268.505l-0.718,3.398l-3.138-1.486"/>
		</g>
		<g id="greeneArrow_00000130607459281564579860000008482927147929919649_">
			<path fill="none" stroke="#333333" d="M174.806,540.545c-1.596,3.6-1.583,7.194,0.039,10.779"/>
			<path fill="none" stroke="#333333" d="M173.039,552.316l3.626,0.485l-0.345-3.467"/>
		</g>
		<g id="edmondsArrow_00000093174059924953622960000014161414973512010418_">
			<path fill="none" stroke="#333333" d="M78.796,470.714c-1.596,3.6-1.583,7.193,0.039,10.779"/>
			<path fill="none" stroke="#333333" d="M77.029,482.484l3.626,0.485l-0.345-3.467"/>
		</g>
		<g id="albertArrow_00000088827028128370397780000012851341817759246212_">
			<path fill="none" stroke="#333333" d="M118.688,515.788c-1.596,3.6-1.583,7.193,0.039,10.779"/>
			<path fill="none" stroke="#333333" d="M116.921,527.558l3.626,0.485l-0.345-3.467"/>
		</g>
		<g id="blueArrow_00000172431640915285761480000006834441947689058192_">
			<path fill="none" stroke="#333333" d="M162.73,325.591c-0.562,4.095-2.757,6.926-6.586,8.493"/>
			<path fill="none" stroke="#333333" d="M157.38,336.28l-3.987-2.452l2.457-2.472"/>
		</g>
		<g id="frostArrow_00000135687011092497750540000005231078318202084799_">
			<path fill="none" stroke="#333333" d="M141.126,53.741c2.255,4.556,2.237,9.102-0.055,13.64"/>
			<path fill="none" stroke="#333333" d="M144.552,64.678l-3.482,2.702l-1.82-4.014"/>
		</g>
		<g id="rodneyArrow_00000108272889181872690770000005562611209801066153_">
			<path fill="none" stroke="#333333" d="M126.484,424.156c-3.561,2.099-7.144,2.131-10.747,0.099"/>
			<path fill="none" stroke="#333333" d="M114.78,426.587l-0.548-4.648l3.463,0.395"/>
		</g>
		<g id="rodneyArrow2_00000136382502588130395570000013529022165355413926_">
			<path fill="none" stroke="#333333" d="M127.27,415.166c0.31-4.434-1.079-7.98-4.167-10.639"/>
			<path fill="none" stroke="#333333" d="M124.634,402.559l-4.021,1.504l1.692,3.24"/>
		</g>
		<g id="rodneyarrow3_00000077308226350244040620000005836947747198937217_">
			<path fill="none" stroke="#333333" d="M127.712,415.458c2.704-10.808,2.416-18.626-0.865-23.453"/>
			<path fill="none" stroke="#333333" d="M129.886,391.119l-4.115-1.222l-0.601,3.606"/>
		</g>
		<g id="strawberryArrow_00000043420369146780027040000014865703700503662008_">
			<path fill="none" stroke="#333333" d="M157.027,358.702c-5.948-1.095-11.112-0.166-15.491,2.787"/>
			<path fill="none" stroke="#333333" d="M140.171,358.24l-1.335,4.614l4.861,1.165"/>
		</g>
		<g id="marcieArrow_00000121272454560116845390000008066533270614171303_">
			<path fill="none" stroke="#333333" d="M107.057,342.619c-0.895,5.071,0.724,8.706,4.859,10.904"/>
			<path fill="none" stroke="#333333" d="M113.026,351.556l0.875,3.823l-3.472,0.081"/>
		</g>
		<g id="marcieArrow_00000143609763738664031200000012114196043508502167_">
			<path fill="none" stroke="#333333" d="M103.753,343.653c-4.774,9.896-5.043,19.403-0.807,28.521"/>
			<path fill="none" stroke="#333333" d="M104.159,370.035l0.875,3.823l-3.472,0.081"/>
		</g>
	</g>
</g>
<style>
#g-parks-ew-responsive-mobile-interactions-img rect, #g-parks-ew-responsive-mobile-interactions-img circle, #g-parks-ew-responsive-mobile-interactions-img path, #g-parks-ew-responsive-mobile-interactions-img line, #g-parks-ew-responsive-mobile-interactions-img polyline, #g-parks-ew-responsive-mobile-interactions-img polygon { vector-effect: non-scaling-stroke; }
</style>
</svg>

