<?xml version="1.0" encoding="utf-8"?>
<!-- Generator: Adobe Illustrator 26.3.1, SVG Export Plug-In . SVG Version: 6.00 Build 0)  -->
<svg version="1.2" baseProfile="tiny" id="g-parks-responsive3-large-interactions-img" xmlns="http://www.w3.org/2000/svg" xmlns:xlink="http://www.w3.org/1999/xlink"
	 x="0px" y="0px" viewBox="0 0 900 400" overflow="visible" xml:space="preserve">
<g>
	
		<path id="playground_00000124879206687590497170000013324496421340334253_" fill="#389B2A" fill-opacity="0.2" stroke="#888888" stroke-miterlimit="10" d="
		M739.706,181.843l-2.188-16.443l15.315-2.902l2.407,17.169L739.706,181.843z"/>
	
		<path id="greenePlayground_00000036970507746847414720000003949031649670121395_" fill="#389B2A" fill-opacity="0.2" stroke="#888888" stroke-miterlimit="10" d="
		M804.36,198.529l14.878-2.418l2.079,14.267l-14.878,2.781L804.36,198.529z"/>
	
		<path id="rodneyParkCenter_00000162346408209135913280000016722822820416537511_" fill="#389B2A" fill-opacity="0.2" stroke="#888888" stroke-miterlimit="10" d="
		M415.434,271.061l6.383,3.017l-3.191,6.383l-1.683-0.812l-3.191,7.021l-4.642-1.915L415.434,271.061z"/>
	
		<path id="rodneyPlaygroundNorth_00000155121070956060462400000002064005455586849184_" fill="#389B2A" fill-opacity="0.2" stroke="#888888" stroke-miterlimit="10" d="
		M445.933,211.27l10.386-21.236l4.004,0.696l-10.502,20.54H445.933z"/>
	
		<path id="rodneyPlaygroundCenter_00000016043322565525148910000003262554623078445489_" fill="#389B2A" fill-opacity="0.2" stroke="#888888" stroke-miterlimit="10" d="
		M437.056,227.553l2.959-6.441l6.441-0.754l-4.526,9.574L437.056,227.553z"/>
	
		<path id="rodneyParkSouth_00000172440255333663281620000010449702151930139047_" fill="#389B2A" fill-opacity="0.2" stroke="#888888" stroke-miterlimit="10" d="
		M406.332,293.264l5.976,1.335l-3.017,7.891l-1.335,7.137l-7.311-0.812L406.332,293.264z"/>
	
		<path id="rodneyParkNorth_00000000219872520384441910000018021229838959175825_" fill="#389B2A" fill-opacity="0.2" stroke="#888888" stroke-miterlimit="10" d="
		M419.2,265.058l6.208-13.577l6.15,2.843l-6.266,13.577L419.2,265.058z"/>
	
		<path id="strawberryPlayground_00000089546315304356429340000003156118855045266868_" fill="#389B2A" fill-opacity="0.2" stroke="#888888" stroke-miterlimit="10" d="
		M434.798,245.699l-5.802-3.191l6.15-12.011l5.686,2.959L434.798,245.699z"/>
	
		<path id="marcyGreenNorth_00000059992710283915158680000010218713529682843284_" fill="#389B2A" fill-opacity="0.2" stroke="#888888" stroke-miterlimit="10" d="
		M419.66,238.024l-6.023-3.104l5.606-12.741l5.004,5.56L419.66,238.024z"/>
	
		<path id="marcyGreenCenter_00000116207904508101500030000015417889452905471621_" fill="#389B2A" fill-opacity="0.2" stroke="#888888" stroke-miterlimit="10" d="
		M402.88,258.148l8.701-19.657l6.35,3.216l-9.038,19.955L402.88,258.148z"/>
	
		<path id="jaimiePlayground_00000038405562735126678660000004452818406801469107_" fill="#389B2A" fill-opacity="0.2" stroke="#888888" stroke-miterlimit="10" d="
		M455.475,150.351l15.154-32.359h14.452l-27.279,33.098L455.475,150.351z"/>
	
		<path id="frostPlayground_00000064318845009927015440000001884660118923344568_" fill="#389B2A" fill-opacity="0.2" stroke="#888888" stroke-miterlimit="10" d="
		M126.723,161.705l-4.704-10.647l17.827-7.18l4.209,11.885L126.723,161.705z"/>
	
		<path id="edmondPlayground_00000050643052703260137030000017417585026333731222_" fill="#389B2A" fill-opacity="0.2" stroke="#888888" stroke-miterlimit="10" d="
		M692.119,124.896l-2.188-13.542l14.987,1.33l2.188,16.564l-7.986,1.935l-1.422-6.892L692.119,124.896z"/>
	
		<path id="underwoodPark_00000052804405393652030160000004272331977632824223_" fill="#389B2A" fill-opacity="0.2" stroke="#888888" stroke-miterlimit="10" d="
		M797.686,149.199l-3.61-20.071l15.972-2.297l2.407,18.62L797.686,149.199z"/>
	
		<path id="cooper_00000097459232833249002560000001071219586258921602_" fill="#389B2A" fill-opacity="0.2" stroke="#888888" stroke-miterlimit="10" d="
		M134.646,234.995l59.424-22.532l16.342,46.549l-68.586-2.971L134.646,234.995z"/>
	
		<path id="commGarden_00000148627228879061477230000014503756462727479429_" fill="#389B2A" fill-opacity="0.2" stroke="#888888" stroke-miterlimit="10" d="
		M705.575,227.788l-0.656-6.771l7.001-1.209l1.75,6.529L705.575,227.788z"/>
	
		<path id="keapFourthCommGarden_00000117659445072461450400000009232172776155716750_" fill="#389B2A" fill-opacity="0.2" stroke="#888888" stroke-miterlimit="10" d="
		M454.961,259.806l1.794-4.208l5.285,2.349l-2.452,4.025L454.961,259.806z"/>
	
		<path id="redShed_00000143591794852381906890000001435755165539022485_" fill="#389B2A" fill-opacity="0.2" stroke="#888888" stroke-miterlimit="10" d="
		M103.944,241.928l-2.724-14.361l4.952-0.248l2.476,12.132L103.944,241.928z"/>
	
		<path id="orientGrove_00000055667588054851111870000000868698663900275589_" fill="#389B2A" fill-opacity="0.2" stroke="#888888" stroke-miterlimit="10" d="
		M94.04,274.364l13.866-5.447l0.495,6.685L94.04,274.364z"/>
	
		<path id="macriTriangle_00000139286154751083625990000013650341139365155511_" fill="#389B2A" fill-opacity="0.2" stroke="#888888" stroke-miterlimit="10" d="
		M508.735,111.386l13.113-16.188l3.017,16.188H508.735z"/>
	
		<path id="memorialGore_00000152980584110420239620000002471948518197980853_" fill="#389B2A" fill-opacity="0.2" stroke="#888888" stroke-miterlimit="10" d="
		M53.681,272.383l7.513-8.397l2.21,7.071L53.681,272.383z"/>
	
		<path id="cuylerGore_00000137835186978045181760000016031201312553255584_" fill="#389B2A" fill-opacity="0.2" stroke="#888888" stroke-miterlimit="10" d="
		M675.162,222.71l-0.219-3.144l24.067-2.66l1.313,19.587L675.162,222.71z"/>
	<g id="underwoodArrow_00000136379410413832364810000014613895891875485091_">
		<path fill="none" stroke="#333333" d="M818.338,117.968c1.81,4.294,1.796,8.579-0.044,12.856"/>
		<path fill="none" stroke="#333333" d="M820.342,132.005l-4.113,0.579l0.392-4.135"/>
	</g>
	<g id="cooperArrow_00000076596202922686140480000007408958681584839100_">
		<path fill="none" stroke="#333333" d="M203.474,199.535c2.691,5.436,2.669,10.862-0.066,16.276"/>
		<path fill="none" stroke="#333333" d="M207.563,212.586l-4.155,3.224l-2.172-4.789"/>
	</g>
	<g id="macriArrow_00000151513235076047622330000014630369173761167255_">
		<path fill="none" stroke="#333333" d="M520.855,130.407c-3.313-3.67-4.21-7.861-2.691-12.571"/>
		<path fill="none" stroke="#333333" d="M515.437,118.063l3.791-3.516l0.973,4.482"/>
	</g>
	<g id="memorialArrow_00000025438881188112139270000017028904632841692559_">
		<path fill="none" stroke="#333333" d="M42.765,250.034c0.723,6.057,3.759,10.554,9.108,13.489"/>
		<path fill="none" stroke="#333333" d="M46.528,263.22l5.345,0.303l-0.807-5.223"/>
	</g>
	<g id="cuylerArrow_00000005963670109494205950000006810521076700441991_">
		<path fill="none" stroke="#333333" d="M669.925,204.189c-1.903,4.294-1.888,8.579,0.046,12.856"/>
		<path fill="none" stroke="#333333" d="M667.818,218.227l4.324,0.579l-0.412-4.135"/>
	</g>
	<g id="brooklynGarden_00000054224270564673306310000016090997458837155997_">
		<path fill="none" stroke="#333333" d="M731.526,231.19c-1.589-4.574-4.703-7.518-9.343-8.835"/>
		<path fill="none" stroke="#333333" d="M723.046,219.719l-3.871,3.257l3.322,2.506"/>
	</g>
	<g id="keapArrow_00000131350207521844287760000016527175228007270537_">
		<path fill="none" stroke="#333333" d="M474.347,271.715c-4.772,1.293-8.915,0.196-12.428-3.29"/>
		<path fill="none" stroke="#333333" d="M460.078,270.812l0.84-5.535l3.869,1.553"/>
	</g>
	<g id="redArrow_00000156577664644791929040000005421026673724188295_">
		<path fill="none" stroke="#333333" d="M87.541,212.48c0.835,6.208,4.153,10.5,9.955,12.877"/>
		<path fill="none" stroke="#333333" d="M91.722,225.717l5.774-0.36l-0.918-5.33"/>
	</g>
	<g id="orientArrow_00000074401882175942697460000006187279826062431135_">
		<path fill="none" stroke="#333333" d="M106.347,297.213c2.825-5.407,2.859-10.832,0.103-16.276"/>
		<path fill="none" stroke="#333333" d="M110.69,284.206l-4.24-3.269l-2.285,4.766"/>
	</g>
	<g id="jaimieArrow_00000091729902284575028100000010225555821011692726_">
		<path fill="none" stroke="#333333" d="M459.275,109.839c-3.339,4.294-3.312,8.579,0.081,12.856"/>
		<path fill="none" stroke="#333333" d="M461.467,121.435l-0.858,4.064l-3.754-1.778"/>
	</g>
	<g id="greeneArrow_00000124125323813188377020000004961967961566030501_">
		<path fill="none" stroke="#333333" d="M798.693,185.907c-1.903,4.294-1.888,8.579,0.046,12.856"/>
		<path fill="none" stroke="#333333" d="M796.586,199.945l4.324,0.579l-0.412-4.135"/>
	</g>
	<g id="edmondsArrow_00000145746228268047888330000006404517791128991878_">
		<path fill="none" stroke="#333333" d="M684.189,102.625c-1.903,4.294-1.888,8.579,0.046,12.856"/>
		<path fill="none" stroke="#333333" d="M682.082,116.663l4.324,0.579l-0.412-4.135"/>
	</g>
	<g id="albertArrow_00000028325192395150539580000011593117743754819737_">
		<path fill="none" stroke="#333333" d="M731.766,156.381c-1.903,4.294-1.888,8.579,0.046,12.856"/>
		<path fill="none" stroke="#333333" d="M729.658,170.418l4.324,0.579l-0.412-4.135"/>
	</g>
	<g id="blueArrow_00000034086040554564677720000003103184944616567727_">
		<path fill="none" stroke="#333333" d="M472.581,189.717c-0.672,4.898-3.298,8.285-7.878,10.159"/>
		<path fill="none" stroke="#333333" d="M466.182,202.503l-4.769-2.933l2.939-2.957"/>
	</g>
	<g id="frostArrow_00000171719759130996190460000015727831627499196820_">
		<path fill="none" stroke="#333333" d="M133.302,125.686c2.691,5.436,2.669,10.862-0.066,16.276"/>
		<path fill="none" stroke="#333333" d="M137.391,138.738l-4.155,3.224l-2.172-4.789"/>
	</g>
	<g id="rodneyArrow_00000049222751120713726760000015506008855103733898_">
		<path fill="none" stroke="#333333" d="M429.225,307.614c-4.26,2.51-8.545,2.549-12.855,0.118"/>
		<path fill="none" stroke="#333333" d="M415.227,310.522l-0.656-5.56l4.142,0.473"/>
	</g>
	<g id="rodneyArrow2_00000035490468892328841590000018077675530542463161_">
		<path fill="none" stroke="#333333" d="M430.166,296.862c0.371-5.304-1.29-9.546-4.984-12.726"/>
		<path fill="none" stroke="#333333" d="M427.013,281.781l-4.809,1.799l2.024,3.876"/>
	</g>
	<g id="rodneyarrow3_00000059274344222209211420000007584150920524964269_">
		<path fill="none" stroke="#333333" d="M430.695,297.211c3.235-12.928,2.89-22.279-1.035-28.053"/>
		<path fill="none" stroke="#333333" d="M433.295,268.098l-4.922-1.462l-0.719,4.313"/>
	</g>
	<g id="strawberryArrow_00000129189914613893720960000008499506414935180167_">
		<path fill="none" stroke="#333333" d="M465.76,229.323c-7.115-1.309-13.292-0.198-18.529,3.333"/>
		<path fill="none" stroke="#333333" d="M445.597,228.77L444,234.288l5.815,1.393"/>
	</g>
	<g id="marcieArrow_00000155848570528171267870000009044300944113701040_">
		<path fill="none" stroke="#333333" d="M405.989,210.085c-1.071,6.066,0.866,10.414,5.812,13.043"/>
		<path fill="none" stroke="#333333" d="M413.128,220.774l1.046,4.572l-4.153,0.097"/>
	</g>
	<g id="marcieArrow_00000109021840749228246130000010472119394832700337_">
		<path fill="none" stroke="#333333" d="M402.037,211.322c-5.71,11.837-6.032,23.209-0.966,34.115"/>
		<path fill="none" stroke="#333333" d="M402.522,242.879l1.046,4.572l-4.153,0.097"/>
	</g>
</g>
<style>
#g-parks-responsive3-large-interactions-img rect, #g-parks-responsive3-large-interactions-img circle, #g-parks-responsive3-large-interactions-img path, #g-parks-responsive3-large-interactions-img line, #g-parks-responsive3-large-interactions-img polyline, #g-parks-responsive3-large-interactions-img polygon { vector-effect: non-scaling-stroke; }
</style>
</svg>

