<?xml version="1.0" encoding="utf-8"?>
<!-- Generator: Adobe Illustrator 26.3.1, SVG Export Plug-In . SVG Version: 6.00 Build 0)  -->
<svg version="1.2" baseProfile="tiny" id="g-parks-responsive3-mobile-interactions-img" xmlns="http://www.w3.org/2000/svg" xmlns:xlink="http://www.w3.org/1999/xlink"
	 x="0px" y="0px" viewBox="0 0 272.392 667" overflow="visible" xml:space="preserve">
<g>
	
		<path id="playground_00000016792883844432904430000004441942316949711011_" fill="#389B2A" fill-opacity="0.2" stroke="#888888" stroke-miterlimit="10" d="
		M125.346,537.138l-1.835-13.787l12.842-2.433l2.018,14.396L125.346,537.138z"/>
	
		<path id="greenePlayground_00000023982627393974060650000012482525664655578549_" fill="#389B2A" fill-opacity="0.2" stroke="#888888" stroke-miterlimit="10" d="
		M179.557,551.128l12.475-2.028l1.743,11.963l-12.475,2.332L179.557,551.128z"/>
	
		<path id="rodneyParkCenter_00000131334500093954626880000017199953777090262159_" fill="#389B2A" fill-opacity="0.2" stroke="#888888" stroke-miterlimit="10" d="
		M114.954,393.597l5.336,2.522l-2.668,5.336l-1.407-0.679l-2.668,5.87l-3.881-1.601L114.954,393.597z"/>
	
		<path id="rodneyPlaygroundNorth_00000075846505034486690250000014839868283977499268_" fill="#389B2A" fill-opacity="0.2" stroke="#888888" stroke-miterlimit="10" d="
		M140.452,343.609l8.683-17.754l3.347,0.582l-8.78,17.172H140.452z"/>
	
		<path id="rodneyPlaygroundCenter_00000057112559338768194960000008276091700682649004_" fill="#389B2A" fill-opacity="0.2" stroke="#888888" stroke-miterlimit="10" d="
		M133.03,357.223l2.474-5.384l5.384-0.631l-3.784,8.004L133.03,357.223z"/>
	
		<path id="rodneyParkSouth_00000062870964718228328770000018110607341350412987_" fill="#389B2A" fill-opacity="0.2" stroke="#888888" stroke-miterlimit="10" d="
		M107.344,412.158l4.996,1.116l-2.522,6.597l-1.116,5.967l-6.112-0.679L107.344,412.158z"/>
	
		<path id="rodneyParkNorth_00000044164778154054559600000001182471171293739655_" fill="#389B2A" fill-opacity="0.2" stroke="#888888" stroke-miterlimit="10" d="
		M118.103,388.578l5.19-11.351l5.142,2.377l-5.239,11.351L118.103,388.578z"/>
	
		<path id="strawberryPlayground_00000116925962471126749960000003930010806530256045_" fill="#389B2A" fill-opacity="0.2" stroke="#888888" stroke-miterlimit="10" d="
		M131.143,372.393l-4.851-2.668l5.142-10.041l4.754,2.474L131.143,372.393z"/>
	
		<path id="marcyGreenNorth_00000075858619304202472220000003596306139762460597_" fill="#389B2A" fill-opacity="0.2" stroke="#888888" stroke-miterlimit="10" d="
		M118.487,365.976l-5.035-2.595l4.687-10.652l4.183,4.648L118.487,365.976z"/>
	
		<path id="marcyGreenCenter_00000121246109277938043230000009524883042802460082_" fill="#389B2A" fill-opacity="0.2" stroke="#888888" stroke-miterlimit="10" d="
		M104.458,382.8l7.274-16.433l5.309,2.688l-7.556,16.683L104.458,382.8z"/>
	
		<path id="jaimiePlayground_00000181767500628758245370000009825334898466411958_" fill="#389B2A" fill-opacity="0.2" stroke="#888888" stroke-miterlimit="10" d="
		M148.429,292.68l12.669-27.053h12.082l-22.806,27.671L148.429,292.68z"/>
	
		<path id="frostPlayground_00000064337705290952557650000012857765053682577034_" fill="#389B2A" fill-opacity="0.2" stroke="#888888" stroke-miterlimit="10" d="
		M135.613,83.925l-3.942-8.922l14.94-6.017l3.527,9.96L135.613,83.925z"/>
	
		<path id="edmondPlayground_00000133491432777000078970000006556652604765353856_" fill="#389B2A" fill-opacity="0.2" stroke="#888888" stroke-miterlimit="10" d="
		M85.444,489.388l-1.835-11.354l12.567,1.115l1.835,13.889l-6.696,1.622l-1.192-5.779L85.444,489.388z"/>
	
		<path id="underwoodPark_00000101801413195939205260000005677335789658824340_" fill="#389B2A" fill-opacity="0.2" stroke="#888888" stroke-miterlimit="10" d="
		M173.962,509.765l-3.027-16.829l13.392-1.926l2.018,15.612L173.962,509.765z"/>
	
		<path id="cooper_00000077294861376704129880000016387447268921000895_" fill="#389B2A" fill-opacity="0.2" stroke="#888888" stroke-miterlimit="10" d="
		M142.253,145.343l49.798-18.882l13.695,39.009l-57.476-2.49L142.253,145.343z"/>
	
		<path id="commGarden_00000040572414357019846610000006636725361106986917_" fill="#389B2A" fill-opacity="0.2" stroke="#888888" stroke-miterlimit="10" d="
		M96.727,575.662l-0.55-5.677l5.871-1.014l1.468,5.474L96.727,575.662z"/>
	
		<path id="keapFourthCommGarden_00000134233179910276449910000012781970715529953152_" fill="#389B2A" fill-opacity="0.2" stroke="#888888" stroke-miterlimit="10" d="
		M147.999,384.187l1.5-3.518l4.418,1.964l-2.05,3.365L147.999,384.187z"/>
	
		<path id="redShed_00000026854523554669531810000013033878021317736378_" fill="#389B2A" fill-opacity="0.2" stroke="#888888" stroke-miterlimit="10" d="
		M116.523,151.153l-2.282-12.035l4.15-0.208l2.075,10.167L116.523,151.153z"/>
	
		<path id="orientGrove_00000021087119485899911140000001363862726332651666_" fill="#389B2A" fill-opacity="0.2" stroke="#888888" stroke-miterlimit="10" d="
		M108.224,178.335l11.62-4.565l0.415,5.602L108.224,178.335z"/>
	
		<path id="cuylerGore_00000111189867671292711180000000720288958346226828_" fill="#389B2A" fill-opacity="0.2" stroke="#888888" stroke-miterlimit="10" d="
		M71.226,571.404l-0.183-2.636l20.18-2.23l1.101,16.423L71.226,571.404z"/>
	
		<path id="macriTriangle_00000022529276908277965110000015210545088820458628_" fill="#389B2A" fill-opacity="0.2" stroke="#888888" stroke-miterlimit="10" d="
		M192.956,260.104l10.963-13.534l2.522,13.534H192.956z"/>
	
		<path id="memorialGore_00000032635282076370470130000008347785399111538353_" fill="#389B2A" fill-opacity="0.2" stroke="#888888" stroke-miterlimit="10" d="
		M74.402,176.675l6.296-7.037l1.852,5.926L74.402,176.675z"/>
	<g id="underwoodArrow_00000134960773370394185770000003680460125966137235_">
		<path fill="none" stroke="#333333" d="M191.277,483.579c1.518,3.6,1.506,7.194-0.037,10.779"/>
		<path fill="none" stroke="#333333" d="M192.958,495.349l-3.449,0.485l0.328-3.467"/>
	</g>
	<g id="cooperArrow_00000127738814047873175700000008746943532151876287_">
		<path fill="none" stroke="#333333" d="M199.931,115.627c2.255,4.556,2.237,9.102-0.055,13.64"/>
		<path fill="none" stroke="#333333" d="M203.358,126.564l-3.482,2.702l-1.82-4.014"/>
	</g>
	<g id="cuylerArrow_00000149352177816221573040000003191007346116652431_">
		<path fill="none" stroke="#333333" d="M66.835,555.874c-1.596,3.6-1.583,7.193,0.039,10.779"/>
		<path fill="none" stroke="#333333" d="M65.068,567.645l3.626,0.485l-0.345-3.467"/>
	</g>
	<g id="macriArrow_00000082334066273053688310000001489263087351290274_">
		<path fill="none" stroke="#333333" d="M203.088,276.006c-2.769-3.068-3.519-6.572-2.25-10.51"/>
		<path fill="none" stroke="#333333" d="M198.558,265.687l3.169-2.939l0.813,3.747"/>
	</g>
	<g id="memorialArrow_00000087387860523857685750000011778783298349552018_">
		<path fill="none" stroke="#333333" d="M65.254,157.946c0.606,5.076,3.15,8.844,7.633,11.304"/>
		<path fill="none" stroke="#333333" d="M68.408,168.996l4.479,0.254l-0.676-4.377"/>
	</g>
	<g id="brooklynGarden_00000075861245609935072150000015063577731713089952_">
		<path fill="none" stroke="#333333" d="M118.486,578.515c-1.332-3.835-3.944-6.304-7.834-7.408"/>
		<path fill="none" stroke="#333333" d="M111.377,568.896l-3.246,2.731l2.786,2.101"/>
	</g>
	<g id="keapArrow_00000026143573765589820550000016816247366632526001_">
		<path fill="none" stroke="#333333" d="M164.207,394.143c-3.99,1.081-7.453,0.164-10.39-2.751"/>
		<path fill="none" stroke="#333333" d="M152.277,393.388l0.702-4.627l3.235,1.298"/>
	</g>
	<g id="redArrow_00000154394698349671938300000015272731965711705485_">
		<path fill="none" stroke="#333333" d="M102.778,126.475c0.699,5.202,3.48,8.799,8.342,10.791"/>
		<path fill="none" stroke="#333333" d="M106.281,137.568l4.839-0.302l-0.769-4.466"/>
	</g>
	<g id="orientArrow_00000150811645917930592940000006009116428225319598_">
		<path fill="none" stroke="#333333" d="M118.537,197.483c2.367-4.531,2.396-9.078,0.087-13.64"/>
		<path fill="none" stroke="#333333" d="M122.177,186.583l-3.553-2.74l-1.915,3.994"/>
	</g>
	<g id="jaimieArrow_00000170245377761665326750000009816274717937539214_">
		<path fill="none" stroke="#333333" d="M151.606,258.81c-2.792,3.59-2.769,7.172,0.068,10.748"/>
		<path fill="none" stroke="#333333" d="M153.439,268.505l-0.718,3.398l-3.138-1.486"/>
	</g>
	<g id="greeneArrow_00000065042824296160165890000015417447641219199622_">
		<path fill="none" stroke="#333333" d="M174.806,540.545c-1.596,3.6-1.583,7.194,0.039,10.779"/>
		<path fill="none" stroke="#333333" d="M173.039,552.316l3.626,0.485l-0.345-3.467"/>
	</g>
	<g id="edmondsArrow_00000063613312823756514660000017621530734890214332_">
		<path fill="none" stroke="#333333" d="M78.796,470.714c-1.596,3.6-1.583,7.193,0.039,10.779"/>
		<path fill="none" stroke="#333333" d="M77.029,482.484l3.626,0.485l-0.345-3.467"/>
	</g>
	<g id="albertArrow_00000147210399021119100540000009437756370957244853_">
		<path fill="none" stroke="#333333" d="M118.688,515.788c-1.596,3.6-1.583,7.193,0.039,10.779"/>
		<path fill="none" stroke="#333333" d="M116.921,527.558l3.626,0.485l-0.345-3.467"/>
	</g>
	<g id="blueArrow_00000178905160639076367530000015597264172326315933_">
		<path fill="none" stroke="#333333" d="M162.73,325.591c-0.562,4.095-2.757,6.926-6.586,8.493"/>
		<path fill="none" stroke="#333333" d="M157.38,336.28l-3.987-2.452l2.457-2.472"/>
	</g>
	<g id="frostArrow_00000057848307911130604220000008069156202531189920_">
		<path fill="none" stroke="#333333" d="M141.126,53.741c2.255,4.556,2.237,9.102-0.055,13.64"/>
		<path fill="none" stroke="#333333" d="M144.552,64.678l-3.482,2.702l-1.82-4.014"/>
	</g>
	<g id="rodneyArrow_00000078733812318358178070000010985941512450055582_">
		<path fill="none" stroke="#333333" d="M126.484,424.156c-3.561,2.099-7.144,2.131-10.747,0.099"/>
		<path fill="none" stroke="#333333" d="M114.78,426.587l-0.548-4.648l3.463,0.395"/>
	</g>
	<g id="rodneyArrow2_00000019678373130426168550000018396156598255724947_">
		<path fill="none" stroke="#333333" d="M127.27,415.166c0.31-4.434-1.079-7.98-4.167-10.639"/>
		<path fill="none" stroke="#333333" d="M124.634,402.559l-4.021,1.504l1.692,3.24"/>
	</g>
	<g id="rodneyarrow3_00000106131560402429751780000006670111664286219415_">
		<path fill="none" stroke="#333333" d="M127.712,415.458c2.704-10.808,2.416-18.626-0.865-23.453"/>
		<path fill="none" stroke="#333333" d="M129.886,391.119l-4.115-1.222l-0.601,3.606"/>
	</g>
	<g id="strawberryArrow_00000155845416056287135720000002141261745837903277_">
		<path fill="none" stroke="#333333" d="M157.027,358.702c-5.948-1.095-11.112-0.166-15.491,2.787"/>
		<path fill="none" stroke="#333333" d="M140.171,358.24l-1.335,4.614l4.861,1.165"/>
	</g>
	<g id="marcieArrow_00000079471385385739305870000010163022561953881518_">
		<path fill="none" stroke="#333333" d="M107.057,342.619c-0.895,5.071,0.724,8.706,4.859,10.904"/>
		<path fill="none" stroke="#333333" d="M113.026,351.556l0.875,3.823l-3.472,0.081"/>
	</g>
	<g id="marcieArrow_00000161632580782120045850000012031538113658197912_">
		<path fill="none" stroke="#333333" d="M103.753,343.653c-4.774,9.896-5.043,19.403-0.807,28.521"/>
		<path fill="none" stroke="#333333" d="M104.159,370.035l0.875,3.823l-3.472,0.081"/>
	</g>
</g>
<style>
#g-parks-responsive3-mobile-interactions-img rect, #g-parks-responsive3-mobile-interactions-img circle, #g-parks-responsive3-mobile-interactions-img path, #g-parks-responsive3-mobile-interactions-img line, #g-parks-responsive3-mobile-interactions-img polyline, #g-parks-responsive3-mobile-interactions-img polygon { vector-effect: non-scaling-stroke; }
</style>
</svg>

