<?xml version="1.0" encoding="utf-8"?>
<!-- Generator: Adobe Illustrator 26.3.1, SVG Export Plug-In . SVG Version: 6.00 Build 0)  -->
<svg version="1.2" baseProfile="tiny" id="g-parks-ew-Artboard_1-interactions-img" xmlns="http://www.w3.org/2000/svg" xmlns:xlink="http://www.w3.org/1999/xlink"
	 x="0px" y="0px" viewBox="0 0 900 400" overflow="visible" xml:space="preserve">
<g>
	<g id="playgroundLots_00000125568423791176210150000003839928218564570535_">
		
			<path id="playground_00000012456943941122459790000011343989334873931911_" fill="#389B2A" fill-opacity="0.2" stroke="#888888" stroke-miterlimit="10" d="
			M739.706,181.843l-2.188-16.443l15.315-2.902l2.407,17.169L739.706,181.843z"/>
		
			<path id="greenePlayground_00000018223112171431628860000017035847704138376099_" fill="#389B2A" fill-opacity="0.2" stroke="#888888" stroke-miterlimit="10" d="
			M804.36,198.529l14.878-2.418l2.079,14.267l-14.878,2.781L804.36,198.529z"/>
		
			<path id="rodneyParkCenter_00000093141834314914568280000007770999101844017034_" fill="#389B2A" fill-opacity="0.2" stroke="#888888" stroke-miterlimit="10" d="
			M415.434,271.061l6.383,3.017l-3.191,6.383l-1.683-0.812l-3.191,7.021l-4.642-1.915L415.434,271.061z"/>
		
			<path id="rodneyPlaygroundNorth_00000089555331750973455000000013663152355696869255_" fill="#389B2A" fill-opacity="0.2" stroke="#888888" stroke-miterlimit="10" d="
			M445.933,211.27l10.386-21.236l4.004,0.696l-10.502,20.54H445.933z"/>
		
			<path id="rodneyPlaygroundCenter_00000015352709288111243980000000209411434207769749_" fill="#389B2A" fill-opacity="0.2" stroke="#888888" stroke-miterlimit="10" d="
			M437.056,227.553l2.959-6.441l6.441-0.754l-4.526,9.574L437.056,227.553z"/>
		
			<path id="rodneyParkSouth_00000112593951411498405620000016121513095567103908_" fill="#389B2A" fill-opacity="0.2" stroke="#888888" stroke-miterlimit="10" d="
			M406.332,293.264l5.976,1.335l-3.017,7.891l-1.335,7.137l-7.311-0.812L406.332,293.264z"/>
		
			<path id="rodneyParkNorth_00000055672015686660640480000011151853553018203540_" fill="#389B2A" fill-opacity="0.2" stroke="#888888" stroke-miterlimit="10" d="
			M419.2,265.058l6.208-13.577l6.15,2.843l-6.266,13.577L419.2,265.058z"/>
		
			<path id="strawberryPlayground_00000031190821775393764330000008058501691571953086_" fill="#389B2A" fill-opacity="0.2" stroke="#888888" stroke-miterlimit="10" d="
			M434.798,245.699l-5.802-3.191l6.15-12.011l5.686,2.959L434.798,245.699z"/>
		
			<path id="marcyGreenNorth_00000142169470719524301330000015232608389980090805_" fill="#389B2A" fill-opacity="0.2" stroke="#888888" stroke-miterlimit="10" d="
			M419.66,238.024l-6.023-3.104l5.606-12.741l5.004,5.56L419.66,238.024z"/>
		
			<path id="marcyGreenCenter_00000116211371846117983930000015929574695926673335_" fill="#389B2A" fill-opacity="0.2" stroke="#888888" stroke-miterlimit="10" d="
			M402.88,258.148l8.701-19.657l6.35,3.216l-9.038,19.955L402.88,258.148z"/>
		
			<path id="jaimiePlayground_00000052819704122256882750000008167712370797712539_" fill="#389B2A" fill-opacity="0.2" stroke="#888888" stroke-miterlimit="10" d="
			M455.475,150.351l15.154-32.359h14.452l-27.279,33.098L455.475,150.351z"/>
		
			<path id="frostPlayground_00000176739813145222946940000011721281378405177240_" fill="#389B2A" fill-opacity="0.2" stroke="#888888" stroke-miterlimit="10" d="
			M126.723,161.705l-4.704-10.647l17.827-7.18l4.209,11.885L126.723,161.705z"/>
		
			<path id="edmondPlayground_00000083806828606871565860000008752586218737052312_" fill="#389B2A" fill-opacity="0.2" stroke="#888888" stroke-miterlimit="10" d="
			M692.119,124.896l-2.188-13.542l14.987,1.33l2.188,16.564l-7.986,1.935l-1.422-6.892L692.119,124.896z"/>
	</g>
	<g id="parkLots_00000060023897811173818940000000935973283739393947_">
		
			<path id="underwoodPark_00000091696937789025419660000001888366846257404844_" fill="#389B2A" fill-opacity="0.2" stroke="#888888" stroke-miterlimit="10" d="
			M797.686,149.199l-3.61-20.071l15.972-2.297l2.407,18.62L797.686,149.199z"/>
		
			<path id="cooper_00000110436013604640220850000012478453438165975483_" fill="#389B2A" fill-opacity="0.2" stroke="#888888" stroke-miterlimit="10" d="
			M134.646,234.995l59.424-22.532l16.342,46.549l-68.586-2.971L134.646,234.995z"/>
	</g>
	<g id="commLots_00000172409980354991998790000002942076127420418751_">
		
			<path id="commGarden_00000116923038355081314370000008179966625954054312_" fill="#389B2A" fill-opacity="0.2" stroke="#888888" stroke-miterlimit="10" d="
			M705.575,227.788l-0.656-6.771l7.001-1.209l1.75,6.529L705.575,227.788z"/>
		
			<path id="keapFourthCommGarden_00000112624621920728137070000009689186072236534457_" fill="#389B2A" fill-opacity="0.2" stroke="#888888" stroke-miterlimit="10" d="
			M454.961,259.806l1.794-4.208l5.285,2.349l-2.452,4.025L454.961,259.806z"/>
		
			<path id="redShed_00000166642573233592857850000005917741546628342698_" fill="#389B2A" fill-opacity="0.2" stroke="#888888" stroke-miterlimit="10" d="
			M103.944,241.928l-2.724-14.361l4.952-0.248l2.476,12.132L103.944,241.928z"/>
		
			<path id="orientGrove_00000086683211364932329900000017859847686689761159_" fill="#389B2A" fill-opacity="0.2" stroke="#888888" stroke-miterlimit="10" d="
			M94.04,274.364l13.866-5.447l0.495,6.685L94.04,274.364z"/>
	</g>
	<g id="trianglesLots_00000155116296704846898730000015727500017717379740_">
		
			<path id="cuylerGore_00000083061284464298867920000009078280745631135382_" fill="#389B2A" fill-opacity="0.2" stroke="#888888" stroke-miterlimit="10" d="
			M675.162,222.71l-0.219-3.144l24.067-2.66l1.313,19.587L675.162,222.71z"/>
		
			<path id="macriTriangle_00000110429366753651975280000003129382622159095436_" fill="#389B2A" fill-opacity="0.2" stroke="#888888" stroke-miterlimit="10" d="
			M508.735,111.386l13.113-16.188l3.017,16.188H508.735z"/>
		
			<path id="memorialGore_00000072266856353087301460000002793642994206727605_" fill="#389B2A" fill-opacity="0.2" stroke="#888888" stroke-miterlimit="10" d="
			M53.681,272.383l7.513-8.397l2.21,7.071L53.681,272.383z"/>
	</g>
	<g id="parkArrows_00000164490442826164248530000011755312330346389169_">
		<g id="underwoodArrow_00000016075627263785238770000014071073313573419447_">
			<path fill="none" stroke="#333333" d="M818.338,117.968c1.81,4.294,1.796,8.579-0.044,12.856"/>
			<path fill="none" stroke="#333333" d="M820.342,132.005l-4.113,0.579l0.392-4.135"/>
		</g>
		<g id="cooperArrow_00000181087043326909489250000016078419771994593432_">
			<path fill="none" stroke="#333333" d="M203.474,199.535c2.691,5.436,2.669,10.862-0.066,16.276"/>
			<path fill="none" stroke="#333333" d="M207.563,212.586l-4.155,3.224l-2.172-4.789"/>
		</g>
	</g>
	<g id="triangleArrows_00000119802407504696100860000002056181988933398952_">
		<g id="cuylerArrow_00000037683240555357150550000002759068838057436562_">
			<path fill="none" stroke="#333333" d="M669.925,204.189c-1.903,4.294-1.888,8.579,0.046,12.856"/>
			<path fill="none" stroke="#333333" d="M667.818,218.227l4.324,0.579l-0.412-4.135"/>
		</g>
		<g id="macriArrow_00000013905468302993011710000007210669056110163123_">
			<path fill="none" stroke="#333333" d="M520.855,130.407c-3.313-3.67-4.21-7.861-2.691-12.571"/>
			<path fill="none" stroke="#333333" d="M515.437,118.063l3.791-3.516l0.973,4.482"/>
		</g>
		<g id="memorialArrow_00000103987313248414542790000004671597687087359874_">
			<path fill="none" stroke="#333333" d="M42.765,250.034c0.723,6.057,3.759,10.554,9.108,13.489"/>
			<path fill="none" stroke="#333333" d="M46.528,263.22l5.345,0.303l-0.807-5.223"/>
		</g>
	</g>
	<g id="commArrows_00000013173741633891707000000013293934540508027326_">
		<g id="brooklynGarden_00000056391166651106380020000011775384701087911813_">
			<path fill="none" stroke="#333333" d="M731.526,231.19c-1.589-4.574-4.703-7.518-9.343-8.835"/>
			<path fill="none" stroke="#333333" d="M723.046,219.719l-3.871,3.257l3.322,2.506"/>
		</g>
		<g id="keapArrow_00000163039931111306675740000005317288098850278840_">
			<path fill="none" stroke="#333333" d="M474.347,271.715c-4.772,1.293-8.915,0.196-12.428-3.29"/>
			<path fill="none" stroke="#333333" d="M460.078,270.812l0.84-5.535l3.869,1.553"/>
		</g>
		<g id="redArrow_00000121962725319231978580000001585139899755653003_">
			<path fill="none" stroke="#333333" d="M87.541,212.48c0.835,6.208,4.153,10.5,9.955,12.877"/>
			<path fill="none" stroke="#333333" d="M91.722,225.717l5.774-0.36l-0.918-5.33"/>
		</g>
		<g id="orientArrow_00000114761930308219309580000011368931383339713463_">
			<path fill="none" stroke="#333333" d="M106.347,297.213c2.825-5.407,2.859-10.832,0.103-16.276"/>
			<path fill="none" stroke="#333333" d="M110.69,284.206l-4.24-3.269l-2.285,4.766"/>
		</g>
	</g>
	<g id="playgroundArrows_00000007426294402192453410000011206462859892314011_">
		<g id="jaimieArrow_00000005969953930045064040000010258385002388046509_">
			<path fill="none" stroke="#333333" d="M459.275,109.839c-3.339,4.294-3.312,8.579,0.081,12.856"/>
			<path fill="none" stroke="#333333" d="M461.467,121.435l-0.858,4.064l-3.754-1.778"/>
		</g>
		<g id="greeneArrow_00000126302979057727406050000000541638486501596562_">
			<path fill="none" stroke="#333333" d="M798.693,185.907c-1.903,4.294-1.888,8.579,0.046,12.856"/>
			<path fill="none" stroke="#333333" d="M796.586,199.945l4.324,0.579l-0.412-4.135"/>
		</g>
		<g id="edmondsArrow_00000077284022432752417880000010907314962303365004_">
			<path fill="none" stroke="#333333" d="M684.189,102.625c-1.903,4.294-1.888,8.579,0.046,12.856"/>
			<path fill="none" stroke="#333333" d="M682.082,116.663l4.324,0.579l-0.412-4.135"/>
		</g>
		<g id="albertArrow_00000034082609102282824970000011450822368548710048_">
			<path fill="none" stroke="#333333" d="M731.766,156.381c-1.903,4.294-1.888,8.579,0.046,12.856"/>
			<path fill="none" stroke="#333333" d="M729.658,170.418l4.324,0.579l-0.412-4.135"/>
		</g>
		<g id="blueArrow_00000046340655856448526240000013036896419928959126_">
			<path fill="none" stroke="#333333" d="M472.581,189.717c-0.672,4.898-3.298,8.285-7.878,10.159"/>
			<path fill="none" stroke="#333333" d="M466.182,202.503l-4.769-2.933l2.939-2.957"/>
		</g>
		<g id="frostArrow_00000113316533345032495020000013332218563183956654_">
			<path fill="none" stroke="#333333" d="M133.302,125.686c2.691,5.436,2.669,10.862-0.066,16.276"/>
			<path fill="none" stroke="#333333" d="M137.391,138.738l-4.155,3.224l-2.172-4.789"/>
		</g>
		<g id="rodneyArrow_00000012459423783221379730000000004494716443965104_">
			<path fill="none" stroke="#333333" d="M429.225,307.614c-4.26,2.51-8.545,2.549-12.855,0.118"/>
			<path fill="none" stroke="#333333" d="M415.227,310.522l-0.656-5.56l4.142,0.473"/>
		</g>
		<g id="rodneyArrow2_00000165930090320687387470000007641823019661902496_">
			<path fill="none" stroke="#333333" d="M430.166,296.862c0.371-5.304-1.29-9.546-4.984-12.726"/>
			<path fill="none" stroke="#333333" d="M427.013,281.781l-4.809,1.799l2.024,3.876"/>
		</g>
		<g id="rodneyarrow3_00000071545736835482236070000002540649133254472328_">
			<path fill="none" stroke="#333333" d="M430.695,297.211c3.235-12.928,2.89-22.279-1.035-28.053"/>
			<path fill="none" stroke="#333333" d="M433.295,268.098l-4.922-1.462l-0.719,4.313"/>
		</g>
		<g id="strawberryArrow_00000064335854258497083400000008895953286493860523_">
			<path fill="none" stroke="#333333" d="M465.76,229.323c-7.115-1.309-13.292-0.198-18.529,3.333"/>
			<path fill="none" stroke="#333333" d="M445.597,228.77L444,234.288l5.815,1.393"/>
		</g>
		<g id="marcieArrow_00000019647786582164870380000011227091145586564247_">
			<path fill="none" stroke="#333333" d="M405.989,210.085c-1.071,6.066,0.866,10.414,5.812,13.043"/>
			<path fill="none" stroke="#333333" d="M413.128,220.774l1.046,4.572l-4.153,0.097"/>
		</g>
		<g id="marcieArrow_00000012468146022542598150000001220217637363384983_">
			<path fill="none" stroke="#333333" d="M402.037,211.322c-5.71,11.837-6.032,23.209-0.966,34.115"/>
			<path fill="none" stroke="#333333" d="M402.522,242.879l1.046,4.572l-4.153,0.097"/>
		</g>
	</g>
</g>
<style>
#g-parks-ew-Artboard_1-interactions-img rect, #g-parks-ew-Artboard_1-interactions-img circle, #g-parks-ew-Artboard_1-interactions-img path, #g-parks-ew-Artboard_1-interactions-img line, #g-parks-ew-Artboard_1-interactions-img polyline, #g-parks-ew-Artboard_1-interactions-img polygon { vector-effect: non-scaling-stroke; }
</style>
</svg>

