<?xml version="1.0" encoding="utf-8"?>
<!-- Generator: Adobe Illustrator 26.3.1, SVG Export Plug-In . SVG Version: 6.00 Build 0)  -->
<svg version="1.2" baseProfile="tiny" id="g-parks-ew-responsive-large-interactions-img" xmlns="http://www.w3.org/2000/svg" xmlns:xlink="http://www.w3.org/1999/xlink"
	 x="0px" y="0px" viewBox="0 0 900 400" overflow="visible" xml:space="preserve">
<g>
	<g id="playgroundLots_00000059275519277971625010000009698601826994485939_">
		
			<path id="playground_00000028326287555698631920000000394322578555668609_" fill="#389B2A" fill-opacity="0.2" stroke="#888888" stroke-miterlimit="10" d="
			M739.706,181.843l-2.188-16.443l15.315-2.902l2.407,17.169L739.706,181.843z"/>
		
			<path id="greenePlayground_00000157997642489666171370000010860985910545593755_" fill="#389B2A" fill-opacity="0.2" stroke="#888888" stroke-miterlimit="10" d="
			M804.36,198.529l14.878-2.418l2.079,14.267l-14.878,2.781L804.36,198.529z"/>
		
			<path id="rodneyParkCenter_00000052088435725059205260000011897024021579433906_" fill="#389B2A" fill-opacity="0.2" stroke="#888888" stroke-miterlimit="10" d="
			M415.434,271.061l6.383,3.017l-3.191,6.383l-1.683-0.812l-3.191,7.021l-4.642-1.915L415.434,271.061z"/>
		
			<path id="rodneyPlaygroundNorth_00000085219772291110922660000007493230455884115371_" fill="#389B2A" fill-opacity="0.2" stroke="#888888" stroke-miterlimit="10" d="
			M445.933,211.27l10.386-21.236l4.004,0.696l-10.502,20.54H445.933z"/>
		
			<path id="rodneyPlaygroundCenter_00000069361833656433118810000004457727841562957963_" fill="#389B2A" fill-opacity="0.2" stroke="#888888" stroke-miterlimit="10" d="
			M437.056,227.553l2.959-6.441l6.441-0.754l-4.526,9.574L437.056,227.553z"/>
		
			<path id="rodneyParkSouth_00000123414982596774576920000005206092234733109431_" fill="#389B2A" fill-opacity="0.2" stroke="#888888" stroke-miterlimit="10" d="
			M406.332,293.264l5.976,1.335l-3.017,7.891l-1.335,7.137l-7.311-0.812L406.332,293.264z"/>
		
			<path id="rodneyParkNorth_00000046310824731272512350000013453434586313367450_" fill="#389B2A" fill-opacity="0.2" stroke="#888888" stroke-miterlimit="10" d="
			M419.2,265.058l6.208-13.577l6.15,2.843l-6.266,13.577L419.2,265.058z"/>
		
			<path id="strawberryPlayground_00000011024853316822573180000009215257707600304780_" fill="#389B2A" fill-opacity="0.2" stroke="#888888" stroke-miterlimit="10" d="
			M434.798,245.699l-5.802-3.191l6.15-12.011l5.686,2.959L434.798,245.699z"/>
		
			<path id="marcyGreenNorth_00000124151403039963314950000009721880927601161142_" fill="#389B2A" fill-opacity="0.2" stroke="#888888" stroke-miterlimit="10" d="
			M419.66,238.024l-6.023-3.104l5.606-12.741l5.004,5.56L419.66,238.024z"/>
		
			<path id="marcyGreenCenter_00000126319783202162169960000007966863401091225756_" fill="#389B2A" fill-opacity="0.2" stroke="#888888" stroke-miterlimit="10" d="
			M402.88,258.148l8.701-19.657l6.35,3.216l-9.038,19.955L402.88,258.148z"/>
		
			<path id="jaimiePlayground_00000158022521290841659050000015566734413962156461_" fill="#389B2A" fill-opacity="0.2" stroke="#888888" stroke-miterlimit="10" d="
			M455.475,150.351l15.154-32.359h14.452l-27.279,33.098L455.475,150.351z"/>
		
			<path id="frostPlayground_00000086664361263614901130000014851000089252908456_" fill="#389B2A" fill-opacity="0.2" stroke="#888888" stroke-miterlimit="10" d="
			M126.723,161.705l-4.704-10.647l17.827-7.18l4.209,11.885L126.723,161.705z"/>
		
			<path id="edmondPlayground_00000030487181310781273650000008576841189712723903_" fill="#389B2A" fill-opacity="0.2" stroke="#888888" stroke-miterlimit="10" d="
			M692.119,124.896l-2.188-13.542l14.987,1.33l2.188,16.564l-7.986,1.935l-1.422-6.892L692.119,124.896z"/>
		
			<path id="playground_00000029031897783377324180000011727547442038778548_" fill="#389B2A" fill-opacity="0.2" stroke="#888888" stroke-miterlimit="10" d="
			M1202.933,539.965l-1.835-13.788l12.842-2.433l2.018,14.396L1202.933,539.965z"/>
		
			<path id="greenePlayground_00000083059571067472125720000009400080970523025084_" fill="#389B2A" fill-opacity="0.2" stroke="#888888" stroke-miterlimit="10" d="
			M1257.144,553.955l12.475-2.028l1.743,11.963l-12.475,2.332L1257.144,553.955z"/>
		
			<path id="rodneyParkCenter_00000103954907119988711010000009326974404370005643_" fill="#389B2A" fill-opacity="0.2" stroke="#888888" stroke-miterlimit="10" d="
			M1192.541,396.423l5.336,2.522l-2.668,5.336l-1.407-0.679l-2.668,5.87l-3.881-1.601L1192.541,396.423z"/>
		
			<path id="rodneyPlaygroundNorth_00000116205128066443043150000012511254256468349354_" fill="#389B2A" fill-opacity="0.2" stroke="#888888" stroke-miterlimit="10" d="
			M1218.039,346.436l8.683-17.754l3.347,0.582l-8.78,17.172H1218.039z"/>
		
			<path id="rodneyPlaygroundCenter_00000162324976926198738290000018372495829509659292_" fill="#389B2A" fill-opacity="0.2" stroke="#888888" stroke-miterlimit="10" d="
			M1210.617,360.05l2.474-5.384l5.385-0.631l-3.784,8.004L1210.617,360.05z"/>
		
			<path id="rodneyParkSouth_00000181048124312639349260000013409392678892413578_" fill="#389B2A" fill-opacity="0.2" stroke="#888888" stroke-miterlimit="10" d="
			M1184.931,414.985l4.996,1.116l-2.522,6.597l-1.116,5.967l-6.112-0.679L1184.931,414.985z"/>
		
			<path id="rodneyParkNorth_00000088092214341465042340000005610920664860997511_" fill="#389B2A" fill-opacity="0.2" stroke="#888888" stroke-miterlimit="10" d="
			M1195.69,391.405l5.19-11.351l5.142,2.377l-5.239,11.351L1195.69,391.405z"/>
		
			<path id="strawberryPlayground_00000140694240570928601260000008313954000898076305_" fill="#389B2A" fill-opacity="0.2" stroke="#888888" stroke-miterlimit="10" d="
			M1208.73,375.22l-4.851-2.668l5.142-10.041l4.754,2.474L1208.73,375.22z"/>
		
			<path id="marcyGreenNorth_00000130646472252540940450000000901636710400271515_" fill="#389B2A" fill-opacity="0.2" stroke="#888888" stroke-miterlimit="10" d="
			M1196.074,368.803l-5.036-2.595l4.687-10.652l4.183,4.648L1196.074,368.803z"/>
		
			<path id="marcyGreenCenter_00000065756177783470122670000017338535949003625609_" fill="#389B2A" fill-opacity="0.2" stroke="#888888" stroke-miterlimit="10" d="
			M1182.046,385.627l7.274-16.433l5.309,2.688l-7.556,16.683L1182.046,385.627z"/>
		
			<path id="jaimiePlayground_00000029728102277599432580000015220254194023254663_" fill="#389B2A" fill-opacity="0.2" stroke="#888888" stroke-miterlimit="10" d="
			M1226.016,295.507l12.67-27.053h12.082l-22.806,27.671L1226.016,295.507z"/>
		
			<path id="frostPlayground_00000165916698631662830640000000088112551175532714_" fill="#389B2A" fill-opacity="0.2" stroke="#888888" stroke-miterlimit="10" d="
			M1213.2,86.752l-3.942-8.922l14.94-6.017l3.527,9.96L1213.2,86.752z"/>
		
			<path id="edmondPlayground_00000075884729294957244960000014920058033720931764_" fill="#389B2A" fill-opacity="0.2" stroke="#888888" stroke-miterlimit="10" d="
			M1163.032,492.215l-1.835-11.354l12.567,1.115l1.835,13.889l-6.696,1.622l-1.192-5.779L1163.032,492.215z"/>
	</g>
	<g id="parkLots_00000098222257176632339810000011689877794477145263_">
		
			<path id="underwoodPark_00000013907180402294443600000007519806808552680098_" fill="#389B2A" fill-opacity="0.2" stroke="#888888" stroke-miterlimit="10" d="
			M797.686,149.199l-3.61-20.071l15.972-2.297l2.407,18.62L797.686,149.199z"/>
		
			<path id="cooper_00000073696266143346094750000005396244467035525307_" fill="#389B2A" fill-opacity="0.2" stroke="#888888" stroke-miterlimit="10" d="
			M134.646,234.995l59.424-22.532l16.342,46.549l-68.586-2.971L134.646,234.995z"/>
		
			<path id="underwoodPark_00000011748894253813706050000000614017683823629444_" fill="#389B2A" fill-opacity="0.2" stroke="#888888" stroke-miterlimit="10" d="
			M1251.549,512.592l-3.027-16.829l13.392-1.926l2.018,15.612L1251.549,512.592z"/>
		
			<path id="cooper_00000072988847036855491930000016621851064295786673_" fill="#389B2A" fill-opacity="0.2" stroke="#888888" stroke-miterlimit="10" d="
			M1219.84,148.17l49.798-18.882l13.695,39.009l-57.476-2.49L1219.84,148.17z"/>
	</g>
	<g id="commLots_00000032641710226048784450000016269285316934976159_">
		
			<path id="commGarden_00000060016241499737813940000015821236747254268335_" fill="#389B2A" fill-opacity="0.2" stroke="#888888" stroke-miterlimit="10" d="
			M705.575,227.788l-0.656-6.771l7.001-1.209l1.75,6.529L705.575,227.788z"/>
		
			<path id="keapFourthCommGarden_00000084509861335649930200000017777949075075538075_" fill="#389B2A" fill-opacity="0.2" stroke="#888888" stroke-miterlimit="10" d="
			M454.961,259.806l1.794-4.208l5.285,2.349l-2.452,4.025L454.961,259.806z"/>
		
			<path id="redShed_00000020369397885209797220000001827618559121694901_" fill="#389B2A" fill-opacity="0.2" stroke="#888888" stroke-miterlimit="10" d="
			M103.944,241.928l-2.724-14.361l4.952-0.248l2.476,12.132L103.944,241.928z"/>
		
			<path id="orientGrove_00000021839925970280259110000004984793503135308678_" fill="#389B2A" fill-opacity="0.2" stroke="#888888" stroke-miterlimit="10" d="
			M94.04,274.364l13.866-5.447l0.495,6.685L94.04,274.364z"/>
		
			<path id="commGarden_00000070118435423443165730000013447394191663914648_" fill="#389B2A" fill-opacity="0.2" stroke="#888888" stroke-miterlimit="10" d="
			M1174.314,578.489l-0.55-5.677l5.871-1.014l1.468,5.474L1174.314,578.489z"/>
		
			<path id="keapFourthCommGarden_00000034073164727099885030000003304184886328911012_" fill="#389B2A" fill-opacity="0.2" stroke="#888888" stroke-miterlimit="10" d="
			M1225.586,387.014l1.5-3.518l4.418,1.964l-2.05,3.365L1225.586,387.014z"/>
		
			<path id="redShed_00000155840412140668107630000017125244762826966714_" fill="#389B2A" fill-opacity="0.2" stroke="#888888" stroke-miterlimit="10" d="
			M1194.111,153.98l-2.282-12.035l4.15-0.208l2.075,10.167L1194.111,153.98z"/>
		
			<path id="orientGrove_00000064333884410293420210000001753894600472621444_" fill="#389B2A" fill-opacity="0.2" stroke="#888888" stroke-miterlimit="10" d="
			M1185.811,181.161l11.62-4.565l0.415,5.602L1185.811,181.161z"/>
	</g>
	<g id="trianglesLots_00000173841597432779899500000008757886859970672061_">
		
			<path id="cuylerGore_00000029014199104698116860000005946369064491431075_" fill="#389B2A" fill-opacity="0.2" stroke="#888888" stroke-miterlimit="10" d="
			M675.162,222.71l-0.219-3.144l24.067-2.66l1.313,19.587L675.162,222.71z"/>
		
			<path id="macriTriangle_00000059304399297655257790000011802784403027307156_" fill="#389B2A" fill-opacity="0.2" stroke="#888888" stroke-miterlimit="10" d="
			M508.735,111.386l13.113-16.188l3.017,16.188H508.735z"/>
		
			<path id="memorialGore_00000029025795146326390780000009045791587247474085_" fill="#389B2A" fill-opacity="0.2" stroke="#888888" stroke-miterlimit="10" d="
			M53.681,272.383l7.513-8.397l2.21,7.071L53.681,272.383z"/>
		
			<path id="cuylerGore_00000111869955216506249010000018249480633144420761_" fill="#389B2A" fill-opacity="0.2" stroke="#888888" stroke-miterlimit="10" d="
			M1148.814,574.231l-0.183-2.636l20.18-2.23l1.101,16.423L1148.814,574.231z"/>
		
			<path id="macriTriangle_00000086691173181598775470000000952893079328646817_" fill="#389B2A" fill-opacity="0.2" stroke="#888888" stroke-miterlimit="10" d="
			M1270.543,262.931l10.963-13.534l2.522,13.534H1270.543z"/>
		
			<path id="memorialGore_00000052105112728248547380000004085103247016483006_" fill="#389B2A" fill-opacity="0.2" stroke="#888888" stroke-miterlimit="10" d="
			M1151.99,179.502l6.296-7.037l1.852,5.926L1151.99,179.502z"/>
	</g>
	<g id="parkArrows_00000146477484853982805860000008485644935326173618_">
		<g id="underwoodArrow_00000054963242834340394150000012953012926544561837_">
			<path fill="none" stroke="#333333" d="M818.338,117.968c1.81,4.294,1.796,8.579-0.044,12.856"/>
			<path fill="none" stroke="#333333" d="M820.342,132.005l-4.113,0.579l0.392-4.135"/>
		</g>
		<g id="cooperArrow_00000027577663180888855690000007895668139362349230_">
			<path fill="none" stroke="#333333" d="M203.474,199.535c2.691,5.436,2.669,10.862-0.066,16.276"/>
			<path fill="none" stroke="#333333" d="M207.563,212.586l-4.155,3.224l-2.172-4.789"/>
		</g>
		<g id="underwoodArrow_00000024682185980190109760000014329733987810540417_">
			<path fill="none" stroke="#333333" d="M1268.865,486.406c1.518,3.6,1.506,7.193-0.037,10.779"/>
			<path fill="none" stroke="#333333" d="M1270.546,498.176l-3.449,0.485l0.328-3.467"/>
		</g>
		<g id="cooperArrow_00000010273298602509780570000011806332224422200239_">
			<path fill="none" stroke="#333333" d="M1277.518,118.454c2.255,4.556,2.237,9.102-0.055,13.64"/>
			<path fill="none" stroke="#333333" d="M1280.945,129.391l-3.482,2.702l-1.82-4.014"/>
		</g>
	</g>
	<g id="triangleArrows_00000125588127780367990580000003815922362435707011_">
		<g id="cuylerArrow_00000181771472941509282880000000299926297947725720_">
			<path fill="none" stroke="#333333" d="M669.925,204.189c-1.903,4.294-1.888,8.579,0.046,12.856"/>
			<path fill="none" stroke="#333333" d="M667.818,218.227l4.324,0.579l-0.412-4.135"/>
		</g>
		<g id="macriArrow_00000176722070464773485780000016978098941551391139_">
			<path fill="none" stroke="#333333" d="M520.855,130.407c-3.313-3.67-4.21-7.861-2.691-12.571"/>
			<path fill="none" stroke="#333333" d="M515.437,118.063l3.791-3.516l0.973,4.482"/>
		</g>
		<g id="memorialArrow_00000145776427167003951010000010536853060586121607_">
			<path fill="none" stroke="#333333" d="M42.765,250.034c0.723,6.057,3.759,10.554,9.108,13.489"/>
			<path fill="none" stroke="#333333" d="M46.528,263.22l5.345,0.303l-0.807-5.223"/>
		</g>
		<g id="cuylerArrow_00000178196580812497753460000000144669743667873431_">
			<path fill="none" stroke="#333333" d="M1144.422,558.701c-1.596,3.6-1.583,7.193,0.039,10.779"/>
			<path fill="none" stroke="#333333" d="M1142.655,570.472l3.626,0.485l-0.345-3.467"/>
		</g>
		<g id="macriArrow_00000124143301602167398340000009082936159495977891_">
			<path fill="none" stroke="#333333" d="M1280.675,278.833c-2.769-3.068-3.519-6.572-2.25-10.51"/>
			<path fill="none" stroke="#333333" d="M1276.146,268.513l3.169-2.939l0.813,3.747"/>
		</g>
		<g id="memorialArrow_00000123425052136774714580000008816458015894457472_">
			<path fill="none" stroke="#333333" d="M1142.842,160.772c0.606,5.076,3.15,8.844,7.633,11.304"/>
			<path fill="none" stroke="#333333" d="M1145.995,171.823l4.479,0.254l-0.676-4.377"/>
		</g>
	</g>
	<g id="commArrows_00000157292461989092393990000011385962672930426024_">
		<g id="brooklynGarden_00000024709775052712032630000013732842222770358410_">
			<path fill="none" stroke="#333333" d="M731.526,231.19c-1.589-4.574-4.703-7.518-9.343-8.835"/>
			<path fill="none" stroke="#333333" d="M723.046,219.719l-3.871,3.257l3.322,2.506"/>
		</g>
		<g id="keapArrow_00000145032175122103984310000012186131283758110091_">
			<path fill="none" stroke="#333333" d="M474.347,271.715c-4.772,1.293-8.915,0.196-12.428-3.29"/>
			<path fill="none" stroke="#333333" d="M460.078,270.812l0.84-5.535l3.869,1.553"/>
		</g>
		<g id="redArrow_00000084498967008945168160000007787378514890230151_">
			<path fill="none" stroke="#333333" d="M87.541,212.48c0.835,6.208,4.153,10.5,9.955,12.877"/>
			<path fill="none" stroke="#333333" d="M91.722,225.717l5.774-0.36l-0.918-5.33"/>
		</g>
		<g id="orientArrow_00000051374120713666511750000007521939264019962020_">
			<path fill="none" stroke="#333333" d="M106.347,297.213c2.825-5.407,2.859-10.832,0.103-16.276"/>
			<path fill="none" stroke="#333333" d="M110.69,284.206l-4.24-3.269l-2.285,4.766"/>
		</g>
		<g id="brooklynGarden_00000025422586511220377270000003444141541645596600_">
			<path fill="none" stroke="#333333" d="M1196.074,581.342c-1.332-3.835-3.943-6.304-7.834-7.408"/>
			<path fill="none" stroke="#333333" d="M1188.964,571.722l-3.246,2.731l2.786,2.101"/>
		</g>
		<g id="keapArrow_00000171714740921856440860000006524183270854723971_">
			<path fill="none" stroke="#333333" d="M1241.794,396.97c-3.99,1.081-7.453,0.164-10.39-2.751"/>
			<path fill="none" stroke="#333333" d="M1229.865,396.215l0.702-4.627l3.235,1.298"/>
		</g>
		<g id="redArrow_00000149349303323150182030000005786665092434790017_">
			<path fill="none" stroke="#333333" d="M1180.365,129.302c0.699,5.202,3.48,8.799,8.342,10.791"/>
			<path fill="none" stroke="#333333" d="M1183.869,140.395l4.839-0.302l-0.769-4.466"/>
		</g>
		<g id="orientArrow_00000008141363043030739530000001744414521701517199_">
			<path fill="none" stroke="#333333" d="M1196.125,200.31c2.367-4.531,2.396-9.078,0.087-13.64"/>
			<path fill="none" stroke="#333333" d="M1199.764,189.41l-3.553-2.74l-1.915,3.994"/>
		</g>
	</g>
	<g id="playgroundArrows_00000166638075404661493520000014951802749366301375_">
		<g id="jaimieArrow_00000165201680380769109790000010186932541591065021_">
			<path fill="none" stroke="#333333" d="M459.275,109.839c-3.339,4.294-3.312,8.579,0.081,12.856"/>
			<path fill="none" stroke="#333333" d="M461.467,121.435l-0.858,4.064l-3.754-1.778"/>
		</g>
		<g id="greeneArrow_00000114794513882581390320000014303038782994679216_">
			<path fill="none" stroke="#333333" d="M798.693,185.907c-1.903,4.294-1.888,8.579,0.046,12.856"/>
			<path fill="none" stroke="#333333" d="M796.586,199.945l4.324,0.579l-0.412-4.135"/>
		</g>
		<g id="edmondsArrow_00000126288799665579593230000006429831428300351152_">
			<path fill="none" stroke="#333333" d="M684.189,102.625c-1.903,4.294-1.888,8.579,0.046,12.856"/>
			<path fill="none" stroke="#333333" d="M682.082,116.663l4.324,0.579l-0.412-4.135"/>
		</g>
		<g id="albertArrow_00000072277636641240046880000009658545635466395526_">
			<path fill="none" stroke="#333333" d="M731.766,156.381c-1.903,4.294-1.888,8.579,0.046,12.856"/>
			<path fill="none" stroke="#333333" d="M729.658,170.418l4.324,0.579l-0.412-4.135"/>
		</g>
		<g id="blueArrow_00000141448200687933789970000010571059104216910208_">
			<path fill="none" stroke="#333333" d="M472.581,189.717c-0.672,4.898-3.298,8.285-7.878,10.159"/>
			<path fill="none" stroke="#333333" d="M466.182,202.503l-4.769-2.933l2.939-2.957"/>
		</g>
		<g id="frostArrow_00000068642234258756897320000006119207951131232137_">
			<path fill="none" stroke="#333333" d="M133.302,125.686c2.691,5.436,2.669,10.862-0.066,16.276"/>
			<path fill="none" stroke="#333333" d="M137.391,138.738l-4.155,3.224l-2.172-4.789"/>
		</g>
		<g id="rodneyArrow_00000089568860397899506470000011714374816179787151_">
			<path fill="none" stroke="#333333" d="M429.225,307.614c-4.26,2.51-8.545,2.549-12.855,0.118"/>
			<path fill="none" stroke="#333333" d="M415.227,310.522l-0.656-5.56l4.142,0.473"/>
		</g>
		<g id="rodneyArrow2_00000104669926088861615030000007908174429148214446_">
			<path fill="none" stroke="#333333" d="M430.166,296.862c0.371-5.304-1.29-9.546-4.984-12.726"/>
			<path fill="none" stroke="#333333" d="M427.013,281.781l-4.809,1.799l2.024,3.876"/>
		</g>
		<g id="rodneyarrow3_00000051356495080108451800000011366224930475912102_">
			<path fill="none" stroke="#333333" d="M430.695,297.211c3.235-12.928,2.89-22.279-1.035-28.053"/>
			<path fill="none" stroke="#333333" d="M433.295,268.098l-4.922-1.462l-0.719,4.313"/>
		</g>
		<g id="strawberryArrow_00000115472986981579903350000002765045623840821395_">
			<path fill="none" stroke="#333333" d="M465.76,229.323c-7.115-1.309-13.292-0.198-18.529,3.333"/>
			<path fill="none" stroke="#333333" d="M445.597,228.77L444,234.288l5.815,1.393"/>
		</g>
		<g id="marcieArrow_00000174594147913969027700000016107867589163867013_">
			<path fill="none" stroke="#333333" d="M405.989,210.085c-1.071,6.066,0.866,10.414,5.812,13.043"/>
			<path fill="none" stroke="#333333" d="M413.128,220.774l1.046,4.572l-4.153,0.097"/>
		</g>
		<g id="marcieArrow_00000137824024221774002850000012506179652304833188_">
			<path fill="none" stroke="#333333" d="M402.037,211.322c-5.71,11.837-6.032,23.209-0.966,34.115"/>
			<path fill="none" stroke="#333333" d="M402.522,242.879l1.046,4.572l-4.153,0.097"/>
		</g>
		<g id="jaimieArrow_00000105422986441613241310000011545690177446370192_">
			<path fill="none" stroke="#333333" d="M1229.193,261.637c-2.792,3.59-2.769,7.172,0.068,10.748"/>
			<path fill="none" stroke="#333333" d="M1231.026,271.332l-0.718,3.398l-3.138-1.486"/>
		</g>
		<g id="greeneArrow_00000098909558235226191770000002682194847089340060_">
			<path fill="none" stroke="#333333" d="M1252.393,543.372c-1.596,3.6-1.583,7.193,0.039,10.779"/>
			<path fill="none" stroke="#333333" d="M1250.626,555.143l3.626,0.485l-0.345-3.467"/>
		</g>
		<g id="edmondsArrow_00000090272706467719251600000002042025444864447117_">
			<path fill="none" stroke="#333333" d="M1156.383,473.541c-1.596,3.6-1.583,7.193,0.039,10.779"/>
			<path fill="none" stroke="#333333" d="M1154.616,485.311l3.626,0.485l-0.345-3.467"/>
		</g>
		<g id="albertArrow_00000046302784722047671560000012273235649005438376_">
			<path fill="none" stroke="#333333" d="M1196.275,518.614c-1.596,3.6-1.583,7.193,0.039,10.779"/>
			<path fill="none" stroke="#333333" d="M1194.508,530.385l3.626,0.485l-0.345-3.467"/>
		</g>
		<g id="blueArrow_00000155858439767438737990000000367529592171892651_">
			<path fill="none" stroke="#333333" d="M1240.317,328.418c-0.562,4.095-2.757,6.926-6.586,8.493"/>
			<path fill="none" stroke="#333333" d="M1234.968,339.107l-3.987-2.452l2.458-2.472"/>
		</g>
		<g id="frostArrow_00000080915983577222522780000008195660367313253030_">
			<path fill="none" stroke="#333333" d="M1218.713,56.568c2.255,4.556,2.237,9.102-0.055,13.64"/>
			<path fill="none" stroke="#333333" d="M1222.14,67.505l-3.482,2.702l-1.82-4.014"/>
		</g>
		<g id="rodneyArrow_00000104686986625871605210000008388937151361942657_">
			<path fill="none" stroke="#333333" d="M1204.071,426.983c-3.561,2.099-7.144,2.131-10.747,0.099"/>
			<path fill="none" stroke="#333333" d="M1192.368,429.414l-0.548-4.648l3.463,0.395"/>
		</g>
		<g id="rodneyArrow2_00000132056429839668796040000012989075373312267138_">
			<path fill="none" stroke="#333333" d="M1204.857,417.993c0.31-4.434-1.079-7.98-4.167-10.639"/>
			<path fill="none" stroke="#333333" d="M1202.222,405.386l-4.021,1.504l1.692,3.24"/>
		</g>
		<g id="rodneyarrow3_00000060021215988104059070000010149042601905895318_">
			<path fill="none" stroke="#333333" d="M1205.299,418.285c2.704-10.808,2.416-18.626-0.865-23.453"/>
			<path fill="none" stroke="#333333" d="M1207.473,393.946l-4.115-1.222l-0.601,3.606"/>
		</g>
		<g id="strawberryArrow_00000124135486405867227100000000807185479233574583_">
			<path fill="none" stroke="#333333" d="M1234.615,361.529c-5.948-1.095-11.112-0.166-15.491,2.787"/>
			<path fill="none" stroke="#333333" d="M1217.758,361.067l-1.335,4.614l4.861,1.165"/>
		</g>
		<g id="marcieArrow_00000062165470085455415670000015126273785730057663_">
			<path fill="none" stroke="#333333" d="M1184.645,345.446c-0.895,5.071,0.724,8.706,4.859,10.904"/>
			<path fill="none" stroke="#333333" d="M1190.613,354.382l0.875,3.823l-3.472,0.081"/>
		</g>
		<g id="marcieArrow_00000003820377979565472540000014906549677856246150_">
			<path fill="none" stroke="#333333" d="M1181.341,346.48c-4.774,9.896-5.043,19.403-0.807,28.521"/>
			<path fill="none" stroke="#333333" d="M1181.746,372.862l0.875,3.823l-3.472,0.081"/>
		</g>
	</g>
</g>
<style>
#g-parks-ew-responsive-large-interactions-img rect, #g-parks-ew-responsive-large-interactions-img circle, #g-parks-ew-responsive-large-interactions-img path, #g-parks-ew-responsive-large-interactions-img line, #g-parks-ew-responsive-large-interactions-img polyline, #g-parks-ew-responsive-large-interactions-img polygon { vector-effect: non-scaling-stroke; }
</style>
</svg>

